<ttFont>
    <TTGlyph name=".notdef" xMin="10" yMin="0" xMax="590" yMax="700">
      <contour>
        <pt x="10" y="700" on="1"/>
        <pt x="590" y="700" on="1"/>
        <pt x="590" y="0" on="1"/>
        <pt x="10" y="0" on="1"/>
      </contour>
      <contour>
        <pt x="495" y="630" on="1"/>
        <pt x="300" y="413" on="1"/>
        <pt x="105" y="630" on="1"/>
        <pt x="55" y="580" on="1"/>
        <pt x="252" y="360" on="1"/>
        <pt x="55" y="140" on="1"/>
        <pt x="105" y="90" on="1"/>
        <pt x="300" y="307" on="1"/>
        <pt x="495" y="90" on="1"/>
        <pt x="545" y="140" on="1"/>
        <pt x="347" y="360" on="1"/>
        <pt x="545" y="580" on="1"/>
      </contour>
    </TTGlyph>
    <TTGlyph name="A" xMin="16" yMin="0" xMax="584" yMax="700">
      <contour>
        <pt x="431" y="194" on="1"/>
        <pt x="162" y="194" on="1"/>
        <pt x="98" y="0" on="1"/>
        <pt x="16" y="0" on="1"/>
        <pt x="250" y="700" on="1"/>
        <pt x="348" y="700" on="1"/>
        <pt x="584" y="0" on="1"/>
        <pt x="497" y="0" on="1"/>
      </contour>
      <contour>
        <pt x="188" y="266" on="1"/>
        <pt x="408" y="266" on="1"/>
        <pt x="305" y="595" on="1"/>
        <pt x="293" y="595" on="1"/>
      </contour>
    </TTGlyph>
    <TTGlyph name="AE" xMin="20" yMin="0" xMax="569" yMax="700">
      <contour>
        <pt x="304" y="552" on="1"/>
        <pt x="283" y="486" on="1"/>
        <pt x="201" y="263" on="1"/>
        <pt x="306" y="263" on="1"/>
        <pt x="306" y="552" on="1"/>
      </contour>
      <contour>
        <pt x="306" y="191" on="1"/>
        <pt x="176" y="191" on="1"/>
        <pt x="103" y="0" on="1"/>
        <pt x="20" y="0" on="1"/>
        <pt x="294" y="700" on="1"/>
        <pt x="566" y="700" on="1"/>
        <pt x="566" y="625" on="1"/>
        <pt x="386" y="625" on="1"/>
        <pt x="386" y="397" on="1"/>
        <pt x="549" y="397" on="1"/>
        <pt x="549" y="322" on="1"/>
        <pt x="386" y="322" on="1"/>
        <pt x="386" y="75" on="1"/>
        <pt x="569" y="75" on="1"/>
        <pt x="569" y="0" on="1"/>
        <pt x="306" y="0" on="1"/>
      </contour>
    </TTGlyph>
    <TTGlyph name="Aacute" xMin="16" yMin="0" xMax="584" yMax="870">
      <component glyphName="A" x="0" y="0" flags="0x204"/>
      <component glyphName="uniF6C9" x="36" y="0" flags="0x4"/>
    </TTGlyph>
    <TTGlyph name="Abreve" xMin="16" yMin="0" xMax="584" yMax="871">
      <component glyphName="A" x="0" y="0" flags="0x204"/>
      <component glyphName="uniF406" x="1" y="0" flags="0x4"/>
    </TTGlyph>
    <TTGlyph name="Acircumflex" xMin="16" yMin="0" xMax="584" yMax="871">
      <component glyphName="A" x="0" y="0" flags="0x204"/>
      <component glyphName="uniF408" x="0" y="0" flags="0x4"/>
    </TTGlyph>
    <TTGlyph name="Adieresis" xMin="16" yMin="0" xMax="584" yMax="852">
      <component glyphName="A" x="0" y="0" flags="0x204"/>
      <component glyphName="uniF6CB" x="0" y="0" flags="0x4"/>
    </TTGlyph>
    <TTGlyph name="Agrave" xMin="16" yMin="0" xMax="584" yMax="870">
      <component glyphName="A" x="0" y="0" flags="0x204"/>
      <component glyphName="uniF6CE" x="-41" y="0" flags="0x4"/>
    </TTGlyph>
    <TTGlyph name="Amacron" xMin="16" yMin="0" xMax="584" yMax="843">
      <component glyphName="A" x="0" y="0" flags="0x204"/>
      <component glyphName="uniF6D0" x="-1" y="0" flags="0x4"/>
    </TTGlyph>
    <TTGlyph name="Aogonek" xMin="16" yMin="-195" xMax="602" yMax="700">
      <contour>
        <pt x="431" y="194" on="1"/>
        <pt x="162" y="194" on="1"/>
        <pt x="98" y="0" on="1"/>
        <pt x="16" y="0" on="1"/>
        <pt x="250" y="700" on="1"/>
        <pt x="348" y="700" on="1"/>
        <pt x="584" y="0" on="1"/>
        <pt x="555" y="0" on="1"/>
        <pt x="534" y="-13" on="0"/>
        <pt x="520" y="-30" on="1"/>
        <pt x="500" y="-55" on="0"/>
        <pt x="500" y="-87" on="1"/>
        <pt x="500" y="-107" on="0"/>
        <pt x="526" y="-138" on="0"/>
        <pt x="551" y="-138" on="1"/>
        <pt x="570" y="-138" on="0"/>
        <pt x="591" y="-128" on="1"/>
        <pt x="602" y="-171" on="1"/>
        <pt x="587" y="-183" on="0"/>
        <pt x="537" y="-195" on="0"/>
        <pt x="516" y="-195" on="1"/>
        <pt x="471" y="-195" on="0"/>
        <pt x="417" y="-147" on="0"/>
        <pt x="417" y="-106" on="1"/>
        <pt x="417" y="-65" on="0"/>
        <pt x="444" y="-36" on="1"/>
        <pt x="465" y="-14" on="0"/>
        <pt x="496" y="1" on="1"/>
      </contour>
      <contour>
        <pt x="188" y="266" on="1"/>
        <pt x="408" y="266" on="1"/>
        <pt x="305" y="595" on="1"/>
        <pt x="293" y="595" on="1"/>
      </contour>
    </TTGlyph>
    <TTGlyph name="Aring" xMin="15" yMin="0" xMax="584" yMax="853">
      <contour>
        <pt x="195" y="768" on="1"/>
        <pt x="195" y="805" on="0"/>
        <pt x="245" y="853" on="0"/>
        <pt x="300" y="853" on="1"/>
        <pt x="350" y="853" on="0"/>
        <pt x="406" y="810" on="0"/>
        <pt x="406" y="768" on="1"/>
        <pt x="406" y="736" on="0"/>
        <pt x="366" y="693" on="0"/>
        <pt x="327" y="687" on="1"/>
        <pt x="584" y="0" on="1"/>
        <pt x="497" y="0" on="1"/>
        <pt x="425" y="194" on="1"/>
        <pt x="167" y="194" on="1"/>
        <pt x="97" y="0" on="1"/>
        <pt x="15" y="0" on="1"/>
        <pt x="271" y="687" on="1"/>
        <pt x="233" y="693" on="0"/>
        <pt x="195" y="736" on="0"/>
      </contour>
      <contour>
        <pt x="194" y="266" on="1"/>
        <pt x="400" y="266" on="1"/>
        <pt x="297" y="554" on="1"/>
        <pt x="296" y="554" on="1"/>
      </contour>
      <contour>
        <pt x="256" y="768" on="1"/>
        <pt x="256" y="751" on="0"/>
        <pt x="277" y="728" on="0"/>
        <pt x="300" y="728" on="1"/>
        <pt x="322" y="728" on="0"/>
        <pt x="345" y="750" on="0"/>
        <pt x="345" y="768" on="1"/>
        <pt x="345" y="787" on="0"/>
        <pt x="323" y="810" on="0"/>
        <pt x="300" y="810" on="1"/>
        <pt x="278" y="810" on="0"/>
        <pt x="256" y="787" on="0"/>
      </contour>
    </TTGlyph>
    <TTGlyph name="Atilde" xMin="16" yMin="0" xMax="584" yMax="840">
      <component glyphName="A" x="0" y="0" flags="0x204"/>
      <component glyphName="uniF40D" x="1" y="0" flags="0x4"/>
    </TTGlyph>
    <TTGlyph name="B" xMin="100" yMin="-8" xMax="543" yMax="708">
      <contour>
        <pt x="522" y="540" on="1"/>
        <pt x="522" y="515" on="0"/>
        <pt x="506" y="463" on="0"/>
        <pt x="474" y="418" on="0"/>
        <pt x="424" y="384" on="0"/>
        <pt x="390" y="375" on="1"/>
        <pt x="390" y="371" on="1"/>
        <pt x="420" y="366" on="0"/>
        <pt x="475" y="342" on="0"/>
        <pt x="517" y="300" on="0"/>
        <pt x="543" y="240" on="0"/>
        <pt x="543" y="199" on="1"/>
        <pt x="543" y="145" on="0"/>
        <pt x="498" y="66" on="0"/>
        <pt x="425" y="16" on="0"/>
        <pt x="331" y="-8" on="0"/>
        <pt x="282" y="-8" on="1"/>
        <pt x="265" y="-8" on="0"/>
        <pt x="219" y="-8" on="0"/>
        <pt x="169" y="-5" on="0"/>
        <pt x="119" y="0" on="0"/>
        <pt x="100" y="5" on="1"/>
        <pt x="100" y="694" on="1"/>
        <pt x="137" y="700" on="0"/>
        <pt x="235" y="708" on="0"/>
        <pt x="293" y="708" on="1"/>
        <pt x="332" y="708" on="0"/>
        <pt x="413" y="695" on="0"/>
        <pt x="479" y="658" on="0"/>
        <pt x="522" y="592" on="0"/>
      </contour>
      <contour>
        <pt x="290" y="64" on="1"/>
        <pt x="322" y="64" on="0"/>
        <pt x="382" y="80" on="0"/>
        <pt x="428" y="112" on="0"/>
        <pt x="455" y="160" on="0"/>
        <pt x="455" y="193" on="1"/>
        <pt x="455" y="234" on="0"/>
        <pt x="422" y="284" on="0"/>
        <pt x="369" y="312" on="0"/>
        <pt x="303" y="322" on="0"/>
        <pt x="270" y="322" on="1"/>
        <pt x="183" y="322" on="1"/>
        <pt x="183" y="71" on="1"/>
        <pt x="190" y="69" on="0"/>
        <pt x="216" y="67" on="0"/>
        <pt x="246" y="65" on="0"/>
        <pt x="278" y="64" on="0"/>
      </contour>
      <contour>
        <pt x="235" y="392" on="1"/>
        <pt x="252" y="392" on="0"/>
        <pt x="300" y="394" on="0"/>
        <pt x="316" y="396" on="1"/>
        <pt x="340" y="404" on="0"/>
        <pt x="382" y="427" on="0"/>
        <pt x="415" y="459" on="0"/>
        <pt x="434" y="499" on="0"/>
        <pt x="434" y="523" on="1"/>
        <pt x="434" y="556" on="0"/>
        <pt x="409" y="600" on="0"/>
        <pt x="367" y="626" on="0"/>
        <pt x="313" y="636" on="0"/>
        <pt x="285" y="636" on="1"/>
        <pt x="252" y="636" on="0"/>
        <pt x="197" y="633" on="0"/>
        <pt x="183" y="630" on="1"/>
        <pt x="183" y="392" on="1"/>
      </contour>
    </TTGlyph>
    <TTGlyph name="C" xMin="65" yMin="-12" xMax="544" yMax="712">
      <contour>
        <pt x="458" y="624" on="1"/>
        <pt x="441" y="631" on="0"/>
        <pt x="400" y="638" on="0"/>
        <pt x="371" y="638" on="1"/>
        <pt x="330" y="638" on="0"/>
        <pt x="251" y="608" on="0"/>
        <pt x="190" y="540" on="0"/>
        <pt x="153" y="430" on="0"/>
        <pt x="153" y="350" on="1"/>
        <pt x="153" y="278" on="0"/>
        <pt x="186" y="170" on="0"/>
        <pt x="245" y="98" on="0"/>
        <pt x="328" y="62" on="0"/>
        <pt x="379" y="62" on="1"/>
        <pt x="405" y="62" on="0"/>
        <pt x="450" y="71" on="0"/>
        <pt x="469" y="79" on="1"/>
        <pt x="469" y="179" on="1"/>
        <pt x="543" y="179" on="1"/>
        <pt x="543" y="44" on="1"/>
        <pt x="544" y="42" on="1"/>
        <pt x="514" y="19" on="0"/>
        <pt x="422" y="-12" on="0"/>
        <pt x="356" y="-12" on="1"/>
        <pt x="293" y="-12" on="0"/>
        <pt x="186" y="31" on="0"/>
        <pt x="108" y="119" on="0"/>
        <pt x="65" y="256" on="0"/>
        <pt x="65" y="350" on="1"/>
        <pt x="65" y="448" on="0"/>
        <pt x="113" y="585" on="0"/>
        <pt x="195" y="672" on="0"/>
        <pt x="304" y="712" on="0"/>
        <pt x="366" y="712" on="1"/>
        <pt x="400" y="712" on="0"/>
        <pt x="450" y="707" on="0"/>
        <pt x="488" y="698" on="0"/>
        <pt x="517" y="684" on="0"/>
        <pt x="531" y="675" on="1"/>
        <pt x="532" y="675" on="1"/>
        <pt x="532" y="517" on="1"/>
        <pt x="458" y="517" on="1"/>
      </contour>
    </TTGlyph>
    <TTGlyph name="Cacute" xMin="65" yMin="-12" xMax="544" yMax="870">
      <component glyphName="C" x="0" y="0" flags="0x204"/>
      <component glyphName="uniF6C9" x="109" y="0" flags="0x4"/>
    </TTGlyph>
    <TTGlyph name="Ccaron" xMin="65" yMin="-12" xMax="544" yMax="870">
      <component glyphName="C" x="0" y="0" flags="0x204"/>
      <component glyphName="uniF6CA" x="50" y="0" flags="0x4"/>
    </TTGlyph>
    <TTGlyph name="Ccedilla" xMin="65" yMin="-208" xMax="544" yMax="712">
      <contour>
        <pt x="458" y="624" on="1"/>
        <pt x="441" y="631" on="0"/>
        <pt x="400" y="638" on="0"/>
        <pt x="371" y="638" on="1"/>
        <pt x="330" y="638" on="0"/>
        <pt x="251" y="608" on="0"/>
        <pt x="190" y="540" on="0"/>
        <pt x="153" y="430" on="0"/>
        <pt x="153" y="350" on="1"/>
        <pt x="153" y="278" on="0"/>
        <pt x="186" y="170" on="0"/>
        <pt x="245" y="98" on="0"/>
        <pt x="328" y="62" on="0"/>
        <pt x="379" y="62" on="1"/>
        <pt x="405" y="62" on="0"/>
        <pt x="450" y="71" on="0"/>
        <pt x="469" y="79" on="1"/>
        <pt x="469" y="179" on="1"/>
        <pt x="543" y="179" on="1"/>
        <pt x="543" y="44" on="1"/>
        <pt x="544" y="42" on="1"/>
        <pt x="514" y="19" on="0"/>
        <pt x="468" y="3" on="1"/>
        <pt x="435" y="-7" on="0"/>
        <pt x="392" y="-11" on="1"/>
        <pt x="374" y="-43" on="1"/>
        <pt x="416" y="-51" on="0"/>
        <pt x="453" y="-87" on="0"/>
        <pt x="453" y="-118" on="1"/>
        <pt x="453" y="-157" on="0"/>
        <pt x="389" y="-208" on="0"/>
        <pt x="331" y="-208" on="1"/>
        <pt x="320" y="-208" on="0"/>
        <pt x="298" y="-206" on="0"/>
        <pt x="286" y="-204" on="1"/>
        <pt x="295" y="-165" on="1"/>
        <pt x="301" y="-166" on="0"/>
        <pt x="306" y="-166" on="1"/>
        <pt x="316" y="-166" on="1"/>
        <pt x="338" y="-166" on="0"/>
        <pt x="363" y="-158" on="0"/>
        <pt x="376" y="-147" on="0"/>
        <pt x="379" y="-133" on="0"/>
        <pt x="379" y="-127" on="1"/>
        <pt x="379" y="-99" on="0"/>
        <pt x="293" y="-90" on="1"/>
        <pt x="334" y="-11" on="1"/>
        <pt x="284" y="-8" on="0"/>
        <pt x="239" y="9" on="1"/>
        <pt x="186" y="31" on="0"/>
        <pt x="108" y="119" on="0"/>
        <pt x="65" y="256" on="0"/>
        <pt x="65" y="350" on="1"/>
        <pt x="65" y="448" on="0"/>
        <pt x="113" y="585" on="0"/>
        <pt x="195" y="672" on="0"/>
        <pt x="304" y="712" on="0"/>
        <pt x="366" y="712" on="1"/>
        <pt x="400" y="712" on="0"/>
        <pt x="450" y="707" on="0"/>
        <pt x="488" y="698" on="0"/>
        <pt x="517" y="684" on="0"/>
        <pt x="531" y="675" on="1"/>
        <pt x="532" y="675" on="1"/>
        <pt x="532" y="517" on="1"/>
        <pt x="458" y="517" on="1"/>
      </contour>
    </TTGlyph>
    <TTGlyph name="Ccircumflex" xMin="65" yMin="-12" xMax="544" yMax="871">
      <component glyphName="C" x="0" y="0" flags="0x204"/>
      <component glyphName="uniF408" x="41" y="0" flags="0x4"/>
    </TTGlyph>
    <TTGlyph name="D" xMin="80" yMin="-9" xMax="552" yMax="708">
      <contour>
        <pt x="80" y="700" on="1"/>
        <pt x="118" y="705" on="0"/>
        <pt x="201" y="708" on="0"/>
        <pt x="230" y="708" on="1"/>
        <pt x="321" y="708" on="0"/>
        <pt x="444" y="656" on="0"/>
        <pt x="519" y="563" on="0"/>
        <pt x="552" y="433" on="0"/>
        <pt x="552" y="355" on="1"/>
        <pt x="552" y="284" on="0"/>
        <pt x="522" y="153" on="0"/>
        <pt x="448" y="52" on="0"/>
        <pt x="323" y="-9" on="0"/>
        <pt x="229" y="-9" on="1"/>
        <pt x="216" y="-9" on="0"/>
        <pt x="174" y="-8" on="0"/>
        <pt x="130" y="-5" on="0"/>
        <pt x="90" y="-3" on="0"/>
        <pt x="80" y="-1" on="1"/>
      </contour>
      <contour>
        <pt x="234" y="634" on="1"/>
        <pt x="220" y="634" on="0"/>
        <pt x="177" y="632" on="0"/>
        <pt x="163" y="629" on="1"/>
        <pt x="163" y="69" on="1"/>
        <pt x="168" y="68" on="0"/>
        <pt x="187" y="67" on="0"/>
        <pt x="207" y="66" on="0"/>
        <pt x="226" y="65" on="0"/>
        <pt x="232" y="65" on="1"/>
        <pt x="305" y="65" on="0"/>
        <pt x="396" y="113" on="0"/>
        <pt x="446" y="194" on="0"/>
        <pt x="464" y="299" on="0"/>
        <pt x="464" y="355" on="1"/>
        <pt x="464" y="404" on="0"/>
        <pt x="448" y="503" on="0"/>
        <pt x="399" y="583" on="0"/>
        <pt x="308" y="634" on="0"/>
      </contour>
    </TTGlyph>
    <TTGlyph name="Dcaron" xMin="80" yMin="-9" xMax="552" yMax="870">
      <component glyphName="D" x="0" y="0" flags="0x204"/>
      <component glyphName="uniF6CA" x="-24" y="0" flags="0x4"/>
    </TTGlyph>
    <TTGlyph name="Dcroat" xMin="9" yMin="-9" xMax="582" yMax="708">
      <component glyphName="Eth" x="0" y="0" flags="0x204"/>
    </TTGlyph>
    <TTGlyph name="E" xMin="107" yMin="0" xMax="523" yMax="700">
      <contour>
        <pt x="107" y="700" on="1"/>
        <pt x="518" y="700" on="1"/>
        <pt x="518" y="626" on="1"/>
        <pt x="190" y="626" on="1"/>
        <pt x="190" y="397" on="1"/>
        <pt x="493" y="397" on="1"/>
        <pt x="493" y="323" on="1"/>
        <pt x="190" y="323" on="1"/>
        <pt x="190" y="74" on="1"/>
        <pt x="523" y="74" on="1"/>
        <pt x="523" y="0" on="1"/>
        <pt x="107" y="0" on="1"/>
      </contour>
    </TTGlyph>
    <TTGlyph name="Eacute" xMin="107" yMin="0" xMax="523" yMax="870">
      <component glyphName="E" x="0" y="0" flags="0x204"/>
      <component glyphName="uniF6C9" x="50" y="0" flags="0x4"/>
    </TTGlyph>
    <TTGlyph name="Ecaron" xMin="107" yMin="0" xMax="523" yMax="870">
      <component glyphName="E" x="0" y="0" flags="0x204"/>
      <component glyphName="uniF6CA" x="10" y="0" flags="0x4"/>
    </TTGlyph>
    <TTGlyph name="Ecircumflex" xMin="107" yMin="0" xMax="523" yMax="871">
      <component glyphName="E" x="0" y="0" flags="0x204"/>
      <component glyphName="uniF408" x="11" y="0" flags="0x4"/>
    </TTGlyph>
    <TTGlyph name="Edieresis" xMin="107" yMin="0" xMax="523" yMax="852">
      <component glyphName="E" x="0" y="0" flags="0x204"/>
      <component glyphName="uniF6CB" x="11" y="0" flags="0x4"/>
    </TTGlyph>
    <TTGlyph name="Edotaccent" xMin="107" yMin="0" xMax="523" yMax="852">
      <component glyphName="E" x="0" y="0" flags="0x204"/>
      <component glyphName="uniF40B" x="17" y="0" flags="0x4"/>
    </TTGlyph>
    <TTGlyph name="Egrave" xMin="107" yMin="0" xMax="523" yMax="870">
      <component glyphName="E" x="0" y="0" flags="0x204"/>
      <component glyphName="uniF6CE" x="-27" y="0" flags="0x4"/>
    </TTGlyph>
    <TTGlyph name="Emacron" xMin="107" yMin="0" xMax="523" yMax="843">
      <component glyphName="E" x="0" y="0" flags="0x204"/>
      <component glyphName="uniF6D0" x="9" y="0" flags="0x4"/>
    </TTGlyph>
    <TTGlyph name="Eogonek" xMin="107" yMin="-195" xMax="550" yMax="700">
      <contour>
        <pt x="107" y="700" on="1"/>
        <pt x="518" y="700" on="1"/>
        <pt x="518" y="626" on="1"/>
        <pt x="190" y="626" on="1"/>
        <pt x="190" y="397" on="1"/>
        <pt x="493" y="397" on="1"/>
        <pt x="493" y="323" on="1"/>
        <pt x="190" y="323" on="1"/>
        <pt x="190" y="74" on="1"/>
        <pt x="523" y="74" on="1"/>
        <pt x="523" y="0" on="1"/>
        <pt x="503" y="0" on="1"/>
        <pt x="482" y="-13" on="0"/>
        <pt x="468" y="-30" on="1"/>
        <pt x="448" y="-55" on="0"/>
        <pt x="448" y="-87" on="1"/>
        <pt x="448" y="-107" on="0"/>
        <pt x="474" y="-138" on="0"/>
        <pt x="499" y="-138" on="1"/>
        <pt x="518" y="-138" on="0"/>
        <pt x="539" y="-128" on="1"/>
        <pt x="550" y="-171" on="1"/>
        <pt x="535" y="-183" on="0"/>
        <pt x="485" y="-195" on="0"/>
        <pt x="464" y="-195" on="1"/>
        <pt x="419" y="-195" on="0"/>
        <pt x="365" y="-147" on="0"/>
        <pt x="365" y="-106" on="1"/>
        <pt x="365" y="-65" on="0"/>
        <pt x="392" y="-36" on="1"/>
        <pt x="412" y="-15" on="0"/>
        <pt x="443" y="0" on="1"/>
        <pt x="107" y="0" on="1"/>
      </contour>
    </TTGlyph>
    <TTGlyph name="Eth" xMin="9" yMin="-9" xMax="582" yMax="708">
      <contour>
        <pt x="9" y="392" on="1"/>
        <pt x="99" y="392" on="1"/>
        <pt x="99" y="700" on="1"/>
        <pt x="137" y="705" on="0"/>
        <pt x="234" y="708" on="0"/>
        <pt x="276" y="708" on="1"/>
        <pt x="360" y="708" on="0"/>
        <pt x="477" y="656" on="0"/>
        <pt x="550" y="563" on="0"/>
        <pt x="582" y="433" on="0"/>
        <pt x="582" y="355" on="1"/>
        <pt x="582" y="284" on="0"/>
        <pt x="552" y="153" on="0"/>
        <pt x="479" y="52" on="0"/>
        <pt x="357" y="-9" on="0"/>
        <pt x="266" y="-9" on="1"/>
        <pt x="250" y="-9" on="0"/>
        <pt x="202" y="-8" on="0"/>
        <pt x="152" y="-5" on="0"/>
        <pt x="109" y="-3" on="0"/>
        <pt x="99" y="-1" on="1"/>
        <pt x="99" y="332" on="1"/>
        <pt x="9" y="332" on="1"/>
      </contour>
      <contour>
        <pt x="278" y="634" on="1"/>
        <pt x="252" y="634" on="0"/>
        <pt x="196" y="632" on="0"/>
        <pt x="182" y="629" on="1"/>
        <pt x="182" y="392" on="1"/>
        <pt x="319" y="392" on="1"/>
        <pt x="319" y="332" on="1"/>
        <pt x="182" y="332" on="1"/>
        <pt x="182" y="69" on="1"/>
        <pt x="187" y="68" on="0"/>
        <pt x="211" y="67" on="0"/>
        <pt x="238" y="66" on="0"/>
        <pt x="263" y="65" on="0"/>
        <pt x="268" y="65" on="1"/>
        <pt x="338" y="65" on="0"/>
        <pt x="427" y="113" on="0"/>
        <pt x="476" y="194" on="0"/>
        <pt x="494" y="299" on="0"/>
        <pt x="494" y="355" on="1"/>
        <pt x="494" y="404" on="0"/>
        <pt x="478" y="503" on="0"/>
        <pt x="431" y="583" on="0"/>
        <pt x="347" y="634" on="0"/>
      </contour>
    </TTGlyph>
    <TTGlyph name="Euro" xMin="40" yMin="-12" xMax="560" yMax="712">
      <contour>
        <pt x="58" y="454" on="1"/>
        <pt x="121" y="454" on="1"/>
        <pt x="133" y="521" on="0"/>
        <pt x="184" y="619" on="0"/>
        <pt x="257" y="682" on="0"/>
        <pt x="347" y="712" on="0"/>
        <pt x="398" y="712" on="1"/>
        <pt x="449" y="712" on="0"/>
        <pt x="523" y="699" on="0"/>
        <pt x="550" y="688" on="1"/>
        <pt x="529" y="615" on="1"/>
        <pt x="506" y="626" on="0"/>
        <pt x="444" y="638" on="0"/>
        <pt x="400" y="638" on="1"/>
        <pt x="367" y="638" on="0"/>
        <pt x="305" y="618" on="0"/>
        <pt x="254" y="573" on="0"/>
        <pt x="215" y="503" on="0"/>
        <pt x="205" y="454" on="1"/>
        <pt x="487" y="454" on="1"/>
        <pt x="470" y="388" on="1"/>
        <pt x="196" y="388" on="1"/>
        <pt x="195" y="377" on="0"/>
        <pt x="195" y="361" on="0"/>
        <pt x="195" y="350" on="1"/>
        <pt x="195" y="340" on="0"/>
        <pt x="195" y="327" on="0"/>
        <pt x="196" y="318" on="1"/>
        <pt x="450" y="318" on="1"/>
        <pt x="433" y="252" on="1"/>
        <pt x="203" y="252" on="1"/>
        <pt x="221" y="158" on="0"/>
        <pt x="328" y="62" on="0"/>
        <pt x="413" y="62" on="1"/>
        <pt x="452" y="62" on="0"/>
        <pt x="517" y="80" on="0"/>
        <pt x="540" y="94" on="1"/>
        <pt x="560" y="29" on="1"/>
        <pt x="530" y="6" on="0"/>
        <pt x="441" y="-12" on="0"/>
        <pt x="396" y="-12" on="1"/>
        <pt x="282" y="-12" on="0"/>
        <pt x="139" y="118" on="0"/>
        <pt x="119" y="252" on="1"/>
        <pt x="40" y="252" on="1"/>
        <pt x="58" y="318" on="1"/>
        <pt x="113" y="318" on="1"/>
        <pt x="112" y="327" on="0"/>
        <pt x="112" y="340" on="0"/>
        <pt x="112" y="350" on="1"/>
        <pt x="112" y="361" on="0"/>
        <pt x="112" y="377" on="0"/>
        <pt x="113" y="388" on="1"/>
        <pt x="40" y="388" on="1"/>
      </contour>
    </TTGlyph>
    <TTGlyph name="F" xMin="117" yMin="0" xMax="518" yMax="700">
      <contour>
        <pt x="117" y="700" on="1"/>
        <pt x="518" y="700" on="1"/>
        <pt x="518" y="626" on="1"/>
        <pt x="200" y="626" on="1"/>
        <pt x="200" y="387" on="1"/>
        <pt x="498" y="387" on="1"/>
        <pt x="498" y="313" on="1"/>
        <pt x="200" y="313" on="1"/>
        <pt x="200" y="0" on="1"/>
        <pt x="117" y="0" on="1"/>
      </contour>
    </TTGlyph>
    <TTGlyph name="G" xMin="53" yMin="-12" xMax="533" yMax="712">
      <contour>
        <pt x="437" y="631" on="1"/>
        <pt x="403" y="638" on="0"/>
        <pt x="354" y="638" on="1"/>
        <pt x="312" y="638" on="0"/>
        <pt x="235" y="609" on="0"/>
        <pt x="176" y="541" on="0"/>
        <pt x="141" y="431" on="0"/>
        <pt x="141" y="350" on="1"/>
        <pt x="141" y="202" on="0"/>
        <pt x="250" y="62" on="0"/>
        <pt x="353" y="62" on="1"/>
        <pt x="417" y="62" on="0"/>
        <pt x="462" y="87" on="1"/>
        <pt x="462" y="282" on="1"/>
        <pt x="318" y="282" on="1"/>
        <pt x="318" y="349" on="1"/>
        <pt x="533" y="349" on="1"/>
        <pt x="533" y="41" on="1"/>
        <pt x="517" y="29" on="0"/>
        <pt x="472" y="9" on="0"/>
        <pt x="421" y="-5" on="0"/>
        <pt x="366" y="-12" on="0"/>
        <pt x="340" y="-12" on="1"/>
        <pt x="273" y="-12" on="0"/>
        <pt x="167" y="31" on="0"/>
        <pt x="93" y="120" on="0"/>
        <pt x="53" y="257" on="0"/>
        <pt x="53" y="350" on="1"/>
        <pt x="53" y="447" on="0"/>
        <pt x="103" y="585" on="0"/>
        <pt x="185" y="672" on="0"/>
        <pt x="291" y="712" on="0"/>
        <pt x="347" y="712" on="1"/>
        <pt x="407" y="712" on="0"/>
        <pt x="485" y="699" on="0"/>
        <pt x="512" y="688" on="1"/>
        <pt x="511" y="684" on="1"/>
        <pt x="511" y="517" on="1"/>
        <pt x="437" y="517" on="1"/>
      </contour>
    </TTGlyph>
    <TTGlyph name="Gbreve" xMin="53" yMin="-12" xMax="533" yMax="871">
      <component glyphName="G" x="0" y="0" flags="0x204"/>
      <component glyphName="uniF406" x="30" y="0" flags="0x4"/>
    </TTGlyph>
    <TTGlyph name="Gcircumflex" xMin="53" yMin="-12" xMax="533" yMax="871">
      <component glyphName="G" x="0" y="0" flags="0x204"/>
      <component glyphName="uniF408" x="35" y="0" flags="0x4"/>
    </TTGlyph>
    <TTGlyph name="Gcommaaccent" xMin="53" yMin="-235" xMax="533" yMax="712">
      <component glyphName="G" x="0" y="0" flags="0x204"/>
      <component glyphName="uniF6C3" x="39" y="0" flags="0x4"/>
    </TTGlyph>
    <TTGlyph name="H" xMin="60" yMin="0" xMax="540" yMax="700">
      <contour>
        <pt x="457" y="321" on="1"/>
        <pt x="143" y="321" on="1"/>
        <pt x="143" y="0" on="1"/>
        <pt x="60" y="0" on="1"/>
        <pt x="60" y="700" on="1"/>
        <pt x="143" y="700" on="1"/>
        <pt x="143" y="395" on="1"/>
        <pt x="457" y="395" on="1"/>
        <pt x="457" y="700" on="1"/>
        <pt x="540" y="700" on="1"/>
        <pt x="540" y="0" on="1"/>
        <pt x="457" y="0" on="1"/>
      </contour>
    </TTGlyph>
    <TTGlyph name="H18533" xMin="85" yMin="67" xMax="515" yMax="497">
      <contour>
        <pt x="300" y="497" on="1"/>
        <pt x="354" y="497" on="0"/>
        <pt x="458" y="441" on="0"/>
        <pt x="515" y="338" on="0"/>
        <pt x="515" y="282" on="1"/>
        <pt x="515" y="193" on="0"/>
        <pt x="389" y="67" on="0"/>
        <pt x="300" y="67" on="1"/>
        <pt x="211" y="67" on="0"/>
        <pt x="85" y="193" on="0"/>
        <pt x="85" y="282" on="1"/>
        <pt x="85" y="338" on="0"/>
        <pt x="143" y="441" on="0"/>
        <pt x="246" y="497" on="0"/>
      </contour>
    </TTGlyph>
    <TTGlyph name="H18543" xMin="176" yMin="187" xMax="424" yMax="435">
      <contour>
        <pt x="424" y="187" on="1"/>
        <pt x="176" y="187" on="1"/>
        <pt x="176" y="435" on="1"/>
        <pt x="424" y="435" on="1"/>
      </contour>
    </TTGlyph>
    <TTGlyph name="H18551" xMin="176" yMin="187" xMax="424" yMax="435">
      <contour>
        <pt x="424" y="187" on="1"/>
        <pt x="176" y="187" on="1"/>
        <pt x="176" y="435" on="1"/>
        <pt x="424" y="435" on="1"/>
      </contour>
      <contour>
        <pt x="387" y="224" on="1"/>
        <pt x="387" y="398" on="1"/>
        <pt x="213" y="398" on="1"/>
        <pt x="213" y="224" on="1"/>
      </contour>
    </TTGlyph>
    <TTGlyph name="H22073" xMin="1" yMin="0" xMax="599" yMax="598">
      <contour>
        <pt x="1" y="598" on="1"/>
        <pt x="599" y="598" on="1"/>
        <pt x="599" y="0" on="1"/>
        <pt x="1" y="0" on="1"/>
      </contour>
      <contour>
        <pt x="38" y="561" on="1"/>
        <pt x="38" y="37" on="1"/>
        <pt x="562" y="37" on="1"/>
        <pt x="562" y="561" on="1"/>
      </contour>
    </TTGlyph>
    <TTGlyph name="Hbar" xMin="10" yMin="0" xMax="590" yMax="700">
      <contour>
        <pt x="10" y="587" on="1"/>
        <pt x="89" y="587" on="1"/>
        <pt x="89" y="700" on="1"/>
        <pt x="172" y="700" on="1"/>
        <pt x="172" y="587" on="1"/>
        <pt x="428" y="587" on="1"/>
        <pt x="428" y="700" on="1"/>
        <pt x="511" y="700" on="1"/>
        <pt x="511" y="587" on="1"/>
        <pt x="590" y="587" on="1"/>
        <pt x="590" y="523" on="1"/>
        <pt x="511" y="523" on="1"/>
        <pt x="511" y="0" on="1"/>
        <pt x="428" y="0" on="1"/>
        <pt x="428" y="321" on="1"/>
        <pt x="172" y="321" on="1"/>
        <pt x="172" y="0" on="1"/>
        <pt x="89" y="0" on="1"/>
        <pt x="89" y="523" on="1"/>
        <pt x="10" y="523" on="1"/>
      </contour>
      <contour>
        <pt x="428" y="395" on="1"/>
        <pt x="428" y="523" on="1"/>
        <pt x="172" y="523" on="1"/>
        <pt x="172" y="395" on="1"/>
      </contour>
    </TTGlyph>
    <TTGlyph name="Hcircumflex" xMin="60" yMin="0" xMax="540" yMax="871">
      <component glyphName="H" x="0" y="0" flags="0x204"/>
      <component glyphName="uniF408" x="-1" y="0" flags="0x4"/>
    </TTGlyph>
    <TTGlyph name="I" xMin="60" yMin="0" xMax="540" yMax="700">
      <contour>
        <pt x="60" y="700" on="1"/>
        <pt x="540" y="700" on="1"/>
        <pt x="540" y="626" on="1"/>
        <pt x="341" y="626" on="1"/>
        <pt x="341" y="74" on="1"/>
        <pt x="540" y="74" on="1"/>
        <pt x="540" y="0" on="1"/>
        <pt x="60" y="0" on="1"/>
        <pt x="60" y="74" on="1"/>
        <pt x="258" y="74" on="1"/>
        <pt x="258" y="626" on="1"/>
        <pt x="60" y="626" on="1"/>
      </contour>
    </TTGlyph>
    <TTGlyph name="Iacute" xMin="60" yMin="0" xMax="540" yMax="870">
      <component glyphName="I" x="0" y="0" flags="0x204"/>
      <component glyphName="uniF6C9" x="32" y="0" flags="0x4"/>
    </TTGlyph>
    <TTGlyph name="Icircumflex" xMin="60" yMin="0" xMax="540" yMax="871">
      <component glyphName="I" x="0" y="0" flags="0x204"/>
      <component glyphName="uniF408" x="-1" y="0" flags="0x4"/>
    </TTGlyph>
    <TTGlyph name="Idieresis" xMin="60" yMin="0" xMax="540" yMax="852">
      <component glyphName="I" x="0" y="0" flags="0x204"/>
      <component glyphName="uniF6CB" x="0" y="0" flags="0x4"/>
    </TTGlyph>
    <TTGlyph name="Idotaccent" xMin="60" yMin="0" xMax="540" yMax="852">
      <component glyphName="I" x="0" y="0" flags="0x204"/>
      <component glyphName="uniF40B" x="1" y="0" flags="0x4"/>
    </TTGlyph>
    <TTGlyph name="Igrave" xMin="60" yMin="0" xMax="540" yMax="870">
      <component glyphName="I" x="0" y="0" flags="0x204"/>
      <component glyphName="uniF6CE" x="-29" y="0" flags="0x4"/>
    </TTGlyph>
    <TTGlyph name="Imacron" xMin="60" yMin="0" xMax="540" yMax="843">
      <component glyphName="I" x="0" y="0" flags="0x204"/>
      <component glyphName="uniF6D0" x="0" y="0" flags="0x4"/>
    </TTGlyph>
    <TTGlyph name="Iogonek" xMin="60" yMin="-195" xMax="540" yMax="700">
      <contour>
        <pt x="60" y="700" on="1"/>
        <pt x="540" y="700" on="1"/>
        <pt x="540" y="626" on="1"/>
        <pt x="341" y="626" on="1"/>
        <pt x="341" y="74" on="1"/>
        <pt x="540" y="74" on="1"/>
        <pt x="540" y="0" on="1"/>
        <pt x="465" y="0" on="1"/>
        <pt x="444" y="-13" on="0"/>
        <pt x="430" y="-30" on="1"/>
        <pt x="410" y="-55" on="0"/>
        <pt x="410" y="-87" on="1"/>
        <pt x="410" y="-107" on="0"/>
        <pt x="436" y="-138" on="0"/>
        <pt x="461" y="-138" on="1"/>
        <pt x="480" y="-138" on="0"/>
        <pt x="501" y="-128" on="1"/>
        <pt x="512" y="-171" on="1"/>
        <pt x="497" y="-183" on="0"/>
        <pt x="447" y="-195" on="0"/>
        <pt x="426" y="-195" on="1"/>
        <pt x="381" y="-195" on="0"/>
        <pt x="327" y="-147" on="0"/>
        <pt x="327" y="-106" on="1"/>
        <pt x="327" y="-65" on="0"/>
        <pt x="354" y="-36" on="1"/>
        <pt x="374" y="-15" on="0"/>
        <pt x="405" y="0" on="1"/>
        <pt x="60" y="0" on="1"/>
        <pt x="60" y="74" on="1"/>
        <pt x="258" y="74" on="1"/>
        <pt x="258" y="626" on="1"/>
        <pt x="60" y="626" on="1"/>
      </contour>
    </TTGlyph>
    <TTGlyph name="J" xMin="84" yMin="-10" xMax="493" yMax="700">
      <contour>
        <pt x="97" y="700" on="1"/>
        <pt x="493" y="700" on="1"/>
        <pt x="493" y="248" on="1"/>
        <pt x="493" y="122" on="0"/>
        <pt x="373" y="-10" on="0"/>
        <pt x="260" y="-10" on="1"/>
        <pt x="231" y="-10" on="0"/>
        <pt x="175" y="0" on="0"/>
        <pt x="127" y="17" on="0"/>
        <pt x="92" y="37" on="0"/>
        <pt x="84" y="46" on="1"/>
        <pt x="120" y="112" on="1"/>
        <pt x="131" y="105" on="0"/>
        <pt x="158" y="89" on="0"/>
        <pt x="191" y="74" on="0"/>
        <pt x="232" y="64" on="0"/>
        <pt x="258" y="64" on="1"/>
        <pt x="333" y="64" on="0"/>
        <pt x="410" y="158" on="0"/>
        <pt x="410" y="263" on="1"/>
        <pt x="410" y="626" on="1"/>
        <pt x="97" y="626" on="1"/>
      </contour>
    </TTGlyph>
    <TTGlyph name="Jcircumflex" xMin="84" yMin="-10" xMax="493" yMax="871">
      <component glyphName="J" x="0" y="0" flags="0x204"/>
      <component glyphName="uniF408" x="9" y="0" flags="0x4"/>
    </TTGlyph>
    <TTGlyph name="K" xMin="85" yMin="0" xMax="595" yMax="700">
      <contour>
        <pt x="245" y="324" on="1"/>
        <pt x="168" y="324" on="1"/>
        <pt x="168" y="0" on="1"/>
        <pt x="85" y="0" on="1"/>
        <pt x="85" y="700" on="1"/>
        <pt x="168" y="700" on="1"/>
        <pt x="168" y="388" on="1"/>
        <pt x="243" y="388" on="1"/>
        <pt x="468" y="700" on="1"/>
        <pt x="564" y="700" on="1"/>
        <pt x="317" y="367" on="1"/>
        <pt x="595" y="0" on="1"/>
        <pt x="490" y="0" on="1"/>
      </contour>
    </TTGlyph>
    <TTGlyph name="Kcommaaccent" xMin="85" yMin="-235" xMax="595" yMax="700">
      <component glyphName="K" x="0" y="0" flags="0x204"/>
      <component glyphName="uniF6C3" x="-9" y="0" flags="0x4"/>
    </TTGlyph>
    <TTGlyph name="L" xMin="90" yMin="0" xMax="530" yMax="700">
      <contour>
        <pt x="90" y="700" on="1"/>
        <pt x="173" y="700" on="1"/>
        <pt x="173" y="74" on="1"/>
        <pt x="456" y="74" on="1"/>
        <pt x="456" y="248" on="1"/>
        <pt x="530" y="248" on="1"/>
        <pt x="530" y="0" on="1"/>
        <pt x="90" y="0" on="1"/>
      </contour>
    </TTGlyph>
    <TTGlyph name="Lacute" xMin="90" yMin="0" xMax="530" yMax="870">
      <component glyphName="L" x="0" y="0" flags="0x204"/>
      <component glyphName="uniF6C9" x="-26" y="0" flags="0x4"/>
    </TTGlyph>
    <TTGlyph name="Lcaron" xMin="90" yMin="0" xMax="530" yMax="700">
      <component glyphName="L" x="0" y="0" flags="0x204"/>
      <component glyphName="caron.l" x="116" y="0" flags="0x4"/>
    </TTGlyph>
    <TTGlyph name="Lcommaaccent" xMin="90" yMin="-235" xMax="530" yMax="700">
      <component glyphName="L" x="0" y="0" flags="0x204"/>
      <component glyphName="uniF6C3" x="-5" y="0" flags="0x4"/>
    </TTGlyph>
    <TTGlyph name="Lslash" xMin="18" yMin="0" xMax="530" yMax="700">
      <contour>
        <pt x="18" y="287" on="1"/>
        <pt x="90" y="343" on="1"/>
        <pt x="90" y="700" on="1"/>
        <pt x="173" y="700" on="1"/>
        <pt x="173" y="408" on="1"/>
        <pt x="278" y="491" on="1"/>
        <pt x="278" y="411" on="1"/>
        <pt x="173" y="330" on="1"/>
        <pt x="173" y="74" on="1"/>
        <pt x="456" y="74" on="1"/>
        <pt x="456" y="248" on="1"/>
        <pt x="530" y="248" on="1"/>
        <pt x="530" y="0" on="1"/>
        <pt x="90" y="0" on="1"/>
        <pt x="90" y="266" on="1"/>
        <pt x="18" y="211" on="1"/>
      </contour>
    </TTGlyph>
    <TTGlyph name="M" xMin="60" yMin="0" xMax="540" yMax="700">
      <contour>
        <pt x="457" y="465" on="1"/>
        <pt x="467" y="560" on="1"/>
        <pt x="462" y="560" on="1"/>
        <pt x="414" y="474" on="1"/>
        <pt x="312" y="303" on="1"/>
        <pt x="287" y="303" on="1"/>
        <pt x="180" y="475" on="1"/>
        <pt x="134" y="560" on="1"/>
        <pt x="129" y="560" on="1"/>
        <pt x="141" y="466" on="1"/>
        <pt x="141" y="0" on="1"/>
        <pt x="60" y="0" on="1"/>
        <pt x="60" y="700" on="1"/>
        <pt x="137" y="700" on="1"/>
        <pt x="303" y="434" on="1"/>
        <pt x="305" y="434" on="1"/>
        <pt x="465" y="700" on="1"/>
        <pt x="540" y="700" on="1"/>
        <pt x="540" y="0" on="1"/>
        <pt x="457" y="0" on="1"/>
      </contour>
    </TTGlyph>
    <TTGlyph name="N" xMin="70" yMin="0" xMax="530" yMax="700">
      <contour>
        <pt x="196" y="438" on="1"/>
        <pt x="142" y="539" on="1"/>
        <pt x="138" y="539" on="1"/>
        <pt x="148" y="438" on="1"/>
        <pt x="148" y="0" on="1"/>
        <pt x="70" y="0" on="1"/>
        <pt x="70" y="700" on="1"/>
        <pt x="124" y="700" on="1"/>
        <pt x="406" y="264" on="1"/>
        <pt x="458" y="168" on="1"/>
        <pt x="463" y="168" on="1"/>
        <pt x="452" y="264" on="1"/>
        <pt x="452" y="700" on="1"/>
        <pt x="530" y="700" on="1"/>
        <pt x="530" y="0" on="1"/>
        <pt x="476" y="0" on="1"/>
      </contour>
    </TTGlyph>
    <TTGlyph name="Nacute" xMin="70" yMin="0" xMax="530" yMax="870">
      <component glyphName="N" x="0" y="0" flags="0x204"/>
      <component glyphName="uniF6C9" x="68" y="0" flags="0x4"/>
    </TTGlyph>
    <TTGlyph name="Ncaron" xMin="70" yMin="0" xMax="530" yMax="870">
      <component glyphName="N" x="0" y="0" flags="0x204"/>
      <component glyphName="uniF6CA" x="1" y="0" flags="0x4"/>
    </TTGlyph>
    <TTGlyph name="Ncommaaccent" xMin="70" yMin="-235" xMax="530" yMax="700">
      <component glyphName="N" x="0" y="0" flags="0x204"/>
      <component glyphName="uniF6C3" x="0" y="0" flags="0x4"/>
    </TTGlyph>
    <TTGlyph name="Ntilde" xMin="70" yMin="0" xMax="530" yMax="840">
      <component glyphName="N" x="0" y="0" flags="0x204"/>
      <component glyphName="uniF40D" x="1" y="0" flags="0x4"/>
    </TTGlyph>
    <TTGlyph name="O" xMin="48" yMin="-12" xMax="552" yMax="712">
      <contour>
        <pt x="48" y="350" on="1"/>
        <pt x="48" y="524" on="0"/>
        <pt x="171" y="712" on="0"/>
        <pt x="299" y="712" on="1"/>
        <pt x="369" y="712" on="0"/>
        <pt x="466" y="660" on="0"/>
        <pt x="526" y="565" on="0"/>
        <pt x="552" y="432" on="0"/>
        <pt x="552" y="350" on="1"/>
        <pt x="552" y="176" on="0"/>
        <pt x="429" y="-12" on="0"/>
        <pt x="299" y="-12" on="1"/>
        <pt x="230" y="-12" on="0"/>
        <pt x="134" y="40" on="0"/>
        <pt x="74" y="135" on="0"/>
        <pt x="48" y="268" on="0"/>
      </contour>
      <contour>
        <pt x="136" y="350" on="1"/>
        <pt x="136" y="292" on="0"/>
        <pt x="151" y="188" on="0"/>
        <pt x="189" y="109" on="0"/>
        <pt x="251" y="62" on="0"/>
        <pt x="299" y="62" on="1"/>
        <pt x="385" y="62" on="0"/>
        <pt x="464" y="202" on="0"/>
        <pt x="464" y="350" on="1"/>
        <pt x="464" y="407" on="0"/>
        <pt x="449" y="512" on="0"/>
        <pt x="411" y="591" on="0"/>
        <pt x="347" y="638" on="0"/>
        <pt x="299" y="638" on="1"/>
        <pt x="214" y="638" on="0"/>
        <pt x="136" y="497" on="0"/>
      </contour>
    </TTGlyph>
    <TTGlyph name="OE" xMin="28" yMin="-12" xMax="577" yMax="712">
      <contour>
        <pt x="314" y="618" on="1"/>
        <pt x="297" y="629" on="0"/>
        <pt x="253" y="639" on="0"/>
        <pt x="228" y="639" on="1"/>
        <pt x="170" y="639" on="0"/>
        <pt x="110" y="499" on="0"/>
        <pt x="110" y="350" on="1"/>
        <pt x="110" y="291" on="0"/>
        <pt x="123" y="186" on="0"/>
        <pt x="152" y="107" on="0"/>
        <pt x="199" y="61" on="0"/>
        <pt x="233" y="61" on="1"/>
        <pt x="252" y="61" on="0"/>
        <pt x="290" y="66" on="0"/>
        <pt x="314" y="77" on="1"/>
      </contour>
      <contour>
        <pt x="314" y="0" on="1"/>
        <pt x="298" y="-5" on="0"/>
        <pt x="253" y="-12" on="0"/>
        <pt x="227" y="-12" on="1"/>
        <pt x="176" y="-12" on="0"/>
        <pt x="102" y="39" on="0"/>
        <pt x="52" y="133" on="0"/>
        <pt x="28" y="267" on="0"/>
        <pt x="28" y="350" on="1"/>
        <pt x="28" y="527" on="0"/>
        <pt x="132" y="712" on="0"/>
        <pt x="227" y="712" on="1"/>
        <pt x="256" y="712" on="0"/>
        <pt x="295" y="705" on="0"/>
        <pt x="314" y="700" on="1"/>
        <pt x="574" y="700" on="1"/>
        <pt x="574" y="625" on="1"/>
        <pt x="394" y="625" on="1"/>
        <pt x="394" y="397" on="1"/>
        <pt x="557" y="397" on="1"/>
        <pt x="557" y="322" on="1"/>
        <pt x="394" y="322" on="1"/>
        <pt x="394" y="75" on="1"/>
        <pt x="577" y="75" on="1"/>
        <pt x="577" y="0" on="1"/>
      </contour>
    </TTGlyph>
    <TTGlyph name="Oacute" xMin="48" yMin="-12" xMax="552" yMax="870">
      <component glyphName="O" x="0" y="0" flags="0x204"/>
      <component glyphName="uniF6C9" x="71" y="0" flags="0x4"/>
    </TTGlyph>
    <TTGlyph name="Ocircumflex" xMin="48" yMin="-12" xMax="552" yMax="871">
      <component glyphName="O" x="0" y="0" flags="0x204"/>
      <component glyphName="uniF408" x="-2" y="0" flags="0x4"/>
    </TTGlyph>
    <TTGlyph name="Odieresis" xMin="48" yMin="-12" xMax="552" yMax="852">
      <component glyphName="O" x="0" y="0" flags="0x204"/>
      <component glyphName="uniF6CB" x="-2" y="0" flags="0x4"/>
    </TTGlyph>
    <TTGlyph name="Ograve" xMin="48" yMin="-12" xMax="552" yMax="870">
      <component glyphName="O" x="0" y="0" flags="0x204"/>
      <component glyphName="uniF6CE" x="-47" y="0" flags="0x4"/>
    </TTGlyph>
    <TTGlyph name="Ohungarumlaut" xMin="48" yMin="-12" xMax="552" yMax="850">
      <component glyphName="O" x="0" y="0" flags="0x204"/>
      <component glyphName="uniF6CF" x="63" y="0" flags="0x4"/>
    </TTGlyph>
    <TTGlyph name="Omacron" xMin="48" yMin="-12" xMax="552" yMax="843">
      <component glyphName="O" x="0" y="0" flags="0x204"/>
      <component glyphName="uniF6D0" x="6" y="0" flags="0x4"/>
    </TTGlyph>
    <TTGlyph name="Oslash" xMin="14" yMin="-12" xMax="586" yMax="713">
      <contour>
        <pt x="80" y="91" on="1"/>
        <pt x="46" y="139" on="0"/>
        <pt x="14" y="269" on="0"/>
        <pt x="14" y="350" on="1"/>
        <pt x="14" y="525" on="0"/>
        <pt x="162" y="712" on="0"/>
        <pt x="299" y="712" on="1"/>
        <pt x="356" y="712" on="0"/>
        <pt x="444" y="682" on="0"/>
        <pt x="478" y="653" on="1"/>
        <pt x="520" y="713" on="1"/>
        <pt x="572" y="678" on="1"/>
        <pt x="521" y="606" on="1"/>
        <pt x="554" y="558" on="0"/>
        <pt x="586" y="429" on="0"/>
        <pt x="586" y="350" on="1"/>
        <pt x="586" y="175" on="0"/>
        <pt x="437" y="-12" on="0"/>
        <pt x="299" y="-12" on="1"/>
        <pt x="192" y="-12" on="0"/>
        <pt x="124" y="44" on="1"/>
        <pt x="85" y="-12" on="1"/>
        <pt x="33" y="24" on="1"/>
      </contour>
      <contour>
        <pt x="102" y="350" on="1"/>
        <pt x="102" y="299" on="0"/>
        <pt x="119" y="209" on="0"/>
        <pt x="137" y="171" on="1"/>
        <pt x="427" y="582" on="1"/>
        <pt x="404" y="608" on="0"/>
        <pt x="341" y="638" on="0"/>
        <pt x="299" y="638" on="1"/>
        <pt x="207" y="638" on="0"/>
        <pt x="102" y="497" on="0"/>
      </contour>
      <contour>
        <pt x="498" y="350" on="1"/>
        <pt x="498" y="398" on="0"/>
        <pt x="481" y="488" on="0"/>
        <pt x="464" y="525" on="1"/>
        <pt x="174" y="114" on="1"/>
        <pt x="197" y="89" on="0"/>
        <pt x="259" y="62" on="0"/>
        <pt x="299" y="62" on="1"/>
        <pt x="392" y="62" on="0"/>
        <pt x="498" y="203" on="0"/>
      </contour>
    </TTGlyph>
    <TTGlyph name="Otilde" xMin="48" yMin="-12" xMax="552" yMax="840">
      <component glyphName="O" x="0" y="0" flags="0x204"/>
      <component glyphName="uniF40D" x="0" y="0" flags="0x4"/>
    </TTGlyph>
    <TTGlyph name="P" xMin="100" yMin="0" xMax="537" yMax="708">
      <contour>
        <pt x="100" y="693" on="1"/>
        <pt x="138" y="702" on="0"/>
        <pt x="226" y="708" on="0"/>
        <pt x="269" y="708" on="1"/>
        <pt x="315" y="708" on="0"/>
        <pt x="410" y="690" on="0"/>
        <pt x="488" y="642" on="0"/>
        <pt x="537" y="558" on="0"/>
        <pt x="537" y="493" on="1"/>
        <pt x="537" y="429" on="0"/>
        <pt x="491" y="341" on="0"/>
        <pt x="415" y="286" on="0"/>
        <pt x="317" y="262" on="0"/>
        <pt x="265" y="262" on="1"/>
        <pt x="260" y="262" on="0"/>
        <pt x="237" y="262" on="0"/>
        <pt x="212" y="263" on="0"/>
        <pt x="188" y="265" on="0"/>
        <pt x="183" y="266" on="1"/>
        <pt x="183" y="0" on="1"/>
        <pt x="100" y="0" on="1"/>
      </contour>
      <contour>
        <pt x="271" y="636" on="1"/>
        <pt x="245" y="636" on="0"/>
        <pt x="197" y="634" on="0"/>
        <pt x="183" y="630" on="1"/>
        <pt x="183" y="340" on="1"/>
        <pt x="188" y="338" on="0"/>
        <pt x="210" y="337" on="0"/>
        <pt x="234" y="336" on="0"/>
        <pt x="256" y="336" on="0"/>
        <pt x="261" y="336" on="1"/>
        <pt x="295" y="336" on="0"/>
        <pt x="362" y="349" on="0"/>
        <pt x="416" y="383" on="0"/>
        <pt x="449" y="445" on="0"/>
        <pt x="449" y="493" on="1"/>
        <pt x="449" y="534" on="0"/>
        <pt x="418" y="589" on="0"/>
        <pt x="367" y="622" on="0"/>
        <pt x="303" y="636" on="0"/>
      </contour>
    </TTGlyph>
    <TTGlyph name="Q" xMin="48" yMin="-153" xMax="552" yMax="712">
      <contour>
        <pt x="48" y="350" on="1"/>
        <pt x="48" y="524" on="0"/>
        <pt x="171" y="712" on="0"/>
        <pt x="299" y="712" on="1"/>
        <pt x="369" y="712" on="0"/>
        <pt x="466" y="660" on="0"/>
        <pt x="526" y="565" on="0"/>
        <pt x="552" y="432" on="0"/>
        <pt x="552" y="350" on="1"/>
        <pt x="552" y="189" on="0"/>
        <pt x="450" y="6" on="0"/>
        <pt x="341" y="-9" on="1"/>
        <pt x="350" y="-44" on="0"/>
        <pt x="399" y="-79" on="0"/>
        <pt x="437" y="-79" on="1"/>
        <pt x="480" y="-79" on="0"/>
        <pt x="514" y="-57" on="1"/>
        <pt x="536" y="-118" on="1"/>
        <pt x="522" y="-134" on="0"/>
        <pt x="463" y="-153" on="0"/>
        <pt x="431" y="-153" on="1"/>
        <pt x="404" y="-153" on="0"/>
        <pt x="347" y="-138" on="0"/>
        <pt x="297" y="-104" on="0"/>
        <pt x="260" y="-49" on="0"/>
        <pt x="254" y="-8" on="1"/>
        <pt x="197" y="0" on="0"/>
        <pt x="119" y="57" on="0"/>
        <pt x="70" y="150" on="0"/>
        <pt x="48" y="275" on="0"/>
      </contour>
      <contour>
        <pt x="136" y="350" on="1"/>
        <pt x="136" y="292" on="0"/>
        <pt x="151" y="188" on="0"/>
        <pt x="189" y="109" on="0"/>
        <pt x="251" y="62" on="0"/>
        <pt x="299" y="62" on="1"/>
        <pt x="385" y="62" on="0"/>
        <pt x="464" y="202" on="0"/>
        <pt x="464" y="350" on="1"/>
        <pt x="464" y="407" on="0"/>
        <pt x="449" y="512" on="0"/>
        <pt x="411" y="591" on="0"/>
        <pt x="347" y="638" on="0"/>
        <pt x="299" y="638" on="1"/>
        <pt x="214" y="638" on="0"/>
        <pt x="136" y="497" on="0"/>
      </contour>
    </TTGlyph>
    <TTGlyph name="R" xMin="100" yMin="0" xMax="570" yMax="708">
      <contour>
        <pt x="100" y="693" on="1"/>
        <pt x="138" y="700" on="0"/>
        <pt x="237" y="708" on="0"/>
        <pt x="278" y="708" on="1"/>
        <pt x="324" y="708" on="0"/>
        <pt x="407" y="688" on="0"/>
        <pt x="470" y="642" on="0"/>
        <pt x="508" y="568" on="0"/>
        <pt x="508" y="515" on="1"/>
        <pt x="508" y="474" on="0"/>
        <pt x="481" y="411" on="0"/>
        <pt x="442" y="366" on="0"/>
        <pt x="400" y="338" on="0"/>
        <pt x="385" y="332" on="1"/>
        <pt x="570" y="0" on="1"/>
        <pt x="473" y="0" on="1"/>
        <pt x="308" y="308" on="1"/>
        <pt x="183" y="308" on="1"/>
        <pt x="183" y="0" on="1"/>
        <pt x="100" y="0" on="1"/>
      </contour>
      <contour>
        <pt x="280" y="636" on="1"/>
        <pt x="267" y="636" on="0"/>
        <pt x="239" y="636" on="0"/>
        <pt x="213" y="634" on="0"/>
        <pt x="190" y="632" on="0"/>
        <pt x="183" y="630" on="1"/>
        <pt x="183" y="372" on="1"/>
        <pt x="261" y="372" on="1"/>
        <pt x="330" y="372" on="0"/>
        <pt x="420" y="440" on="0"/>
        <pt x="420" y="512" on="1"/>
        <pt x="420" y="566" on="0"/>
        <pt x="346" y="636" on="0"/>
      </contour>
    </TTGlyph>
    <TTGlyph name="Racute" xMin="100" yMin="0" xMax="570" yMax="870">
      <component glyphName="R" x="0" y="0" flags="0x204"/>
      <component glyphName="uniF6C9" x="33" y="0" flags="0x4"/>
    </TTGlyph>
    <TTGlyph name="Rcaron" xMin="86" yMin="0" xMax="570" yMax="870">
      <component glyphName="R" x="0" y="0" flags="0x204"/>
      <component glyphName="uniF6CA" x="-33" y="0" flags="0x4"/>
    </TTGlyph>
    <TTGlyph name="Rcommaaccent" xMin="100" yMin="-235" xMax="570" yMax="708">
      <component glyphName="R" x="0" y="0" flags="0x204"/>
      <component glyphName="uniF6C3" x="12" y="0" flags="0x4"/>
    </TTGlyph>
    <TTGlyph name="S" xMin="75" yMin="-12" xMax="535" yMax="712">
      <contour>
        <pt x="150" y="99" on="1"/>
        <pt x="180" y="83" on="0"/>
        <pt x="255" y="62" on="0"/>
        <pt x="293" y="62" on="1"/>
        <pt x="326" y="62" on="0"/>
        <pt x="384" y="75" on="0"/>
        <pt x="427" y="104" on="0"/>
        <pt x="452" y="148" on="0"/>
        <pt x="452" y="178" on="1"/>
        <pt x="452" y="219" on="0"/>
        <pt x="397" y="271" on="0"/>
        <pt x="315" y="311" on="0"/>
        <pt x="219" y="349" on="0"/>
        <pt x="137" y="401" on="0"/>
        <pt x="82" y="476" on="0"/>
        <pt x="82" y="534" on="1"/>
        <pt x="82" y="575" on="0"/>
        <pt x="115" y="641" on="0"/>
        <pt x="175" y="687" on="0"/>
        <pt x="260" y="712" on="0"/>
        <pt x="312" y="712" on="1"/>
        <pt x="372" y="712" on="0"/>
        <pt x="470" y="695" on="0"/>
        <pt x="499" y="681" on="1"/>
        <pt x="501" y="682" on="1"/>
        <pt x="501" y="680" on="1"/>
        <pt x="502" y="680" on="1"/>
        <pt x="501" y="677" on="1"/>
        <pt x="501" y="517" on="1"/>
        <pt x="427" y="517" on="1"/>
        <pt x="427" y="624" on="1"/>
        <pt x="402" y="630" on="0"/>
        <pt x="342" y="638" on="0"/>
        <pt x="308" y="638" on="1"/>
        <pt x="275" y="638" on="0"/>
        <pt x="222" y="622" on="0"/>
        <pt x="185" y="595" on="0"/>
        <pt x="165" y="559" on="0"/>
        <pt x="165" y="539" on="1"/>
        <pt x="165" y="500" on="0"/>
        <pt x="220" y="448" on="0"/>
        <pt x="302" y="407" on="0"/>
        <pt x="398" y="367" on="0"/>
        <pt x="480" y="314" on="0"/>
        <pt x="535" y="240" on="0"/>
        <pt x="535" y="185" on="1"/>
        <pt x="535" y="140" on="0"/>
        <pt x="502" y="68" on="0"/>
        <pt x="441" y="16" on="0"/>
        <pt x="352" y="-12" on="0"/>
        <pt x="296" y="-12" on="1"/>
        <pt x="258" y="-12" on="0"/>
        <pt x="190" y="0" on="0"/>
        <pt x="133" y="18" on="0"/>
        <pt x="88" y="38" on="0"/>
        <pt x="75" y="45" on="1"/>
        <pt x="76" y="48" on="1"/>
        <pt x="76" y="210" on="1"/>
        <pt x="150" y="210" on="1"/>
      </contour>
    </TTGlyph>
    <TTGlyph name="SF010000" xMin="262" yMin="-235" xMax="600" yMax="380">
      <contour>
        <pt x="262" y="-235" on="1"/>
        <pt x="262" y="380" on="1"/>
        <pt x="600" y="380" on="1"/>
        <pt x="600" y="304" on="1"/>
        <pt x="338" y="304" on="1"/>
        <pt x="338" y="-235" on="1"/>
      </contour>
    </TTGlyph>
    <TTGlyph name="SF020000" xMin="262" yMin="305" xMax="600" yMax="885">
      <contour>
        <pt x="262" y="305" on="1"/>
        <pt x="262" y="885" on="1"/>
        <pt x="338" y="885" on="1"/>
        <pt x="338" y="381" on="1"/>
        <pt x="600" y="381" on="1"/>
        <pt x="600" y="305" on="1"/>
      </contour>
    </TTGlyph>
    <TTGlyph name="SF030000" xMin="0" yMin="-235" xMax="338" yMax="380">
      <contour>
        <pt x="262" y="-235" on="1"/>
        <pt x="262" y="304" on="1"/>
        <pt x="0" y="304" on="1"/>
        <pt x="0" y="380" on="1"/>
        <pt x="338" y="380" on="1"/>
        <pt x="338" y="-235" on="1"/>
      </contour>
    </TTGlyph>
    <TTGlyph name="SF040000" xMin="0" yMin="305" xMax="338" yMax="885">
      <contour>
        <pt x="0" y="305" on="1"/>
        <pt x="0" y="381" on="1"/>
        <pt x="262" y="381" on="1"/>
        <pt x="262" y="885" on="1"/>
        <pt x="338" y="885" on="1"/>
        <pt x="338" y="305" on="1"/>
      </contour>
    </TTGlyph>
    <TTGlyph name="SF050000" xMin="0" yMin="-235" xMax="600" yMax="885">
      <contour>
        <pt x="262" y="-235" on="1"/>
        <pt x="262" y="304" on="1"/>
        <pt x="0" y="304" on="1"/>
        <pt x="0" y="380" on="1"/>
        <pt x="262" y="380" on="1"/>
        <pt x="262" y="885" on="1"/>
        <pt x="338" y="885" on="1"/>
        <pt x="338" y="380" on="1"/>
        <pt x="600" y="380" on="1"/>
        <pt x="600" y="304" on="1"/>
        <pt x="338" y="304" on="1"/>
        <pt x="338" y="-235" on="1"/>
      </contour>
    </TTGlyph>
    <TTGlyph name="SF060000" xMin="0" yMin="-235" xMax="600" yMax="380">
      <contour>
        <pt x="262" y="-235" on="1"/>
        <pt x="262" y="304" on="1"/>
        <pt x="0" y="304" on="1"/>
        <pt x="0" y="380" on="1"/>
        <pt x="600" y="380" on="1"/>
        <pt x="600" y="304" on="1"/>
        <pt x="338" y="304" on="1"/>
        <pt x="338" y="-235" on="1"/>
      </contour>
    </TTGlyph>
    <TTGlyph name="SF070000" xMin="0" yMin="304" xMax="600" yMax="885">
      <contour>
        <pt x="0" y="304" on="1"/>
        <pt x="0" y="380" on="1"/>
        <pt x="262" y="380" on="1"/>
        <pt x="262" y="885" on="1"/>
        <pt x="338" y="885" on="1"/>
        <pt x="338" y="380" on="1"/>
        <pt x="600" y="380" on="1"/>
        <pt x="600" y="304" on="1"/>
      </contour>
    </TTGlyph>
    <TTGlyph name="SF080000" xMin="262" yMin="-235" xMax="600" yMax="885">
      <contour>
        <pt x="262" y="-235" on="1"/>
        <pt x="262" y="885" on="1"/>
        <pt x="338" y="885" on="1"/>
        <pt x="338" y="380" on="1"/>
        <pt x="600" y="380" on="1"/>
        <pt x="600" y="304" on="1"/>
        <pt x="338" y="304" on="1"/>
        <pt x="338" y="-235" on="1"/>
      </contour>
    </TTGlyph>
    <TTGlyph name="SF090000" xMin="0" yMin="-235" xMax="338" yMax="885">
      <contour>
        <pt x="262" y="-235" on="1"/>
        <pt x="262" y="304" on="1"/>
        <pt x="0" y="304" on="1"/>
        <pt x="0" y="380" on="1"/>
        <pt x="262" y="380" on="1"/>
        <pt x="262" y="885" on="1"/>
        <pt x="338" y="885" on="1"/>
        <pt x="338" y="-235" on="1"/>
      </contour>
    </TTGlyph>
    <TTGlyph name="SF100000" xMin="0" yMin="304" xMax="600" yMax="380">
      <contour>
        <pt x="0" y="304" on="1"/>
        <pt x="0" y="380" on="1"/>
        <pt x="600" y="380" on="1"/>
        <pt x="600" y="304" on="1"/>
      </contour>
    </TTGlyph>
    <TTGlyph name="SF110000" xMin="262" yMin="-235" xMax="338" yMax="885">
      <contour>
        <pt x="262" y="-235" on="1"/>
        <pt x="262" y="885" on="1"/>
        <pt x="338" y="885" on="1"/>
        <pt x="338" y="-235" on="1"/>
      </contour>
    </TTGlyph>
    <TTGlyph name="SF190000" xMin="0" yMin="-235" xMax="338" yMax="885">
      <contour>
        <pt x="262" y="-235" on="1"/>
        <pt x="262" y="228" on="1"/>
        <pt x="0" y="228" on="1"/>
        <pt x="0" y="304" on="1"/>
        <pt x="262" y="304" on="1"/>
        <pt x="262" y="380" on="1"/>
        <pt x="0" y="380" on="1"/>
        <pt x="0" y="456" on="1"/>
        <pt x="262" y="456" on="1"/>
        <pt x="262" y="885" on="1"/>
        <pt x="338" y="885" on="1"/>
        <pt x="338" y="-235" on="1"/>
      </contour>
    </TTGlyph>
    <TTGlyph name="SF200000" xMin="0" yMin="-235" xMax="414" yMax="885">
      <contour>
        <pt x="186" y="-235" on="1"/>
        <pt x="186" y="304" on="1"/>
        <pt x="0" y="304" on="1"/>
        <pt x="0" y="380" on="1"/>
        <pt x="186" y="380" on="1"/>
        <pt x="186" y="885" on="1"/>
        <pt x="262" y="885" on="1"/>
        <pt x="262" y="-235" on="1"/>
      </contour>
      <contour>
        <pt x="338" y="-235" on="1"/>
        <pt x="338" y="885" on="1"/>
        <pt x="414" y="885" on="1"/>
        <pt x="414" y="-235" on="1"/>
      </contour>
    </TTGlyph>
    <TTGlyph name="SF210000" xMin="0" yMin="-235" xMax="414" yMax="380">
      <contour>
        <pt x="262" y="-235" on="1"/>
        <pt x="186" y="-235" on="1"/>
        <pt x="186" y="304" on="1"/>
        <pt x="0" y="304" on="1"/>
        <pt x="0" y="380" on="1"/>
        <pt x="414" y="380" on="1"/>
        <pt x="414" y="-235" on="1"/>
        <pt x="338" y="-235" on="1"/>
        <pt x="338" y="304" on="1"/>
        <pt x="262" y="304" on="1"/>
      </contour>
    </TTGlyph>
    <TTGlyph name="SF220000" xMin="0" yMin="-235" xMax="338" yMax="456">
      <contour>
        <pt x="262" y="-235" on="1"/>
        <pt x="262" y="228" on="1"/>
        <pt x="0" y="228" on="1"/>
        <pt x="0" y="304" on="1"/>
        <pt x="262" y="304" on="1"/>
        <pt x="262" y="380" on="1"/>
        <pt x="0" y="380" on="1"/>
        <pt x="0" y="456" on="1"/>
        <pt x="338" y="456" on="1"/>
        <pt x="338" y="-235" on="1"/>
      </contour>
    </TTGlyph>
    <TTGlyph name="SF230000" xMin="0" yMin="-235" xMax="414" yMax="885">
      <contour>
        <pt x="186" y="-235" on="1"/>
        <pt x="186" y="228" on="1"/>
        <pt x="0" y="228" on="1"/>
        <pt x="0" y="304" on="1"/>
        <pt x="262" y="304" on="1"/>
        <pt x="262" y="-235" on="1"/>
      </contour>
      <contour>
        <pt x="338" y="-235" on="1"/>
        <pt x="338" y="885" on="1"/>
        <pt x="414" y="885" on="1"/>
        <pt x="414" y="-235" on="1"/>
      </contour>
      <contour>
        <pt x="0" y="380" on="1"/>
        <pt x="0" y="456" on="1"/>
        <pt x="186" y="456" on="1"/>
        <pt x="186" y="885" on="1"/>
        <pt x="262" y="885" on="1"/>
        <pt x="262" y="381" on="1"/>
      </contour>
    </TTGlyph>
    <TTGlyph name="SF240000" xMin="186" yMin="-235" xMax="414" yMax="885">
      <contour>
        <pt x="262" y="-235" on="1"/>
        <pt x="186" y="-235" on="1"/>
        <pt x="186" y="885" on="1"/>
        <pt x="262" y="885" on="1"/>
      </contour>
      <contour>
        <pt x="338" y="885" on="1"/>
        <pt x="414" y="885" on="1"/>
        <pt x="414" y="-235" on="1"/>
        <pt x="338" y="-235" on="1"/>
      </contour>
    </TTGlyph>
    <TTGlyph name="SF250000" xMin="0" yMin="-235" xMax="414" yMax="456">
      <contour>
        <pt x="262" y="-235" on="1"/>
        <pt x="186" y="-235" on="1"/>
        <pt x="186" y="228" on="1"/>
        <pt x="0" y="228" on="1"/>
        <pt x="0" y="304" on="1"/>
        <pt x="262" y="304" on="1"/>
      </contour>
      <contour>
        <pt x="338" y="-235" on="1"/>
        <pt x="338" y="380" on="1"/>
        <pt x="0" y="380" on="1"/>
        <pt x="0" y="456" on="1"/>
        <pt x="414" y="456" on="1"/>
        <pt x="414" y="-235" on="1"/>
      </contour>
    </TTGlyph>
    <TTGlyph name="SF260000" xMin="0" yMin="228" xMax="414" yMax="885">
      <contour>
        <pt x="0" y="304" on="1"/>
        <pt x="338" y="304" on="1"/>
        <pt x="338" y="885" on="1"/>
        <pt x="414" y="885" on="1"/>
        <pt x="414" y="228" on="1"/>
        <pt x="0" y="228" on="1"/>
      </contour>
      <contour>
        <pt x="0" y="380" on="1"/>
        <pt x="0" y="456" on="1"/>
        <pt x="186" y="456" on="1"/>
        <pt x="186" y="885" on="1"/>
        <pt x="262" y="885" on="1"/>
        <pt x="262" y="380" on="1"/>
      </contour>
    </TTGlyph>
    <TTGlyph name="SF270000" xMin="0" yMin="304" xMax="414" yMax="885">
      <contour>
        <pt x="0" y="304" on="1"/>
        <pt x="0" y="380" on="1"/>
        <pt x="186" y="380" on="1"/>
        <pt x="186" y="885" on="1"/>
        <pt x="262" y="885" on="1"/>
        <pt x="262" y="380" on="1"/>
        <pt x="338" y="380" on="1"/>
        <pt x="338" y="885" on="1"/>
        <pt x="414" y="885" on="1"/>
        <pt x="414" y="304" on="1"/>
      </contour>
    </TTGlyph>
    <TTGlyph name="SF280000" xMin="0" yMin="228" xMax="338" yMax="885">
      <contour>
        <pt x="0" y="304" on="1"/>
        <pt x="262" y="304" on="1"/>
        <pt x="262" y="380" on="1"/>
        <pt x="0" y="380" on="1"/>
        <pt x="0" y="456" on="1"/>
        <pt x="262" y="456" on="1"/>
        <pt x="262" y="885" on="1"/>
        <pt x="338" y="885" on="1"/>
        <pt x="338" y="228" on="1"/>
        <pt x="0" y="228" on="1"/>
      </contour>
    </TTGlyph>
    <TTGlyph name="SF360000" xMin="262" yMin="-235" xMax="600" yMax="885">
      <contour>
        <pt x="262" y="-235" on="1"/>
        <pt x="262" y="885" on="1"/>
        <pt x="338" y="885" on="1"/>
        <pt x="338" y="457" on="1"/>
        <pt x="600" y="457" on="1"/>
        <pt x="600" y="381" on="1"/>
        <pt x="338" y="381" on="1"/>
        <pt x="338" y="305" on="1"/>
        <pt x="600" y="305" on="1"/>
        <pt x="600" y="229" on="1"/>
        <pt x="338" y="229" on="1"/>
        <pt x="338" y="-235" on="1"/>
      </contour>
    </TTGlyph>
    <TTGlyph name="SF370000" xMin="186" yMin="-235" xMax="600" yMax="885">
      <contour>
        <pt x="186" y="-235" on="1"/>
        <pt x="186" y="885" on="1"/>
        <pt x="262" y="885" on="1"/>
        <pt x="262" y="-235" on="1"/>
      </contour>
      <contour>
        <pt x="338" y="-235" on="1"/>
        <pt x="338" y="885" on="1"/>
        <pt x="414" y="885" on="1"/>
        <pt x="414" y="380" on="1"/>
        <pt x="600" y="380" on="1"/>
        <pt x="600" y="304" on="1"/>
        <pt x="414" y="304" on="1"/>
        <pt x="414" y="-235" on="1"/>
      </contour>
    </TTGlyph>
    <TTGlyph name="SF380000" xMin="186" yMin="228" xMax="600" yMax="885">
      <contour>
        <pt x="186" y="228" on="1"/>
        <pt x="186" y="885" on="1"/>
        <pt x="262" y="885" on="1"/>
        <pt x="262" y="304" on="1"/>
        <pt x="600" y="304" on="1"/>
        <pt x="600" y="228" on="1"/>
      </contour>
      <contour>
        <pt x="600" y="380" on="1"/>
        <pt x="338" y="380" on="1"/>
        <pt x="338" y="885" on="1"/>
        <pt x="414" y="885" on="1"/>
        <pt x="414" y="456" on="1"/>
        <pt x="600" y="456" on="1"/>
      </contour>
    </TTGlyph>
    <TTGlyph name="SF390000" xMin="186" yMin="-235" xMax="600" yMax="456">
      <contour>
        <pt x="262" y="-235" on="1"/>
        <pt x="186" y="-235" on="1"/>
        <pt x="186" y="456" on="1"/>
        <pt x="600" y="456" on="1"/>
        <pt x="600" y="380" on="1"/>
        <pt x="262" y="380" on="1"/>
      </contour>
      <contour>
        <pt x="338" y="-235" on="1"/>
        <pt x="338" y="304" on="1"/>
        <pt x="600" y="304" on="1"/>
        <pt x="600" y="228" on="1"/>
        <pt x="414" y="228" on="1"/>
        <pt x="414" y="-235" on="1"/>
      </contour>
    </TTGlyph>
    <TTGlyph name="SF400000" xMin="0" yMin="228" xMax="600" yMax="885">
      <contour>
        <pt x="0" y="304" on="1"/>
        <pt x="600" y="304" on="1"/>
        <pt x="600" y="228" on="1"/>
        <pt x="0" y="228" on="1"/>
      </contour>
      <contour>
        <pt x="0" y="380" on="1"/>
        <pt x="0" y="456" on="1"/>
        <pt x="186" y="456" on="1"/>
        <pt x="186" y="885" on="1"/>
        <pt x="262" y="885" on="1"/>
        <pt x="262" y="380" on="1"/>
      </contour>
      <contour>
        <pt x="338" y="380" on="1"/>
        <pt x="338" y="885" on="1"/>
        <pt x="414" y="885" on="1"/>
        <pt x="414" y="456" on="1"/>
        <pt x="600" y="456" on="1"/>
        <pt x="600" y="380" on="1"/>
      </contour>
    </TTGlyph>
    <TTGlyph name="SF410000" xMin="0" yMin="-235" xMax="600" yMax="456">
      <contour>
        <pt x="0" y="304" on="1"/>
        <pt x="262" y="304" on="1"/>
        <pt x="262" y="-235" on="1"/>
        <pt x="186" y="-235" on="1"/>
        <pt x="186" y="228" on="1"/>
        <pt x="0" y="228" on="1"/>
      </contour>
      <contour>
        <pt x="0" y="380" on="1"/>
        <pt x="0" y="456" on="1"/>
        <pt x="600" y="456" on="1"/>
        <pt x="600" y="380" on="1"/>
      </contour>
      <contour>
        <pt x="600" y="304" on="1"/>
        <pt x="600" y="228" on="1"/>
        <pt x="414" y="228" on="1"/>
        <pt x="414" y="-235" on="1"/>
        <pt x="338" y="-235" on="1"/>
        <pt x="338" y="304" on="1"/>
      </contour>
    </TTGlyph>
    <TTGlyph name="SF420000" xMin="186" yMin="-235" xMax="600" yMax="885">
      <contour>
        <pt x="186" y="-235" on="1"/>
        <pt x="186" y="885" on="1"/>
        <pt x="262" y="885" on="1"/>
        <pt x="262" y="-235" on="1"/>
      </contour>
      <contour>
        <pt x="338" y="-235" on="1"/>
        <pt x="338" y="304" on="1"/>
        <pt x="600" y="304" on="1"/>
        <pt x="600" y="228" on="1"/>
        <pt x="414" y="228" on="1"/>
        <pt x="414" y="-235" on="1"/>
      </contour>
      <contour>
        <pt x="338" y="380" on="1"/>
        <pt x="338" y="885" on="1"/>
        <pt x="414" y="885" on="1"/>
        <pt x="414" y="456" on="1"/>
        <pt x="600" y="456" on="1"/>
        <pt x="600" y="380" on="1"/>
      </contour>
    </TTGlyph>
    <TTGlyph name="SF430000" xMin="0" yMin="228" xMax="600" yMax="456">
      <contour>
        <pt x="0" y="304" on="1"/>
        <pt x="600" y="304" on="1"/>
        <pt x="600" y="228" on="1"/>
        <pt x="0" y="228" on="1"/>
      </contour>
      <contour>
        <pt x="0" y="380" on="1"/>
        <pt x="0" y="456" on="1"/>
        <pt x="600" y="456" on="1"/>
        <pt x="600" y="380" on="1"/>
      </contour>
    </TTGlyph>
    <TTGlyph name="SF440000" xMin="0" yMin="-235" xMax="600" yMax="885">
      <contour>
        <pt x="0" y="304" on="1"/>
        <pt x="262" y="304" on="1"/>
        <pt x="262" y="-235" on="1"/>
        <pt x="186" y="-235" on="1"/>
        <pt x="186" y="228" on="1"/>
        <pt x="0" y="228" on="1"/>
      </contour>
      <contour>
        <pt x="0" y="380" on="1"/>
        <pt x="0" y="456" on="1"/>
        <pt x="186" y="456" on="1"/>
        <pt x="186" y="885" on="1"/>
        <pt x="262" y="885" on="1"/>
        <pt x="262" y="380" on="1"/>
      </contour>
      <contour>
        <pt x="338" y="380" on="1"/>
        <pt x="338" y="885" on="1"/>
        <pt x="414" y="885" on="1"/>
        <pt x="414" y="456" on="1"/>
        <pt x="600" y="456" on="1"/>
        <pt x="600" y="380" on="1"/>
      </contour>
      <contour>
        <pt x="600" y="304" on="1"/>
        <pt x="600" y="228" on="1"/>
        <pt x="414" y="228" on="1"/>
        <pt x="414" y="-235" on="1"/>
        <pt x="338" y="-235" on="1"/>
        <pt x="338" y="304" on="1"/>
      </contour>
    </TTGlyph>
    <TTGlyph name="SF450000" xMin="0" yMin="228" xMax="600" yMax="885">
      <contour>
        <pt x="0" y="304" on="1"/>
        <pt x="600" y="304" on="1"/>
        <pt x="600" y="228" on="1"/>
        <pt x="0" y="228" on="1"/>
      </contour>
      <contour>
        <pt x="0" y="380" on="1"/>
        <pt x="0" y="456" on="1"/>
        <pt x="262" y="456" on="1"/>
        <pt x="262" y="885" on="1"/>
        <pt x="338" y="885" on="1"/>
        <pt x="338" y="456" on="1"/>
        <pt x="600" y="456" on="1"/>
        <pt x="600" y="380" on="1"/>
      </contour>
    </TTGlyph>
    <TTGlyph name="SF460000" xMin="0" yMin="304" xMax="600" yMax="885">
      <contour>
        <pt x="0" y="304" on="1"/>
        <pt x="0" y="380" on="1"/>
        <pt x="186" y="380" on="1"/>
        <pt x="186" y="885" on="1"/>
        <pt x="262" y="885" on="1"/>
        <pt x="262" y="380" on="1"/>
        <pt x="338" y="380" on="1"/>
        <pt x="338" y="885" on="1"/>
        <pt x="414" y="885" on="1"/>
        <pt x="414" y="380" on="1"/>
        <pt x="600" y="380" on="1"/>
        <pt x="600" y="304" on="1"/>
      </contour>
    </TTGlyph>
    <TTGlyph name="SF470000" xMin="0" yMin="-235" xMax="600" yMax="456">
      <contour>
        <pt x="0" y="304" on="1"/>
        <pt x="600" y="304" on="1"/>
        <pt x="600" y="228" on="1"/>
        <pt x="338" y="228" on="1"/>
        <pt x="338" y="-235" on="1"/>
        <pt x="262" y="-235" on="1"/>
        <pt x="262" y="228" on="1"/>
        <pt x="0" y="228" on="1"/>
      </contour>
      <contour>
        <pt x="0" y="380" on="1"/>
        <pt x="0" y="456" on="1"/>
        <pt x="600" y="456" on="1"/>
        <pt x="600" y="380" on="1"/>
      </contour>
    </TTGlyph>
    <TTGlyph name="SF480000" xMin="0" yMin="-235" xMax="600" yMax="380">
      <contour>
        <pt x="0" y="304" on="1"/>
        <pt x="0" y="380" on="1"/>
        <pt x="600" y="380" on="1"/>
        <pt x="600" y="304" on="1"/>
        <pt x="414" y="304" on="1"/>
        <pt x="414" y="-235" on="1"/>
        <pt x="338" y="-235" on="1"/>
        <pt x="338" y="304" on="1"/>
        <pt x="262" y="304" on="1"/>
        <pt x="262" y="-235" on="1"/>
        <pt x="186" y="-235" on="1"/>
        <pt x="186" y="304" on="1"/>
      </contour>
    </TTGlyph>
    <TTGlyph name="SF490000" xMin="186" yMin="304" xMax="600" yMax="885">
      <contour>
        <pt x="186" y="304" on="1"/>
        <pt x="186" y="885" on="1"/>
        <pt x="262" y="885" on="1"/>
        <pt x="262" y="380" on="1"/>
        <pt x="338" y="380" on="1"/>
        <pt x="338" y="885" on="1"/>
        <pt x="414" y="885" on="1"/>
        <pt x="414" y="380" on="1"/>
        <pt x="600" y="380" on="1"/>
        <pt x="600" y="304" on="1"/>
      </contour>
    </TTGlyph>
    <TTGlyph name="SF500000" xMin="262" yMin="228" xMax="600" yMax="885">
      <contour>
        <pt x="262" y="228" on="1"/>
        <pt x="262" y="885" on="1"/>
        <pt x="338" y="885" on="1"/>
        <pt x="338" y="456" on="1"/>
        <pt x="600" y="456" on="1"/>
        <pt x="600" y="380" on="1"/>
        <pt x="338" y="380" on="1"/>
        <pt x="338" y="304" on="1"/>
        <pt x="600" y="304" on="1"/>
        <pt x="600" y="228" on="1"/>
      </contour>
    </TTGlyph>
    <TTGlyph name="SF510000" xMin="262" yMin="-235" xMax="600" yMax="456">
      <contour>
        <pt x="262" y="-235" on="1"/>
        <pt x="262" y="456" on="1"/>
        <pt x="600" y="456" on="1"/>
        <pt x="600" y="380" on="1"/>
        <pt x="338" y="380" on="1"/>
        <pt x="338" y="304" on="1"/>
        <pt x="600" y="304" on="1"/>
        <pt x="600" y="228" on="1"/>
        <pt x="338" y="228" on="1"/>
        <pt x="338" y="-235" on="1"/>
      </contour>
    </TTGlyph>
    <TTGlyph name="SF520000" xMin="186" yMin="-235" xMax="600" yMax="380">
      <contour>
        <pt x="262" y="-235" on="1"/>
        <pt x="186" y="-235" on="1"/>
        <pt x="186" y="380" on="1"/>
        <pt x="600" y="380" on="1"/>
        <pt x="600" y="304" on="1"/>
        <pt x="414" y="304" on="1"/>
        <pt x="414" y="-235" on="1"/>
        <pt x="338" y="-235" on="1"/>
        <pt x="338" y="304" on="1"/>
        <pt x="262" y="304" on="1"/>
      </contour>
    </TTGlyph>
    <TTGlyph name="SF530000" xMin="0" yMin="-235" xMax="600" yMax="885">
      <contour>
        <pt x="0" y="304" on="1"/>
        <pt x="0" y="380" on="1"/>
        <pt x="186" y="380" on="1"/>
        <pt x="186" y="885" on="1"/>
        <pt x="262" y="885" on="1"/>
        <pt x="262" y="380" on="1"/>
        <pt x="338" y="380" on="1"/>
        <pt x="338" y="885" on="1"/>
        <pt x="414" y="885" on="1"/>
        <pt x="414" y="380" on="1"/>
        <pt x="600" y="380" on="1"/>
        <pt x="600" y="304" on="1"/>
        <pt x="414" y="304" on="1"/>
        <pt x="414" y="-235" on="1"/>
        <pt x="338" y="-235" on="1"/>
        <pt x="338" y="304" on="1"/>
        <pt x="262" y="304" on="1"/>
        <pt x="262" y="-235" on="1"/>
        <pt x="186" y="-235" on="1"/>
        <pt x="186" y="304" on="1"/>
      </contour>
    </TTGlyph>
    <TTGlyph name="SF540000" xMin="0" yMin="-235" xMax="600" yMax="885">
      <contour>
        <pt x="0" y="304" on="1"/>
        <pt x="262" y="304" on="1"/>
        <pt x="262" y="380" on="1"/>
        <pt x="0" y="380" on="1"/>
        <pt x="0" y="456" on="1"/>
        <pt x="262" y="456" on="1"/>
        <pt x="262" y="885" on="1"/>
        <pt x="338" y="885" on="1"/>
        <pt x="338" y="456" on="1"/>
        <pt x="600" y="456" on="1"/>
        <pt x="600" y="380" on="1"/>
        <pt x="338" y="380" on="1"/>
        <pt x="338" y="304" on="1"/>
        <pt x="600" y="304" on="1"/>
        <pt x="600" y="228" on="1"/>
        <pt x="338" y="228" on="1"/>
        <pt x="338" y="-235" on="1"/>
        <pt x="262" y="-235" on="1"/>
        <pt x="262" y="228" on="1"/>
        <pt x="0" y="228" on="1"/>
      </contour>
    </TTGlyph>
    <TTGlyph name="Sacute" xMin="75" yMin="-12" xMax="535" yMax="870">
      <component glyphName="S" x="0" y="0" flags="0x204"/>
      <component glyphName="uniF6C9" x="74" y="0" flags="0x4"/>
    </TTGlyph>
    <TTGlyph name="Scaron" xMin="75" yMin="-12" xMax="535" yMax="870">
      <component glyphName="S" x="0" y="0" flags="0x204"/>
      <component glyphName="uniF6CA" x="6" y="0" flags="0x4"/>
    </TTGlyph>
    <TTGlyph name="Scedilla" xMin="75" yMin="-208" xMax="535" yMax="712">
      <contour>
        <pt x="150" y="99" on="1"/>
        <pt x="180" y="83" on="0"/>
        <pt x="255" y="62" on="0"/>
        <pt x="293" y="62" on="1"/>
        <pt x="326" y="62" on="0"/>
        <pt x="384" y="75" on="0"/>
        <pt x="427" y="104" on="0"/>
        <pt x="452" y="148" on="0"/>
        <pt x="452" y="178" on="1"/>
        <pt x="452" y="219" on="0"/>
        <pt x="397" y="271" on="0"/>
        <pt x="315" y="311" on="0"/>
        <pt x="219" y="349" on="0"/>
        <pt x="137" y="401" on="0"/>
        <pt x="82" y="476" on="0"/>
        <pt x="82" y="534" on="1"/>
        <pt x="82" y="575" on="0"/>
        <pt x="115" y="641" on="0"/>
        <pt x="175" y="687" on="0"/>
        <pt x="260" y="712" on="0"/>
        <pt x="312" y="712" on="1"/>
        <pt x="372" y="712" on="0"/>
        <pt x="470" y="695" on="0"/>
        <pt x="499" y="681" on="1"/>
        <pt x="501" y="682" on="1"/>
        <pt x="501" y="680" on="1"/>
        <pt x="502" y="680" on="1"/>
        <pt x="501" y="677" on="1"/>
        <pt x="501" y="517" on="1"/>
        <pt x="427" y="517" on="1"/>
        <pt x="427" y="624" on="1"/>
        <pt x="402" y="630" on="0"/>
        <pt x="342" y="638" on="0"/>
        <pt x="308" y="638" on="1"/>
        <pt x="275" y="638" on="0"/>
        <pt x="222" y="622" on="0"/>
        <pt x="185" y="595" on="0"/>
        <pt x="165" y="559" on="0"/>
        <pt x="165" y="539" on="1"/>
        <pt x="165" y="500" on="0"/>
        <pt x="220" y="448" on="0"/>
        <pt x="302" y="407" on="0"/>
        <pt x="398" y="367" on="0"/>
        <pt x="480" y="314" on="0"/>
        <pt x="535" y="240" on="0"/>
        <pt x="535" y="185" on="1"/>
        <pt x="535" y="140" on="0"/>
        <pt x="502" y="68" on="0"/>
        <pt x="441" y="16" on="0"/>
        <pt x="396" y="2" on="1"/>
        <pt x="367" y="-7" on="0"/>
        <pt x="332" y="-10" on="1"/>
        <pt x="314" y="-43" on="1"/>
        <pt x="356" y="-51" on="0"/>
        <pt x="393" y="-87" on="0"/>
        <pt x="393" y="-118" on="1"/>
        <pt x="393" y="-157" on="0"/>
        <pt x="329" y="-208" on="0"/>
        <pt x="271" y="-208" on="1"/>
        <pt x="260" y="-208" on="0"/>
        <pt x="238" y="-206" on="0"/>
        <pt x="226" y="-204" on="1"/>
        <pt x="235" y="-165" on="1"/>
        <pt x="241" y="-166" on="0"/>
        <pt x="246" y="-166" on="1"/>
        <pt x="256" y="-166" on="1"/>
        <pt x="278" y="-166" on="0"/>
        <pt x="303" y="-158" on="0"/>
        <pt x="316" y="-147" on="0"/>
        <pt x="319" y="-133" on="0"/>
        <pt x="319" y="-127" on="1"/>
        <pt x="319" y="-99" on="0"/>
        <pt x="233" y="-90" on="1"/>
        <pt x="275" y="-11" on="1"/>
        <pt x="248" y="-10" on="0"/>
        <pt x="224" y="-6" on="1"/>
        <pt x="190" y="0" on="0"/>
        <pt x="133" y="18" on="0"/>
        <pt x="88" y="38" on="0"/>
        <pt x="75" y="45" on="1"/>
        <pt x="76" y="48" on="1"/>
        <pt x="76" y="210" on="1"/>
        <pt x="150" y="210" on="1"/>
      </contour>
    </TTGlyph>
    <TTGlyph name="Scircumflex" xMin="75" yMin="-12" xMax="535" yMax="871">
      <component glyphName="S" x="0" y="0" flags="0x204"/>
      <component glyphName="uniF408" x="9" y="0" flags="0x4"/>
    </TTGlyph>
    <TTGlyph name="Scommaaccent" xMin="75" yMin="-235" xMax="535" yMax="712">
      <component glyphName="S" x="0" y="0" flags="0x204"/>
      <component glyphName="uniF6C3" x="-8" y="0" flags="0x4"/>
    </TTGlyph>
    <TTGlyph name="T" xMin="40" yMin="0" xMax="560" yMax="700">
      <contour>
        <pt x="40" y="700" on="1"/>
        <pt x="560" y="700" on="1"/>
        <pt x="560" y="517" on="1"/>
        <pt x="486" y="517" on="1"/>
        <pt x="486" y="626" on="1"/>
        <pt x="341" y="626" on="1"/>
        <pt x="341" y="74" on="1"/>
        <pt x="451" y="74" on="1"/>
        <pt x="451" y="0" on="1"/>
        <pt x="148" y="0" on="1"/>
        <pt x="148" y="74" on="1"/>
        <pt x="258" y="74" on="1"/>
        <pt x="258" y="626" on="1"/>
        <pt x="114" y="626" on="1"/>
        <pt x="114" y="517" on="1"/>
        <pt x="40" y="517" on="1"/>
      </contour>
    </TTGlyph>
    <TTGlyph name="Tcaron" xMin="40" yMin="0" xMax="560" yMax="870">
      <component glyphName="T" x="0" y="0" flags="0x204"/>
      <component glyphName="uniF6CA" x="0" y="0" flags="0x4"/>
    </TTGlyph>
    <TTGlyph name="Tcedilla" xMin="40" yMin="-208" xMax="560" yMax="700">
      <contour>
        <pt x="328" y="0" on="1"/>
        <pt x="304" y="-43" on="1"/>
        <pt x="346" y="-51" on="0"/>
        <pt x="383" y="-87" on="0"/>
        <pt x="383" y="-118" on="1"/>
        <pt x="383" y="-157" on="0"/>
        <pt x="319" y="-208" on="0"/>
        <pt x="261" y="-208" on="1"/>
        <pt x="250" y="-208" on="0"/>
        <pt x="228" y="-206" on="0"/>
        <pt x="216" y="-204" on="1"/>
        <pt x="225" y="-165" on="1"/>
        <pt x="231" y="-166" on="0"/>
        <pt x="236" y="-166" on="1"/>
        <pt x="246" y="-166" on="1"/>
        <pt x="268" y="-166" on="0"/>
        <pt x="293" y="-158" on="0"/>
        <pt x="306" y="-147" on="0"/>
        <pt x="309" y="-133" on="0"/>
        <pt x="309" y="-127" on="1"/>
        <pt x="309" y="-99" on="0"/>
        <pt x="223" y="-90" on="1"/>
        <pt x="271" y="0" on="1"/>
        <pt x="148" y="0" on="1"/>
        <pt x="148" y="74" on="1"/>
        <pt x="258" y="74" on="1"/>
        <pt x="258" y="626" on="1"/>
        <pt x="114" y="626" on="1"/>
        <pt x="114" y="517" on="1"/>
        <pt x="40" y="517" on="1"/>
        <pt x="40" y="700" on="1"/>
        <pt x="560" y="700" on="1"/>
        <pt x="560" y="517" on="1"/>
        <pt x="486" y="517" on="1"/>
        <pt x="486" y="626" on="1"/>
        <pt x="341" y="626" on="1"/>
        <pt x="341" y="74" on="1"/>
        <pt x="451" y="74" on="1"/>
        <pt x="451" y="0" on="1"/>
      </contour>
    </TTGlyph>
    <TTGlyph name="Tcommaaccent" xMin="40" yMin="-235" xMax="560" yMax="700">
      <component glyphName="T" x="0" y="0" flags="0x204"/>
      <component glyphName="uniF6C3" x="-1" y="0" flags="0x4"/>
    </TTGlyph>
    <TTGlyph name="Thorn" xMin="91" yMin="0" xMax="548" yMax="700">
      <contour>
        <pt x="91" y="700" on="1"/>
        <pt x="174" y="700" on="1"/>
        <pt x="174" y="625" on="1"/>
        <pt x="184" y="626" on="0"/>
        <pt x="212" y="627" on="0"/>
        <pt x="242" y="628" on="0"/>
        <pt x="269" y="628" on="0"/>
        <pt x="280" y="628" on="1"/>
        <pt x="326" y="628" on="0"/>
        <pt x="421" y="610" on="0"/>
        <pt x="499" y="562" on="0"/>
        <pt x="548" y="478" on="0"/>
        <pt x="548" y="413" on="1"/>
        <pt x="548" y="349" on="0"/>
        <pt x="502" y="261" on="0"/>
        <pt x="426" y="206" on="0"/>
        <pt x="328" y="181" on="0"/>
        <pt x="276" y="181" on="1"/>
        <pt x="271" y="181" on="0"/>
        <pt x="242" y="181" on="0"/>
        <pt x="209" y="182" on="0"/>
        <pt x="179" y="184" on="0"/>
        <pt x="174" y="185" on="1"/>
        <pt x="174" y="0" on="1"/>
        <pt x="91" y="0" on="1"/>
      </contour>
      <contour>
        <pt x="282" y="556" on="1"/>
        <pt x="269" y="556" on="0"/>
        <pt x="238" y="556" on="0"/>
        <pt x="207" y="554" on="0"/>
        <pt x="181" y="552" on="0"/>
        <pt x="174" y="550" on="1"/>
        <pt x="174" y="260" on="1"/>
        <pt x="179" y="258" on="0"/>
        <pt x="207" y="257" on="0"/>
        <pt x="239" y="255" on="0"/>
        <pt x="267" y="255" on="0"/>
        <pt x="272" y="255" on="1"/>
        <pt x="306" y="255" on="0"/>
        <pt x="373" y="268" on="0"/>
        <pt x="427" y="303" on="0"/>
        <pt x="460" y="365" on="0"/>
        <pt x="460" y="413" on="1"/>
        <pt x="460" y="454" on="0"/>
        <pt x="429" y="509" on="0"/>
        <pt x="378" y="542" on="0"/>
        <pt x="314" y="556" on="0"/>
      </contour>
    </TTGlyph>
    <TTGlyph name="U" xMin="60" yMin="-9" xMax="540" yMax="700">
      <contour>
        <pt x="460" y="700" on="1"/>
        <pt x="540" y="700" on="1"/>
        <pt x="540" y="233" on="1"/>
        <pt x="540" y="170" on="0"/>
        <pt x="507" y="78" on="0"/>
        <pt x="447" y="19" on="0"/>
        <pt x="361" y="-9" on="0"/>
        <pt x="309" y="-9" on="1"/>
        <pt x="185" y="-9" on="0"/>
        <pt x="60" y="103" on="0"/>
        <pt x="60" y="217" on="1"/>
        <pt x="60" y="700" on="1"/>
        <pt x="143" y="700" on="1"/>
        <pt x="143" y="256" on="1"/>
        <pt x="143" y="203" on="0"/>
        <pt x="164" y="130" on="0"/>
        <pt x="205" y="85" on="0"/>
        <pt x="268" y="65" on="0"/>
        <pt x="310" y="65" on="1"/>
        <pt x="391" y="65" on="0"/>
        <pt x="460" y="154" on="0"/>
        <pt x="460" y="256" on="1"/>
      </contour>
    </TTGlyph>
    <TTGlyph name="Uacute" xMin="60" yMin="-9" xMax="540" yMax="870">
      <component glyphName="U" x="0" y="0" flags="0x204"/>
      <component glyphName="uniF6C9" x="62" y="0" flags="0x4"/>
    </TTGlyph>
    <TTGlyph name="Ubreve" xMin="60" yMin="-9" xMax="540" yMax="871">
      <component glyphName="U" x="0" y="0" flags="0x204"/>
      <component glyphName="uniF406" x="1" y="0" flags="0x4"/>
    </TTGlyph>
    <TTGlyph name="Ucircumflex" xMin="60" yMin="-9" xMax="540" yMax="871">
      <component glyphName="U" x="0" y="0" flags="0x204"/>
      <component glyphName="uniF408" x="2" y="0" flags="0x4"/>
    </TTGlyph>
    <TTGlyph name="Udieresis" xMin="60" yMin="-9" xMax="540" yMax="852">
      <component glyphName="U" x="0" y="0" flags="0x204"/>
      <component glyphName="uniF6CB" x="1" y="0" flags="0x4"/>
    </TTGlyph>
    <TTGlyph name="Ugrave" xMin="60" yMin="-9" xMax="540" yMax="870">
      <component glyphName="U" x="0" y="0" flags="0x204"/>
      <component glyphName="uniF6CE" x="-34" y="0" flags="0x4"/>
    </TTGlyph>
    <TTGlyph name="Uhungarumlaut" xMin="60" yMin="-9" xMax="540" yMax="850">
      <component glyphName="U" x="0" y="0" flags="0x204"/>
      <component glyphName="uniF6CF" x="50" y="0" flags="0x4"/>
    </TTGlyph>
    <TTGlyph name="Umacron" xMin="60" yMin="-9" xMax="540" yMax="843">
      <component glyphName="U" x="0" y="0" flags="0x204"/>
      <component glyphName="uniF6D0" x="2" y="0" flags="0x4"/>
    </TTGlyph>
    <TTGlyph name="Uogonek" xMin="60" yMin="-195" xMax="540" yMax="700">
      <contour>
        <pt x="460" y="700" on="1"/>
        <pt x="540" y="700" on="1"/>
        <pt x="540" y="233" on="1"/>
        <pt x="540" y="170" on="0"/>
        <pt x="507" y="78" on="0"/>
        <pt x="447" y="19" on="0"/>
        <pt x="404" y="5" on="1"/>
        <pt x="377" y="-10" on="0"/>
        <pt x="360" y="-30" on="1"/>
        <pt x="340" y="-55" on="0"/>
        <pt x="340" y="-87" on="1"/>
        <pt x="340" y="-107" on="0"/>
        <pt x="366" y="-138" on="0"/>
        <pt x="391" y="-138" on="1"/>
        <pt x="410" y="-138" on="0"/>
        <pt x="431" y="-128" on="1"/>
        <pt x="442" y="-171" on="1"/>
        <pt x="427" y="-183" on="0"/>
        <pt x="377" y="-195" on="0"/>
        <pt x="356" y="-195" on="1"/>
        <pt x="311" y="-195" on="0"/>
        <pt x="257" y="-147" on="0"/>
        <pt x="257" y="-106" on="1"/>
        <pt x="257" y="-65" on="0"/>
        <pt x="284" y="-36" on="1"/>
        <pt x="298" y="-21" on="0"/>
        <pt x="318" y="-9" on="1"/>
        <pt x="309" y="-9" on="1"/>
        <pt x="185" y="-9" on="0"/>
        <pt x="60" y="103" on="0"/>
        <pt x="60" y="217" on="1"/>
        <pt x="60" y="700" on="1"/>
        <pt x="143" y="700" on="1"/>
        <pt x="143" y="256" on="1"/>
        <pt x="143" y="203" on="0"/>
        <pt x="164" y="130" on="0"/>
        <pt x="205" y="85" on="0"/>
        <pt x="268" y="65" on="0"/>
        <pt x="310" y="65" on="1"/>
        <pt x="391" y="65" on="0"/>
        <pt x="460" y="154" on="0"/>
        <pt x="460" y="256" on="1"/>
      </contour>
    </TTGlyph>
    <TTGlyph name="Uring" xMin="60" yMin="-9" xMax="540" yMax="853">
      <component glyphName="U" x="0" y="0" flags="0x204"/>
      <component glyphName="uniF40C" x="5" y="0" flags="0x4"/>
    </TTGlyph>
    <TTGlyph name="V" xMin="14" yMin="0" xMax="586" yMax="700">
      <contour>
        <pt x="302" y="103" on="1"/>
        <pt x="313" y="103" on="1"/>
        <pt x="503" y="700" on="1"/>
        <pt x="586" y="700" on="1"/>
        <pt x="351" y="0" on="1"/>
        <pt x="254" y="0" on="1"/>
        <pt x="14" y="700" on="1"/>
        <pt x="105" y="700" on="1"/>
      </contour>
    </TTGlyph>
    <TTGlyph name="W" xMin="15" yMin="0" xMax="585" yMax="700">
      <contour>
        <pt x="173" y="201" on="1"/>
        <pt x="178" y="136" on="1"/>
        <pt x="185" y="136" on="1"/>
        <pt x="199" y="207" on="1"/>
        <pt x="273" y="480" on="1"/>
        <pt x="339" y="480" on="1"/>
        <pt x="408" y="209" on="1"/>
        <pt x="426" y="135" on="1"/>
        <pt x="431" y="135" on="1"/>
        <pt x="437" y="203" on="1"/>
        <pt x="511" y="700" on="1"/>
        <pt x="585" y="700" on="1"/>
        <pt x="477" y="0" on="1"/>
        <pt x="394" y="0" on="1"/>
        <pt x="313" y="284" on="1"/>
        <pt x="303" y="352" on="1"/>
        <pt x="300" y="352" on="1"/>
        <pt x="289" y="283" on="1"/>
        <pt x="208" y="0" on="1"/>
        <pt x="124" y="0" on="1"/>
        <pt x="15" y="700" on="1"/>
        <pt x="94" y="700" on="1"/>
      </contour>
    </TTGlyph>
    <TTGlyph name="X" xMin="20" yMin="0" xMax="580" yMax="700">
      <contour>
        <pt x="251" y="356" on="1"/>
        <pt x="40" y="700" on="1"/>
        <pt x="140" y="700" on="1"/>
        <pt x="280" y="463" on="1"/>
        <pt x="305" y="416" on="1"/>
        <pt x="329" y="463" on="1"/>
        <pt x="478" y="700" on="1"/>
        <pt x="570" y="700" on="1"/>
        <pt x="351" y="363" on="1"/>
        <pt x="580" y="0" on="1"/>
        <pt x="483" y="0" on="1"/>
        <pt x="326" y="251" on="1"/>
        <pt x="299" y="301" on="1"/>
        <pt x="273" y="251" on="1"/>
        <pt x="113" y="0" on="1"/>
        <pt x="20" y="0" on="1"/>
      </contour>
    </TTGlyph>
    <TTGlyph name="Y" xMin="9" yMin="0" xMax="591" yMax="700">
      <contour>
        <pt x="259" y="268" on="1"/>
        <pt x="9" y="700" on="1"/>
        <pt x="106" y="700" on="1"/>
        <pt x="306" y="354" on="1"/>
        <pt x="307" y="354" on="1"/>
        <pt x="502" y="700" on="1"/>
        <pt x="591" y="700" on="1"/>
        <pt x="342" y="269" on="1"/>
        <pt x="342" y="0" on="1"/>
        <pt x="259" y="0" on="1"/>
      </contour>
    </TTGlyph>
    <TTGlyph name="Yacute" xMin="9" yMin="0" xMax="591" yMax="870">
      <component glyphName="Y" x="0" y="0" flags="0x204"/>
      <component glyphName="uniF6C9" x="53" y="0" flags="0x4"/>
    </TTGlyph>
    <TTGlyph name="Ydieresis" xMin="9" yMin="0" xMax="591" yMax="852">
      <component glyphName="Y" x="0" y="0" flags="0x204"/>
      <component glyphName="uniF6CB" x="2" y="0" flags="0x4"/>
    </TTGlyph>
    <TTGlyph name="Z" xMin="55" yMin="0" xMax="545" yMax="700">
      <contour>
        <pt x="55" y="75" on="1"/>
        <pt x="450" y="626" on="1"/>
        <pt x="55" y="626" on="1"/>
        <pt x="55" y="700" on="1"/>
        <pt x="545" y="700" on="1"/>
        <pt x="545" y="625" on="1"/>
        <pt x="148" y="74" on="1"/>
        <pt x="545" y="74" on="1"/>
        <pt x="545" y="0" on="1"/>
        <pt x="55" y="0" on="1"/>
      </contour>
    </TTGlyph>
    <TTGlyph name="Zacute" xMin="55" yMin="0" xMax="545" yMax="870">
      <component glyphName="Z" x="0" y="0" flags="0x204"/>
      <component glyphName="uniF6C9" x="54" y="0" flags="0x4"/>
    </TTGlyph>
    <TTGlyph name="Zcaron" xMin="55" yMin="0" xMax="545" yMax="870">
      <component glyphName="Z" x="0" y="0" flags="0x204"/>
      <component glyphName="uniF6CA" x="-12" y="0" flags="0x4"/>
    </TTGlyph>
    <TTGlyph name="Zdotaccent" xMin="55" yMin="0" xMax="545" yMax="852">
      <component glyphName="Z" x="0" y="0" flags="0x204"/>
      <component glyphName="uniF40B" x="1" y="0" flags="0x4"/>
    </TTGlyph>
    <TTGlyph name="a" xMin="75" yMin="-9" xMax="545" yMax="508">
      <contour>
        <pt x="108" y="461" on="1"/>
        <pt x="151" y="486" on="0"/>
        <pt x="259" y="508" on="0"/>
        <pt x="311" y="508" on="1"/>
        <pt x="362" y="508" on="0"/>
        <pt x="427" y="476" on="0"/>
        <pt x="464" y="425" on="0"/>
        <pt x="477" y="360" on="0"/>
        <pt x="477" y="327" on="1"/>
        <pt x="477" y="289" on="0"/>
        <pt x="473" y="203" on="0"/>
        <pt x="472" y="160" on="1"/>
        <pt x="472" y="110" on="0"/>
        <pt x="478" y="65" on="1"/>
        <pt x="545" y="65" on="1"/>
        <pt x="545" y="0" on="1"/>
        <pt x="412" y="0" on="1"/>
        <pt x="403" y="75" on="1"/>
        <pt x="398" y="75" on="1"/>
        <pt x="392" y="66" on="0"/>
        <pt x="368" y="38" on="0"/>
        <pt x="329" y="11" on="0"/>
        <pt x="273" y="-9" on="0"/>
        <pt x="235" y="-9" on="1"/>
        <pt x="161" y="-9" on="0"/>
        <pt x="75" y="67" on="0"/>
        <pt x="75" y="133" on="1"/>
        <pt x="75" y="184" on="0"/>
        <pt x="120" y="252" on="0"/>
        <pt x="204" y="288" on="0"/>
        <pt x="323" y="294" on="0"/>
        <pt x="397" y="283" on="1"/>
        <pt x="402" y="329" on="0"/>
        <pt x="395" y="390" on="0"/>
        <pt x="370" y="426" on="0"/>
        <pt x="325" y="441" on="0"/>
        <pt x="292" y="441" on="1"/>
        <pt x="247" y="441" on="0"/>
        <pt x="165" y="416" on="0"/>
        <pt x="133" y="403" on="1"/>
      </contour>
      <contour>
        <pt x="255" y="58" on="1"/>
        <pt x="283" y="58" on="0"/>
        <pt x="331" y="76" on="0"/>
        <pt x="367" y="104" on="0"/>
        <pt x="391" y="137" on="0"/>
        <pt x="397" y="152" on="1"/>
        <pt x="397" y="222" on="1"/>
        <pt x="345" y="231" on="0"/>
        <pt x="257" y="231" on="0"/>
        <pt x="193" y="212" on="0"/>
        <pt x="157" y="172" on="0"/>
        <pt x="157" y="140" on="1"/>
        <pt x="157" y="107" on="0"/>
        <pt x="202" y="58" on="0"/>
      </contour>
    </TTGlyph>
    <TTGlyph name="aacute" xMin="75" yMin="-9" xMax="545" yMax="720">
      <component glyphName="a" x="0" y="0" flags="0x204"/>
      <component glyphName="acute" x="38" y="0" flags="0x4"/>
    </TTGlyph>
    <TTGlyph name="abreve" xMin="75" yMin="-9" xMax="545" yMax="720">
      <component glyphName="a" x="0" y="0" flags="0x204"/>
      <component glyphName="breve" x="14" y="0" flags="0x4"/>
    </TTGlyph>
    <TTGlyph name="acircumflex" xMin="75" yMin="-9" xMax="545" yMax="732">
      <component glyphName="a" x="0" y="0" flags="0x204"/>
      <component glyphName="circumflex" x="-5" y="0" flags="0x4"/>
    </TTGlyph>
    <TTGlyph name="acute" xMin="196" yMin="571" xMax="370" yMax="720">
      <contour>
        <pt x="261" y="720" on="1"/>
        <pt x="370" y="720" on="1"/>
        <pt x="251" y="571" on="1"/>
        <pt x="196" y="571" on="1"/>
      </contour>
    </TTGlyph>
    <TTGlyph name="acutecomb" xMin="196" yMin="571" xMax="370" yMax="720">
      <component glyphName="acute" x="0" y="0" flags="0x204"/>
    </TTGlyph>
    <TTGlyph name="adieresis" xMin="75" yMin="-9" xMax="545" yMax="704">
      <component glyphName="a" x="0" y="0" flags="0x204"/>
      <component glyphName="dieresis" x="-4" y="0" flags="0x4"/>
    </TTGlyph>
    <TTGlyph name="ae" xMin="29" yMin="-12" xMax="571" yMax="512">
      <contour>
        <pt x="175" y="59" on="1"/>
        <pt x="207" y="59" on="0"/>
        <pt x="254" y="94" on="0"/>
        <pt x="261" y="120" on="1"/>
        <pt x="261" y="225" on="1"/>
        <pt x="258" y="225" on="0"/>
        <pt x="242" y="226" on="0"/>
        <pt x="225" y="227" on="0"/>
        <pt x="209" y="227" on="0"/>
        <pt x="206" y="227" on="1"/>
        <pt x="186" y="227" on="0"/>
        <pt x="148" y="222" on="0"/>
        <pt x="120" y="205" on="0"/>
        <pt x="103" y="172" on="0"/>
        <pt x="103" y="145" on="1"/>
        <pt x="103" y="110" on="0"/>
        <pt x="137" y="59" on="0"/>
      </contour>
      <contour>
        <pt x="283" y="65" on="1"/>
        <pt x="266" y="30" on="0"/>
        <pt x="202" y="-8" on="0"/>
        <pt x="151" y="-8" on="1"/>
        <pt x="97" y="-8" on="0"/>
        <pt x="29" y="72" on="0"/>
        <pt x="29" y="138" on="1"/>
        <pt x="29" y="181" on="0"/>
        <pt x="53" y="240" on="0"/>
        <pt x="97" y="276" on="0"/>
        <pt x="156" y="291" on="0"/>
        <pt x="192" y="291" on="1"/>
        <pt x="196" y="291" on="0"/>
        <pt x="215" y="291" on="0"/>
        <pt x="236" y="290" on="0"/>
        <pt x="255" y="289" on="0"/>
        <pt x="260" y="289" on="1"/>
        <pt x="261" y="303" on="0"/>
        <pt x="262" y="329" on="0"/>
        <pt x="262" y="340" on="1"/>
        <pt x="262" y="369" on="0"/>
        <pt x="246" y="408" on="0"/>
        <pt x="221" y="431" on="0"/>
        <pt x="188" y="441" on="0"/>
        <pt x="170" y="441" on="1"/>
        <pt x="147" y="441" on="0"/>
        <pt x="93" y="422" on="0"/>
        <pt x="74" y="407" on="1"/>
        <pt x="55" y="465" on="1"/>
        <pt x="80" y="487" on="0"/>
        <pt x="149" y="508" on="0"/>
        <pt x="186" y="508" on="1"/>
        <pt x="203" y="508" on="0"/>
        <pt x="240" y="500" on="0"/>
        <pt x="274" y="484" on="0"/>
        <pt x="300" y="461" on="0"/>
        <pt x="305" y="445" on="1"/>
        <pt x="314" y="463" on="0"/>
        <pt x="343" y="488" on="0"/>
        <pt x="377" y="505" on="0"/>
        <pt x="413" y="512" on="0"/>
        <pt x="428" y="512" on="1"/>
        <pt x="451" y="512" on="0"/>
        <pt x="502" y="497" on="0"/>
        <pt x="544" y="455" on="0"/>
        <pt x="571" y="383" on="0"/>
        <pt x="571" y="326" on="1"/>
        <pt x="571" y="306" on="0"/>
        <pt x="569" y="252" on="0"/>
        <pt x="566" y="229" on="1"/>
        <pt x="325" y="229" on="1"/>
        <pt x="326" y="133" on="0"/>
        <pt x="390" y="55" on="0"/>
        <pt x="443" y="55" on="1"/>
        <pt x="455" y="55" on="0"/>
        <pt x="481" y="60" on="0"/>
        <pt x="506" y="67" on="0"/>
        <pt x="526" y="77" on="0"/>
        <pt x="531" y="82" on="1"/>
        <pt x="555" y="26" on="1"/>
        <pt x="535" y="9" on="0"/>
        <pt x="464" y="-12" on="0"/>
        <pt x="426" y="-12" on="1"/>
        <pt x="406" y="-12" on="0"/>
        <pt x="363" y="-2" on="0"/>
        <pt x="325" y="17" on="0"/>
        <pt x="295" y="46" on="0"/>
        <pt x="287" y="65" on="1"/>
      </contour>
      <contour>
        <pt x="428" y="445" on="1"/>
        <pt x="410" y="445" on="0"/>
        <pt x="375" y="427" on="0"/>
        <pt x="347" y="389" on="0"/>
        <pt x="328" y="333" on="0"/>
        <pt x="327" y="294" on="1"/>
        <pt x="502" y="294" on="1"/>
        <pt x="502" y="312" on="1"/>
        <pt x="502" y="379" on="0"/>
        <pt x="457" y="445" on="0"/>
      </contour>
    </TTGlyph>
    <TTGlyph name="afii10017" xMin="16" yMin="0" xMax="584" yMax="700">
      <component glyphName="A" x="0" y="0" flags="0x204"/>
    </TTGlyph>
    <TTGlyph name="afii10018" xMin="108" yMin="-8" xMax="535" yMax="700">
      <contour>
        <pt x="108" y="700" on="1"/>
        <pt x="488" y="700" on="1"/>
        <pt x="488" y="626" on="1"/>
        <pt x="191" y="626" on="1"/>
        <pt x="191" y="416" on="1"/>
        <pt x="208" y="419" on="0"/>
        <pt x="258" y="425" on="0"/>
        <pt x="281" y="425" on="1"/>
        <pt x="332" y="425" on="0"/>
        <pt x="424" y="406" on="0"/>
        <pt x="494" y="360" on="0"/>
        <pt x="535" y="281" on="0"/>
        <pt x="535" y="221" on="1"/>
        <pt x="535" y="161" on="0"/>
        <pt x="493" y="74" on="0"/>
        <pt x="423" y="19" on="0"/>
        <pt x="330" y="-8" on="0"/>
        <pt x="279" y="-8" on="1"/>
        <pt x="262" y="-8" on="0"/>
        <pt x="219" y="-7" on="0"/>
        <pt x="172" y="-3" on="0"/>
        <pt x="127" y="2" on="0"/>
        <pt x="108" y="7" on="1"/>
      </contour>
      <contour>
        <pt x="289" y="64" on="1"/>
        <pt x="321" y="64" on="0"/>
        <pt x="379" y="81" on="0"/>
        <pt x="422" y="117" on="0"/>
        <pt x="447" y="171" on="0"/>
        <pt x="447" y="207" on="1"/>
        <pt x="447" y="253" on="0"/>
        <pt x="418" y="311" on="0"/>
        <pt x="370" y="342" on="0"/>
        <pt x="307" y="353" on="0"/>
        <pt x="273" y="353" on="1"/>
        <pt x="264" y="353" on="0"/>
        <pt x="240" y="351" on="0"/>
        <pt x="216" y="349" on="0"/>
        <pt x="196" y="346" on="0"/>
        <pt x="191" y="345" on="1"/>
        <pt x="191" y="70" on="1"/>
        <pt x="198" y="68" on="0"/>
        <pt x="221" y="66" on="0"/>
        <pt x="248" y="64" on="0"/>
        <pt x="276" y="64" on="0"/>
      </contour>
    </TTGlyph>
    <TTGlyph name="afii10019" xMin="100" yMin="-8" xMax="543" yMax="708">
      <component glyphName="B" x="0" y="0" flags="0x204"/>
    </TTGlyph>
    <TTGlyph name="afii10020" xMin="70" yMin="0" xMax="550" yMax="700">
      <contour>
        <pt x="70" y="700" on="1"/>
        <pt x="550" y="700" on="1"/>
        <pt x="550" y="517" on="1"/>
        <pt x="476" y="517" on="1"/>
        <pt x="476" y="626" on="1"/>
        <pt x="249" y="626" on="1"/>
        <pt x="249" y="74" on="1"/>
        <pt x="406" y="74" on="1"/>
        <pt x="406" y="0" on="1"/>
        <pt x="70" y="0" on="1"/>
        <pt x="70" y="74" on="1"/>
        <pt x="166" y="74" on="1"/>
        <pt x="166" y="626" on="1"/>
        <pt x="70" y="626" on="1"/>
      </contour>
    </TTGlyph>
    <TTGlyph name="afii10021" xMin="8" yMin="-141" xMax="584" yMax="700">
      <contour>
        <pt x="584" y="-141" on="1"/>
        <pt x="514" y="-141" on="1"/>
        <pt x="514" y="0" on="1"/>
        <pt x="78" y="0" on="1"/>
        <pt x="78" y="-141" on="1"/>
        <pt x="8" y="-141" on="1"/>
        <pt x="8" y="74" on="1"/>
        <pt x="75" y="74" on="1"/>
        <pt x="79" y="86" on="0"/>
        <pt x="108" y="168" on="0"/>
        <pt x="139" y="318" on="0"/>
        <pt x="165" y="544" on="0"/>
        <pt x="165" y="700" on="1"/>
        <pt x="509" y="700" on="1"/>
        <pt x="509" y="74" on="1"/>
        <pt x="584" y="74" on="1"/>
      </contour>
      <contour>
        <pt x="426" y="74" on="1"/>
        <pt x="426" y="626" on="1"/>
        <pt x="243" y="626" on="1"/>
        <pt x="240" y="516" on="0"/>
        <pt x="221" y="340" on="0"/>
        <pt x="197" y="204" on="0"/>
        <pt x="172" y="106" on="0"/>
        <pt x="163" y="74" on="1"/>
      </contour>
    </TTGlyph>
    <TTGlyph name="afii10022" xMin="107" yMin="0" xMax="523" yMax="700">
      <component glyphName="E" x="0" y="0" flags="0x204"/>
    </TTGlyph>
    <TTGlyph name="afii10023" xMin="107" yMin="0" xMax="523" yMax="852">
      <component glyphName="E" x="0" y="0" flags="0x204"/>
      <component glyphName="uniF6CB" x="11" y="0" flags="0x4"/>
    </TTGlyph>
    <TTGlyph name="afii10024" xMin="0" yMin="0" xMax="600" yMax="700">
      <contour>
        <pt x="259" y="700" on="1"/>
        <pt x="339" y="700" on="1"/>
        <pt x="339" y="386" on="1"/>
        <pt x="389" y="386" on="1"/>
        <pt x="499" y="700" on="1"/>
        <pt x="581" y="700" on="1"/>
        <pt x="460" y="358" on="1"/>
        <pt x="600" y="0" on="1"/>
        <pt x="508" y="0" on="1"/>
        <pt x="391" y="324" on="1"/>
        <pt x="339" y="324" on="1"/>
        <pt x="339" y="0" on="1"/>
        <pt x="259" y="0" on="1"/>
        <pt x="259" y="324" on="1"/>
        <pt x="204" y="324" on="1"/>
        <pt x="86" y="0" on="1"/>
        <pt x="0" y="0" on="1"/>
        <pt x="131" y="353" on="1"/>
        <pt x="18" y="700" on="1"/>
        <pt x="105" y="700" on="1"/>
        <pt x="200" y="386" on="1"/>
        <pt x="259" y="386" on="1"/>
      </contour>
    </TTGlyph>
    <TTGlyph name="afii10025" xMin="80" yMin="-12" xMax="530" yMax="712">
      <contour>
        <pt x="80" y="183" on="1"/>
        <pt x="154" y="183" on="1"/>
        <pt x="154" y="78" on="1"/>
        <pt x="178" y="70" on="0"/>
        <pt x="238" y="58" on="0"/>
        <pt x="273" y="58" on="1"/>
        <pt x="349" y="58" on="0"/>
        <pt x="442" y="130" on="0"/>
        <pt x="442" y="202" on="1"/>
        <pt x="442" y="265" on="0"/>
        <pt x="356" y="326" on="0"/>
        <pt x="285" y="331" on="1"/>
        <pt x="225" y="331" on="1"/>
        <pt x="225" y="401" on="1"/>
        <pt x="294" y="401" on="1"/>
        <pt x="320" y="404" on="0"/>
        <pt x="366" y="425" on="0"/>
        <pt x="401" y="457" on="0"/>
        <pt x="421" y="499" on="0"/>
        <pt x="421" y="523" on="1"/>
        <pt x="421" y="556" on="0"/>
        <pt x="398" y="601" on="0"/>
        <pt x="358" y="629" on="0"/>
        <pt x="302" y="642" on="0"/>
        <pt x="268" y="642" on="1"/>
        <pt x="239" y="642" on="0"/>
        <pt x="183" y="634" on="0"/>
        <pt x="160" y="628" on="1"/>
        <pt x="160" y="529" on="1"/>
        <pt x="86" y="529" on="1"/>
        <pt x="86" y="677" on="1"/>
        <pt x="86" y="678" on="1"/>
        <pt x="96" y="684" on="0"/>
        <pt x="134" y="696" on="0"/>
        <pt x="186" y="706" on="0"/>
        <pt x="248" y="712" on="0"/>
        <pt x="282" y="712" on="1"/>
        <pt x="327" y="712" on="0"/>
        <pt x="409" y="695" on="0"/>
        <pt x="472" y="656" on="0"/>
        <pt x="509" y="589" on="0"/>
        <pt x="509" y="540" on="1"/>
        <pt x="509" y="490" on="0"/>
        <pt x="444" y="399" on="0"/>
        <pt x="378" y="379" on="1"/>
        <pt x="378" y="375" on="1"/>
        <pt x="449" y="365" on="0"/>
        <pt x="530" y="279" on="0"/>
        <pt x="530" y="207" on="1"/>
        <pt x="530" y="150" on="0"/>
        <pt x="486" y="67" on="0"/>
        <pt x="413" y="13" on="0"/>
        <pt x="321" y="-12" on="0"/>
        <pt x="273" y="-12" on="1"/>
        <pt x="204" y="-12" on="0"/>
        <pt x="108" y="13" on="0"/>
        <pt x="80" y="24" on="1"/>
        <pt x="80" y="25" on="1"/>
      </contour>
    </TTGlyph>
    <TTGlyph name="afii10026" xMin="60" yMin="0" xMax="540" yMax="700">
      <contour>
        <pt x="457" y="464" on="1"/>
        <pt x="463" y="564" on="1"/>
        <pt x="457" y="564" on="1"/>
        <pt x="399" y="452" on="1"/>
        <pt x="139" y="0" on="1"/>
        <pt x="60" y="0" on="1"/>
        <pt x="60" y="700" on="1"/>
        <pt x="143" y="700" on="1"/>
        <pt x="143" y="230" on="1"/>
        <pt x="138" y="131" on="1"/>
        <pt x="144" y="131" on="1"/>
        <pt x="201" y="243" on="1"/>
        <pt x="461" y="700" on="1"/>
        <pt x="540" y="700" on="1"/>
        <pt x="540" y="0" on="1"/>
        <pt x="457" y="0" on="1"/>
      </contour>
    </TTGlyph>
    <TTGlyph name="afii10027" xMin="60" yMin="0" xMax="540" yMax="870">
      <component glyphName="afii10026" x="0" y="0" flags="0x204"/>
      <component glyphName="uniF6D1" x="11" y="0" flags="0x4"/>
    </TTGlyph>
    <TTGlyph name="afii10028" xMin="85" yMin="0" xMax="595" yMax="700">
      <component glyphName="K" x="0" y="0" flags="0x204"/>
    </TTGlyph>
    <TTGlyph name="afii10029" xMin="3" yMin="-5" xMax="524" yMax="700">
      <contour>
        <pt x="441" y="626" on="1"/>
        <pt x="252" y="626" on="1"/>
        <pt x="242" y="426" on="0"/>
        <pt x="209" y="161" on="0"/>
        <pt x="176" y="87" on="1"/>
        <pt x="154" y="39" on="0"/>
        <pt x="94" y="-5" on="0"/>
        <pt x="59" y="-5" on="1"/>
        <pt x="41" y="-5" on="0"/>
        <pt x="15" y="0" on="0"/>
        <pt x="3" y="5" on="1"/>
        <pt x="14" y="77" on="1"/>
        <pt x="24" y="74" on="0"/>
        <pt x="35" y="74" on="1"/>
        <pt x="52" y="74" on="0"/>
        <pt x="85" y="96" on="0"/>
        <pt x="101" y="126" on="1"/>
        <pt x="115" y="153" on="0"/>
        <pt x="140" y="243" on="0"/>
        <pt x="159" y="381" on="0"/>
        <pt x="171" y="572" on="0"/>
        <pt x="174" y="700" on="1"/>
        <pt x="524" y="700" on="1"/>
        <pt x="524" y="0" on="1"/>
        <pt x="441" y="0" on="1"/>
      </contour>
    </TTGlyph>
    <TTGlyph name="afii10030" xMin="60" yMin="0" xMax="540" yMax="700">
      <component glyphName="M" x="0" y="0" flags="0x204"/>
    </TTGlyph>
    <TTGlyph name="afii10031" xMin="60" yMin="0" xMax="540" yMax="700">
      <component glyphName="H" x="0" y="0" flags="0x204"/>
    </TTGlyph>
    <TTGlyph name="afii10032" xMin="48" yMin="-12" xMax="552" yMax="712">
      <component glyphName="O" x="0" y="0" flags="0x204"/>
    </TTGlyph>
    <TTGlyph name="afii10033" xMin="70" yMin="0" xMax="530" yMax="700">
      <contour>
        <pt x="447" y="626" on="1"/>
        <pt x="153" y="626" on="1"/>
        <pt x="153" y="0" on="1"/>
        <pt x="70" y="0" on="1"/>
        <pt x="70" y="700" on="1"/>
        <pt x="530" y="700" on="1"/>
        <pt x="530" y="0" on="1"/>
        <pt x="447" y="0" on="1"/>
      </contour>
    </TTGlyph>
    <TTGlyph name="afii10034" xMin="100" yMin="0" xMax="537" yMax="708">
      <component glyphName="P" x="0" y="0" flags="0x204"/>
    </TTGlyph>
    <TTGlyph name="afii10035" xMin="65" yMin="-12" xMax="544" yMax="712">
      <component glyphName="C" x="0" y="0" flags="0x204"/>
    </TTGlyph>
    <TTGlyph name="afii10036" xMin="40" yMin="0" xMax="560" yMax="700">
      <component glyphName="T" x="0" y="0" flags="0x204"/>
    </TTGlyph>
    <TTGlyph name="afii10037" xMin="30" yMin="-5" xMax="570" yMax="700">
      <contour>
        <pt x="299" y="284" on="1"/>
        <pt x="363" y="284" on="1"/>
        <pt x="485" y="700" on="1"/>
        <pt x="570" y="700" on="1"/>
        <pt x="428" y="245" on="1"/>
        <pt x="408" y="176" on="0"/>
        <pt x="369" y="80" on="0"/>
        <pt x="324" y="21" on="0"/>
        <pt x="270" y="-5" on="0"/>
        <pt x="235" y="-5" on="1"/>
        <pt x="202" y="-5" on="0"/>
        <pt x="163" y="6" on="0"/>
        <pt x="146" y="17" on="1"/>
        <pt x="171" y="86" on="1"/>
        <pt x="191" y="75" on="0"/>
        <pt x="225" y="69" on="0"/>
        <pt x="239" y="69" on="1"/>
        <pt x="267" y="69" on="0"/>
        <pt x="319" y="135" on="0"/>
        <pt x="336" y="210" on="1"/>
        <pt x="246" y="211" on="1"/>
        <pt x="30" y="700" on="1"/>
        <pt x="126" y="700" on="1"/>
      </contour>
    </TTGlyph>
    <TTGlyph name="afii10038" xMin="22" yMin="-20" xMax="578" yMax="720">
      <contour>
        <pt x="258" y="65" on="1"/>
        <pt x="214" y="65" on="0"/>
        <pt x="129" y="87" on="0"/>
        <pt x="63" y="148" on="0"/>
        <pt x="22" y="260" on="0"/>
        <pt x="22" y="350" on="1"/>
        <pt x="22" y="431" on="0"/>
        <pt x="60" y="545" on="0"/>
        <pt x="124" y="616" on="0"/>
        <pt x="210" y="648" on="0"/>
        <pt x="258" y="648" on="1"/>
        <pt x="258" y="720" on="1"/>
        <pt x="341" y="720" on="1"/>
        <pt x="341" y="648" on="1"/>
        <pt x="384" y="648" on="0"/>
        <pt x="468" y="623" on="0"/>
        <pt x="536" y="558" on="0"/>
        <pt x="578" y="447" on="0"/>
        <pt x="578" y="360" on="1"/>
        <pt x="578" y="275" on="0"/>
        <pt x="537" y="161" on="0"/>
        <pt x="470" y="93" on="0"/>
        <pt x="385" y="65" on="0"/>
        <pt x="341" y="65" on="1"/>
        <pt x="341" y="-20" on="1"/>
        <pt x="258" y="-20" on="1"/>
      </contour>
      <contour>
        <pt x="495" y="360" on="1"/>
        <pt x="495" y="418" on="0"/>
        <pt x="473" y="501" on="0"/>
        <pt x="432" y="553" on="0"/>
        <pt x="374" y="578" on="0"/>
        <pt x="338" y="578" on="1"/>
        <pt x="338" y="134" on="1"/>
        <pt x="374" y="134" on="0"/>
        <pt x="433" y="155" on="0"/>
        <pt x="473" y="207" on="0"/>
        <pt x="495" y="294" on="0"/>
      </contour>
      <contour>
        <pt x="105" y="350" on="1"/>
        <pt x="105" y="290" on="0"/>
        <pt x="124" y="208" on="0"/>
        <pt x="162" y="157" on="0"/>
        <pt x="221" y="134" on="0"/>
        <pt x="260" y="134" on="1"/>
        <pt x="260" y="578" on="1"/>
        <pt x="226" y="578" on="0"/>
        <pt x="169" y="557" on="0"/>
        <pt x="128" y="504" on="0"/>
        <pt x="105" y="416" on="0"/>
      </contour>
    </TTGlyph>
    <TTGlyph name="afii10039" xMin="20" yMin="0" xMax="580" yMax="700">
      <component glyphName="X" x="0" y="0" flags="0x204"/>
    </TTGlyph>
    <TTGlyph name="afii10040" xMin="70" yMin="-141" xMax="594" yMax="700">
      <contour>
        <pt x="594" y="-141" on="1"/>
        <pt x="524" y="-141" on="1"/>
        <pt x="524" y="0" on="1"/>
        <pt x="70" y="0" on="1"/>
        <pt x="70" y="700" on="1"/>
        <pt x="153" y="700" on="1"/>
        <pt x="153" y="74" on="1"/>
        <pt x="428" y="74" on="1"/>
        <pt x="428" y="700" on="1"/>
        <pt x="511" y="700" on="1"/>
        <pt x="511" y="74" on="1"/>
        <pt x="594" y="74" on="1"/>
      </contour>
    </TTGlyph>
    <TTGlyph name="afii10041" xMin="82" yMin="0" xMax="527" yMax="700">
      <contour>
        <pt x="165" y="700" on="1"/>
        <pt x="165" y="468" on="1"/>
        <pt x="165" y="331" on="0"/>
        <pt x="289" y="331" on="1"/>
        <pt x="336" y="331" on="0"/>
        <pt x="418" y="356" on="0"/>
        <pt x="444" y="377" on="1"/>
        <pt x="444" y="700" on="1"/>
        <pt x="527" y="700" on="1"/>
        <pt x="527" y="0" on="1"/>
        <pt x="444" y="0" on="1"/>
        <pt x="444" y="302" on="1"/>
        <pt x="417" y="287" on="0"/>
        <pt x="329" y="257" on="0"/>
        <pt x="272" y="257" on="1"/>
        <pt x="230" y="257" on="0"/>
        <pt x="160" y="276" on="0"/>
        <pt x="110" y="321" on="0"/>
        <pt x="82" y="397" on="0"/>
        <pt x="82" y="453" on="1"/>
        <pt x="82" y="700" on="1"/>
      </contour>
    </TTGlyph>
    <TTGlyph name="afii10042" xMin="51" yMin="0" xMax="549" yMax="700">
      <contour>
        <pt x="51" y="0" on="1"/>
        <pt x="51" y="700" on="1"/>
        <pt x="129" y="700" on="1"/>
        <pt x="129" y="74" on="1"/>
        <pt x="261" y="74" on="1"/>
        <pt x="261" y="700" on="1"/>
        <pt x="339" y="700" on="1"/>
        <pt x="339" y="74" on="1"/>
        <pt x="471" y="74" on="1"/>
        <pt x="471" y="700" on="1"/>
        <pt x="549" y="700" on="1"/>
        <pt x="549" y="0" on="1"/>
      </contour>
    </TTGlyph>
    <TTGlyph name="afii10043" xMin="42" yMin="-141" xMax="600" yMax="700">
      <contour>
        <pt x="42" y="0" on="1"/>
        <pt x="42" y="700" on="1"/>
        <pt x="120" y="700" on="1"/>
        <pt x="120" y="74" on="1"/>
        <pt x="251" y="74" on="1"/>
        <pt x="251" y="700" on="1"/>
        <pt x="329" y="700" on="1"/>
        <pt x="329" y="74" on="1"/>
        <pt x="461" y="74" on="1"/>
        <pt x="461" y="700" on="1"/>
        <pt x="539" y="700" on="1"/>
        <pt x="539" y="74" on="1"/>
        <pt x="600" y="74" on="1"/>
        <pt x="600" y="-141" on="1"/>
        <pt x="530" y="-141" on="1"/>
        <pt x="530" y="0" on="1"/>
      </contour>
    </TTGlyph>
    <TTGlyph name="afii10044" xMin="21" yMin="-8" xMax="568" yMax="700">
      <contour>
        <pt x="161" y="626" on="1"/>
        <pt x="21" y="626" on="1"/>
        <pt x="21" y="700" on="1"/>
        <pt x="244" y="700" on="1"/>
        <pt x="244" y="428" on="1"/>
        <pt x="255" y="430" on="0"/>
        <pt x="301" y="436" on="0"/>
        <pt x="324" y="436" on="1"/>
        <pt x="379" y="436" on="0"/>
        <pt x="469" y="411" on="0"/>
        <pt x="533" y="360" on="0"/>
        <pt x="568" y="280" on="0"/>
        <pt x="568" y="226" on="1"/>
        <pt x="568" y="173" on="0"/>
        <pt x="535" y="87" on="0"/>
        <pt x="470" y="26" on="0"/>
        <pt x="375" y="-8" on="0"/>
        <pt x="312" y="-8" on="1"/>
        <pt x="303" y="-8" on="0"/>
        <pt x="268" y="-7" on="0"/>
        <pt x="226" y="-4" on="0"/>
        <pt x="180" y="2" on="0"/>
        <pt x="161" y="7" on="1"/>
      </contour>
      <contour>
        <pt x="322" y="64" on="1"/>
        <pt x="404" y="64" on="0"/>
        <pt x="480" y="148" on="0"/>
        <pt x="480" y="220" on="1"/>
        <pt x="480" y="290" on="0"/>
        <pt x="397" y="364" on="0"/>
        <pt x="318" y="364" on="1"/>
        <pt x="295" y="364" on="0"/>
        <pt x="254" y="358" on="0"/>
        <pt x="244" y="355" on="1"/>
        <pt x="244" y="70" on="1"/>
        <pt x="251" y="68" on="0"/>
        <pt x="271" y="66" on="0"/>
        <pt x="293" y="65" on="0"/>
        <pt x="314" y="64" on="0"/>
      </contour>
    </TTGlyph>
    <TTGlyph name="afii10045" xMin="50" yMin="-8" xMax="550" yMax="700">
      <contour>
        <pt x="467" y="700" on="1"/>
        <pt x="550" y="700" on="1"/>
        <pt x="550" y="0" on="1"/>
        <pt x="467" y="0" on="1"/>
      </contour>
      <contour>
        <pt x="50" y="700" on="1"/>
        <pt x="133" y="700" on="1"/>
        <pt x="133" y="437" on="1"/>
        <pt x="140" y="439" on="0"/>
        <pt x="176" y="446" on="0"/>
        <pt x="199" y="446" on="1"/>
        <pt x="236" y="446" on="0"/>
        <pt x="308" y="426" on="0"/>
        <pt x="366" y="376" on="0"/>
        <pt x="402" y="291" on="0"/>
        <pt x="402" y="227" on="1"/>
        <pt x="402" y="165" on="0"/>
        <pt x="370" y="77" on="0"/>
        <pt x="312" y="19" on="0"/>
        <pt x="230" y="-8" on="0"/>
        <pt x="181" y="-8" on="1"/>
        <pt x="168" y="-8" on="0"/>
        <pt x="134" y="-7" on="0"/>
        <pt x="98" y="-4" on="0"/>
        <pt x="63" y="1" on="0"/>
        <pt x="50" y="5" on="1"/>
      </contour>
      <contour>
        <pt x="187" y="66" on="1"/>
        <pt x="216" y="66" on="0"/>
        <pt x="265" y="83" on="0"/>
        <pt x="300" y="120" on="0"/>
        <pt x="319" y="178" on="0"/>
        <pt x="319" y="220" on="1"/>
        <pt x="319" y="265" on="0"/>
        <pt x="298" y="324" on="0"/>
        <pt x="263" y="359" on="0"/>
        <pt x="216" y="372" on="0"/>
        <pt x="190" y="372" on="1"/>
        <pt x="173" y="372" on="0"/>
        <pt x="139" y="367" on="0"/>
        <pt x="133" y="363" on="1"/>
        <pt x="133" y="73" on="1"/>
        <pt x="141" y="69" on="0"/>
        <pt x="171" y="66" on="0"/>
      </contour>
    </TTGlyph>
    <TTGlyph name="afii10046" xMin="118" yMin="-8" xMax="554" yMax="700">
      <contour>
        <pt x="118" y="700" on="1"/>
        <pt x="201" y="700" on="1"/>
        <pt x="201" y="428" on="1"/>
        <pt x="206" y="429" on="0"/>
        <pt x="230" y="432" on="0"/>
        <pt x="258" y="434" on="0"/>
        <pt x="288" y="436" on="0"/>
        <pt x="300" y="436" on="1"/>
        <pt x="348" y="436" on="0"/>
        <pt x="439" y="417" on="0"/>
        <pt x="510" y="369" on="0"/>
        <pt x="554" y="288" on="0"/>
        <pt x="554" y="226" on="1"/>
        <pt x="554" y="166" on="0"/>
        <pt x="512" y="78" on="0"/>
        <pt x="438" y="20" on="0"/>
        <pt x="339" y="-8" on="0"/>
        <pt x="281" y="-8" on="1"/>
        <pt x="267" y="-8" on="0"/>
        <pt x="227" y="-7" on="0"/>
        <pt x="182" y="-4" on="0"/>
        <pt x="137" y="2" on="0"/>
        <pt x="118" y="7" on="1"/>
      </contour>
      <contour>
        <pt x="292" y="64" on="1"/>
        <pt x="328" y="64" on="0"/>
        <pt x="391" y="83" on="0"/>
        <pt x="439" y="122" on="0"/>
        <pt x="466" y="181" on="0"/>
        <pt x="466" y="220" on="1"/>
        <pt x="466" y="262" on="0"/>
        <pt x="436" y="318" on="0"/>
        <pt x="387" y="351" on="0"/>
        <pt x="323" y="364" on="0"/>
        <pt x="289" y="364" on="1"/>
        <pt x="280" y="364" on="0"/>
        <pt x="254" y="362" on="0"/>
        <pt x="228" y="360" on="0"/>
        <pt x="206" y="356" on="0"/>
        <pt x="201" y="355" on="1"/>
        <pt x="201" y="70" on="1"/>
        <pt x="215" y="67" on="0"/>
        <pt x="267" y="64" on="0"/>
      </contour>
    </TTGlyph>
    <TTGlyph name="afii10047" xMin="60" yMin="-12" xMax="540" yMax="712">
      <contour>
        <pt x="76" y="670" on="1"/>
        <pt x="75" y="673" on="1"/>
        <pt x="106" y="691" on="0"/>
        <pt x="197" y="712" on="0"/>
        <pt x="249" y="712" on="1"/>
        <pt x="313" y="712" on="0"/>
        <pt x="420" y="672" on="0"/>
        <pt x="497" y="585" on="0"/>
        <pt x="540" y="447" on="0"/>
        <pt x="540" y="350" on="1"/>
        <pt x="540" y="252" on="0"/>
        <pt x="491" y="114" on="0"/>
        <pt x="406" y="27" on="0"/>
        <pt x="292" y="-12" on="0"/>
        <pt x="228" y="-12" on="1"/>
        <pt x="203" y="-12" on="0"/>
        <pt x="152" y="-3" on="0"/>
        <pt x="107" y="10" on="0"/>
        <pt x="70" y="25" on="0"/>
        <pt x="60" y="31" on="1"/>
        <pt x="60" y="179" on="1"/>
        <pt x="134" y="179" on="1"/>
        <pt x="134" y="79" on="1"/>
        <pt x="156" y="71" on="0"/>
        <pt x="211" y="58" on="0"/>
        <pt x="245" y="58" on="1"/>
        <pt x="284" y="58" on="0"/>
        <pt x="360" y="86" on="0"/>
        <pt x="420" y="148" on="0"/>
        <pt x="457" y="248" on="0"/>
        <pt x="457" y="321" on="1"/>
        <pt x="209" y="321" on="1"/>
        <pt x="209" y="395" on="1"/>
        <pt x="456" y="395" on="1"/>
        <pt x="454" y="460" on="0"/>
        <pt x="420" y="553" on="0"/>
        <pt x="362" y="613" on="0"/>
        <pt x="285" y="642" on="0"/>
        <pt x="239" y="642" on="1"/>
        <pt x="213" y="642" on="0"/>
        <pt x="169" y="635" on="0"/>
        <pt x="150" y="630" on="1"/>
        <pt x="150" y="525" on="1"/>
        <pt x="76" y="525" on="1"/>
      </contour>
    </TTGlyph>
    <TTGlyph name="afii10048" xMin="35" yMin="-12" xMax="576" yMax="712">
      <contour>
        <pt x="118" y="395" on="1"/>
        <pt x="201" y="395" on="1"/>
        <pt x="203" y="465" on="0"/>
        <pt x="226" y="581" on="0"/>
        <pt x="271" y="665" on="0"/>
        <pt x="341" y="712" on="0"/>
        <pt x="389" y="712" on="1"/>
        <pt x="440" y="712" on="0"/>
        <pt x="511" y="662" on="0"/>
        <pt x="556" y="568" on="0"/>
        <pt x="576" y="434" on="0"/>
        <pt x="576" y="350" on="1"/>
        <pt x="576" y="171" on="0"/>
        <pt x="481" y="-12" on="0"/>
        <pt x="379" y="-12" on="1"/>
        <pt x="332" y="-12" on="0"/>
        <pt x="266" y="34" on="0"/>
        <pt x="222" y="121" on="0"/>
        <pt x="201" y="244" on="0"/>
        <pt x="200" y="322" on="1"/>
        <pt x="118" y="322" on="1"/>
        <pt x="118" y="0" on="1"/>
        <pt x="35" y="0" on="1"/>
        <pt x="35" y="700" on="1"/>
        <pt x="118" y="700" on="1"/>
      </contour>
      <contour>
        <pt x="284" y="350" on="1"/>
        <pt x="284" y="210" on="0"/>
        <pt x="338" y="62" on="0"/>
        <pt x="386" y="62" on="1"/>
        <pt x="445" y="62" on="0"/>
        <pt x="493" y="198" on="0"/>
        <pt x="493" y="350" on="1"/>
        <pt x="493" y="410" on="0"/>
        <pt x="484" y="515" on="0"/>
        <pt x="460" y="593" on="0"/>
        <pt x="417" y="638" on="0"/>
        <pt x="383" y="638" on="1"/>
        <pt x="355" y="638" on="0"/>
        <pt x="317" y="598" on="0"/>
        <pt x="294" y="524" on="0"/>
        <pt x="284" y="417" on="0"/>
      </contour>
    </TTGlyph>
    <TTGlyph name="afii10049" xMin="42" yMin="0" xMax="500" yMax="708">
      <contour>
        <pt x="500" y="0" on="1"/>
        <pt x="417" y="0" on="1"/>
        <pt x="417" y="289" on="1"/>
        <pt x="314" y="289" on="1"/>
        <pt x="140" y="0" on="1"/>
        <pt x="42" y="0" on="1"/>
        <pt x="236" y="302" on="1"/>
        <pt x="207" y="309" on="0"/>
        <pt x="155" y="339" on="0"/>
        <pt x="115" y="387" on="0"/>
        <pt x="92" y="452" on="0"/>
        <pt x="92" y="496" on="1"/>
        <pt x="92" y="557" on="0"/>
        <pt x="133" y="638" on="0"/>
        <pt x="204" y="687" on="0"/>
        <pt x="299" y="708" on="0"/>
        <pt x="352" y="708" on="1"/>
        <pt x="386" y="708" on="0"/>
        <pt x="463" y="702" on="0"/>
        <pt x="500" y="693" on="1"/>
      </contour>
      <contour>
        <pt x="348" y="636" on="1"/>
        <pt x="315" y="636" on="0"/>
        <pt x="255" y="623" on="0"/>
        <pt x="208" y="591" on="0"/>
        <pt x="180" y="537" on="0"/>
        <pt x="180" y="496" on="1"/>
        <pt x="180" y="458" on="0"/>
        <pt x="207" y="404" on="0"/>
        <pt x="253" y="369" on="0"/>
        <pt x="314" y="353" on="0"/>
        <pt x="349" y="353" on="1"/>
        <pt x="417" y="353" on="1"/>
        <pt x="417" y="630" on="1"/>
        <pt x="403" y="633" on="0"/>
        <pt x="373" y="636" on="0"/>
      </contour>
    </TTGlyph>
    <TTGlyph name="afii10050" xMin="70" yMin="0" xMax="550" yMax="820">
      <contour>
        <pt x="70" y="700" on="1"/>
        <pt x="476" y="700" on="1"/>
        <pt x="476" y="820" on="1"/>
        <pt x="550" y="820" on="1"/>
        <pt x="550" y="626" on="1"/>
        <pt x="249" y="626" on="1"/>
        <pt x="249" y="74" on="1"/>
        <pt x="416" y="74" on="1"/>
        <pt x="416" y="0" on="1"/>
        <pt x="70" y="0" on="1"/>
        <pt x="70" y="74" on="1"/>
        <pt x="166" y="74" on="1"/>
        <pt x="166" y="626" on="1"/>
        <pt x="70" y="626" on="1"/>
      </contour>
    </TTGlyph>
    <TTGlyph name="afii10051" xMin="23" yMin="-8" xMax="587" yMax="700">
      <contour>
        <pt x="274" y="0" on="1"/>
        <pt x="191" y="0" on="1"/>
        <pt x="191" y="626" on="1"/>
        <pt x="23" y="626" on="1"/>
        <pt x="23" y="700" on="1"/>
        <pt x="472" y="700" on="1"/>
        <pt x="472" y="626" on="1"/>
        <pt x="274" y="626" on="1"/>
        <pt x="274" y="415" on="1"/>
        <pt x="286" y="419" on="0"/>
        <pt x="347" y="436" on="0"/>
        <pt x="403" y="436" on="1"/>
        <pt x="435" y="436" on="0"/>
        <pt x="501" y="417" on="0"/>
        <pt x="554" y="369" on="0"/>
        <pt x="587" y="288" on="0"/>
        <pt x="587" y="226" on="1"/>
        <pt x="587" y="105" on="0"/>
        <pt x="491" y="-8" on="0"/>
        <pt x="394" y="-8" on="1"/>
        <pt x="361" y="-8" on="0"/>
        <pt x="332" y="-7" on="0"/>
        <pt x="324" y="-5" on="1"/>
        <pt x="324" y="67" on="1"/>
        <pt x="337" y="65" on="0"/>
        <pt x="368" y="64" on="0"/>
        <pt x="397" y="64" on="1"/>
        <pt x="452" y="64" on="0"/>
        <pt x="499" y="142" on="0"/>
        <pt x="499" y="220" on="1"/>
        <pt x="499" y="262" on="0"/>
        <pt x="479" y="318" on="0"/>
        <pt x="446" y="351" on="0"/>
        <pt x="401" y="364" on="0"/>
        <pt x="377" y="364" on="1"/>
        <pt x="342" y="364" on="0"/>
        <pt x="285" y="347" on="0"/>
        <pt x="274" y="342" on="1"/>
      </contour>
    </TTGlyph>
    <TTGlyph name="afii10052" xMin="70" yMin="0" xMax="550" yMax="870">
      <component glyphName="afii10020" x="0" y="0" flags="0x204"/>
      <component glyphName="uniF6C9" x="83" y="0" flags="0x4"/>
    </TTGlyph>
    <TTGlyph name="afii10053" xMin="55" yMin="-12" xMax="544" yMax="712">
      <contour>
        <pt x="458" y="624" on="1"/>
        <pt x="441" y="631" on="0"/>
        <pt x="400" y="638" on="0"/>
        <pt x="371" y="638" on="1"/>
        <pt x="333" y="638" on="0"/>
        <pt x="257" y="613" on="0"/>
        <pt x="194" y="556" on="0"/>
        <pt x="151" y="464" on="0"/>
        <pt x="145" y="398" on="1"/>
        <pt x="451" y="398" on="1"/>
        <pt x="451" y="324" on="1"/>
        <pt x="143" y="324" on="1"/>
        <pt x="146" y="258" on="0"/>
        <pt x="185" y="160" on="0"/>
        <pt x="247" y="95" on="0"/>
        <pt x="331" y="62" on="0"/>
        <pt x="379" y="62" on="1"/>
        <pt x="405" y="62" on="0"/>
        <pt x="450" y="71" on="0"/>
        <pt x="469" y="79" on="1"/>
        <pt x="469" y="179" on="1"/>
        <pt x="543" y="179" on="1"/>
        <pt x="543" y="44" on="1"/>
        <pt x="544" y="42" on="1"/>
        <pt x="514" y="19" on="0"/>
        <pt x="422" y="-12" on="0"/>
        <pt x="356" y="-12" on="1"/>
        <pt x="293" y="-12" on="0"/>
        <pt x="183" y="31" on="0"/>
        <pt x="102" y="119" on="0"/>
        <pt x="55" y="256" on="0"/>
        <pt x="55" y="350" on="1"/>
        <pt x="55" y="448" on="0"/>
        <pt x="106" y="585" on="0"/>
        <pt x="191" y="672" on="0"/>
        <pt x="304" y="712" on="0"/>
        <pt x="366" y="712" on="1"/>
        <pt x="400" y="712" on="0"/>
        <pt x="450" y="707" on="0"/>
        <pt x="488" y="698" on="0"/>
        <pt x="517" y="684" on="0"/>
        <pt x="531" y="675" on="1"/>
        <pt x="532" y="675" on="1"/>
        <pt x="532" y="517" on="1"/>
        <pt x="458" y="517" on="1"/>
      </contour>
    </TTGlyph>
    <TTGlyph name="afii10054" xMin="75" yMin="-12" xMax="535" yMax="712">
      <component glyphName="S" x="0" y="0" flags="0x204"/>
    </TTGlyph>
    <TTGlyph name="afii10055" xMin="60" yMin="0" xMax="540" yMax="700">
      <component glyphName="I" x="0" y="0" flags="0x204"/>
    </TTGlyph>
    <TTGlyph name="afii10055.alt" xMin="60" yMin="0" xMax="540" yMax="852">
      <component glyphName="I" x="0" y="0" flags="0x204"/>
      <component glyphName="uniF40B" x="1" y="0" flags="0x4"/>
    </TTGlyph>
    <TTGlyph name="afii10056" xMin="60" yMin="0" xMax="540" yMax="852">
      <component glyphName="I" x="0" y="0" flags="0x204"/>
      <component glyphName="uniF6CB" x="0" y="0" flags="0x4"/>
    </TTGlyph>
    <TTGlyph name="afii10057" xMin="84" yMin="-10" xMax="493" yMax="700">
      <component glyphName="J" x="0" y="0" flags="0x204"/>
    </TTGlyph>
    <TTGlyph name="afii10058" xMin="1" yMin="-8" xMax="598" yMax="700">
      <contour>
        <pt x="297" y="626" on="1"/>
        <pt x="188" y="626" on="1"/>
        <pt x="182" y="426" on="0"/>
        <pt x="162" y="159" on="0"/>
        <pt x="139" y="87" on="1"/>
        <pt x="125" y="39" on="0"/>
        <pt x="73" y="-5" on="0"/>
        <pt x="44" y="-5" on="1"/>
        <pt x="21" y="-5" on="0"/>
        <pt x="1" y="5" on="1"/>
        <pt x="10" y="79" on="1"/>
        <pt x="17" y="76" on="0"/>
        <pt x="24" y="76" on="1"/>
        <pt x="37" y="76" on="0"/>
        <pt x="57" y="90" on="0"/>
        <pt x="66" y="119" on="1"/>
        <pt x="75" y="146" on="0"/>
        <pt x="90" y="239" on="0"/>
        <pt x="102" y="379" on="0"/>
        <pt x="109" y="572" on="0"/>
        <pt x="111" y="700" on="1"/>
        <pt x="377" y="700" on="1"/>
        <pt x="377" y="428" on="1"/>
        <pt x="389" y="432" on="0"/>
        <pt x="419" y="437" on="0"/>
        <pt x="434" y="437" on="1"/>
        <pt x="468" y="437" on="0"/>
        <pt x="528" y="418" on="0"/>
        <pt x="572" y="370" on="0"/>
        <pt x="598" y="289" on="0"/>
        <pt x="598" y="227" on="1"/>
        <pt x="598" y="105" on="0"/>
        <pt x="507" y="-8" on="0"/>
        <pt x="414" y="-8" on="1"/>
        <pt x="405" y="-8" on="0"/>
        <pt x="377" y="-7" on="0"/>
        <pt x="345" y="-4" on="0"/>
        <pt x="311" y="1" on="0"/>
        <pt x="297" y="5" on="1"/>
      </contour>
      <contour>
        <pt x="420" y="66" on="1"/>
        <pt x="473" y="66" on="0"/>
        <pt x="516" y="137" on="0"/>
        <pt x="516" y="220" on="1"/>
        <pt x="516" y="263" on="0"/>
        <pt x="504" y="319" on="0"/>
        <pt x="480" y="351" on="0"/>
        <pt x="444" y="363" on="0"/>
        <pt x="420" y="363" on="1"/>
        <pt x="409" y="363" on="0"/>
        <pt x="383" y="357" on="0"/>
        <pt x="377" y="354" on="1"/>
        <pt x="377" y="72" on="1"/>
        <pt x="395" y="66" on="0"/>
      </contour>
    </TTGlyph>
    <TTGlyph name="afii10059" xMin="16" yMin="-8" xMax="584" yMax="700">
      <contour>
        <pt x="273" y="331" on="1"/>
        <pt x="96" y="331" on="1"/>
        <pt x="96" y="0" on="1"/>
        <pt x="16" y="0" on="1"/>
        <pt x="16" y="700" on="1"/>
        <pt x="96" y="700" on="1"/>
        <pt x="96" y="405" on="1"/>
        <pt x="273" y="405" on="1"/>
        <pt x="273" y="700" on="1"/>
        <pt x="353" y="700" on="1"/>
        <pt x="353" y="405" on="1"/>
        <pt x="356" y="406" on="0"/>
        <pt x="373" y="409" on="0"/>
        <pt x="392" y="412" on="0"/>
        <pt x="410" y="414" on="0"/>
        <pt x="415" y="414" on="1"/>
        <pt x="450" y="414" on="0"/>
        <pt x="512" y="398" on="0"/>
        <pt x="558" y="354" on="0"/>
        <pt x="584" y="277" on="0"/>
        <pt x="584" y="216" on="1"/>
        <pt x="584" y="95" on="0"/>
        <pt x="490" y="-8" on="0"/>
        <pt x="402" y="-8" on="1"/>
        <pt x="393" y="-8" on="0"/>
        <pt x="361" y="-7" on="0"/>
        <pt x="324" y="-4" on="0"/>
        <pt x="287" y="2" on="0"/>
        <pt x="273" y="6" on="1"/>
      </contour>
      <contour>
        <pt x="409" y="66" on="1"/>
        <pt x="459" y="66" on="0"/>
        <pt x="502" y="131" on="0"/>
        <pt x="502" y="209" on="1"/>
        <pt x="502" y="251" on="0"/>
        <pt x="490" y="303" on="0"/>
        <pt x="466" y="331" on="0"/>
        <pt x="431" y="340" on="0"/>
        <pt x="409" y="340" on="1"/>
        <pt x="403" y="340" on="0"/>
        <pt x="387" y="338" on="0"/>
        <pt x="370" y="336" on="0"/>
        <pt x="356" y="332" on="0"/>
        <pt x="353" y="331" on="1"/>
        <pt x="353" y="72" on="1"/>
        <pt x="362" y="68" on="0"/>
        <pt x="395" y="66" on="0"/>
      </contour>
    </TTGlyph>
    <TTGlyph name="afii10060" xMin="18" yMin="0" xMax="582" yMax="700">
      <contour>
        <pt x="269" y="0" on="1"/>
        <pt x="186" y="0" on="1"/>
        <pt x="186" y="626" on="1"/>
        <pt x="18" y="626" on="1"/>
        <pt x="18" y="700" on="1"/>
        <pt x="467" y="700" on="1"/>
        <pt x="467" y="626" on="1"/>
        <pt x="269" y="626" on="1"/>
        <pt x="269" y="395" on="1"/>
        <pt x="282" y="402" on="0"/>
        <pt x="313" y="418" on="0"/>
        <pt x="349" y="432" on="0"/>
        <pt x="393" y="440" on="0"/>
        <pt x="421" y="440" on="1"/>
        <pt x="463" y="440" on="0"/>
        <pt x="524" y="421" on="0"/>
        <pt x="563" y="376" on="0"/>
        <pt x="582" y="300" on="0"/>
        <pt x="582" y="244" on="1"/>
        <pt x="582" y="0" on="1"/>
        <pt x="499" y="0" on="1"/>
        <pt x="499" y="229" on="1"/>
        <pt x="499" y="264" on="0"/>
        <pt x="493" y="315" on="0"/>
        <pt x="473" y="349" on="0"/>
        <pt x="436" y="366" on="0"/>
        <pt x="405" y="366" on="1"/>
        <pt x="357" y="366" on="0"/>
        <pt x="295" y="341" on="0"/>
        <pt x="269" y="320" on="1"/>
      </contour>
    </TTGlyph>
    <TTGlyph name="afii10061" xMin="85" yMin="0" xMax="595" yMax="870">
      <component glyphName="K" x="0" y="0" flags="0x204"/>
      <component glyphName="uniF6C9" x="39" y="0" flags="0x4"/>
    </TTGlyph>
    <TTGlyph name="afii10062" xMin="30" yMin="-5" xMax="570" yMax="870">
      <component glyphName="afii10037" x="0" y="0" flags="0x204"/>
      <component glyphName="uniF6D1" x="5" y="0" flags="0x4"/>
    </TTGlyph>
    <TTGlyph name="afii10065" xMin="75" yMin="-9" xMax="545" yMax="508">
      <component glyphName="a" x="0" y="0" flags="0x204"/>
    </TTGlyph>
    <TTGlyph name="afii10066" xMin="57" yMin="-12" xMax="543" yMax="725">
      <contour>
        <pt x="133" y="409" on="1"/>
        <pt x="171" y="459" on="0"/>
        <pt x="262" y="499" on="0"/>
        <pt x="330" y="499" on="1"/>
        <pt x="433" y="499" on="0"/>
        <pt x="543" y="375" on="0"/>
        <pt x="543" y="261" on="1"/>
        <pt x="543" y="129" on="0"/>
        <pt x="415" y="-12" on="0"/>
        <pt x="300" y="-12" on="1"/>
        <pt x="57" y="-12" on="0"/>
        <pt x="57" y="303" on="1"/>
        <pt x="57" y="389" on="0"/>
        <pt x="76" y="511" on="0"/>
        <pt x="112" y="595" on="0"/>
        <pt x="164" y="645" on="0"/>
        <pt x="230" y="674" on="0"/>
        <pt x="308" y="686" on="0"/>
        <pt x="353" y="690" on="1"/>
        <pt x="411" y="694" on="0"/>
        <pt x="473" y="708" on="0"/>
        <pt x="493" y="725" on="1"/>
        <pt x="505" y="656" on="1"/>
        <pt x="494" y="647" on="0"/>
        <pt x="468" y="635" on="0"/>
        <pt x="430" y="627" on="0"/>
        <pt x="379" y="621" on="0"/>
        <pt x="344" y="619" on="1"/>
        <pt x="295" y="616" on="0"/>
        <pt x="219" y="602" on="0"/>
        <pt x="166" y="559" on="0"/>
        <pt x="135" y="478" on="0"/>
        <pt x="130" y="409" on="1"/>
      </contour>
      <contour>
        <pt x="140" y="249" on="1"/>
        <pt x="140" y="212" on="0"/>
        <pt x="159" y="142" on="0"/>
        <pt x="198" y="88" on="0"/>
        <pt x="258" y="55" on="0"/>
        <pt x="300" y="55" on="1"/>
        <pt x="380" y="55" on="0"/>
        <pt x="460" y="159" on="0"/>
        <pt x="460" y="255" on="1"/>
        <pt x="460" y="292" on="0"/>
        <pt x="443" y="356" on="0"/>
        <pt x="409" y="404" on="0"/>
        <pt x="354" y="432" on="0"/>
        <pt x="317" y="432" on="1"/>
        <pt x="224" y="432" on="0"/>
        <pt x="140" y="339" on="0"/>
      </contour>
    </TTGlyph>
    <TTGlyph name="afii10067" xMin="120" yMin="-7" xMax="530" yMax="507">
      <contour>
        <pt x="120" y="499" on="1"/>
        <pt x="139" y="500" on="0"/>
        <pt x="177" y="503" on="0"/>
        <pt x="221" y="505" on="0"/>
        <pt x="272" y="507" on="0"/>
        <pt x="304" y="507" on="1"/>
        <pt x="412" y="507" on="0"/>
        <pt x="508" y="446" on="0"/>
        <pt x="508" y="385" on="1"/>
        <pt x="508" y="350" on="0"/>
        <pt x="462" y="281" on="0"/>
        <pt x="410" y="266" on="1"/>
        <pt x="410" y="262" on="1"/>
        <pt x="476" y="251" on="0"/>
        <pt x="530" y="192" on="0"/>
        <pt x="530" y="141" on="1"/>
        <pt x="530" y="63" on="0"/>
        <pt x="403" y="-7" on="0"/>
        <pt x="282" y="-7" on="1"/>
        <pt x="234" y="-7" on="0"/>
        <pt x="158" y="-2" on="0"/>
        <pt x="120" y="1" on="1"/>
      </contour>
      <contour>
        <pt x="197" y="63" on="1"/>
        <pt x="220" y="61" on="0"/>
        <pt x="266" y="59" on="0"/>
        <pt x="295" y="59" on="1"/>
        <pt x="373" y="59" on="0"/>
        <pt x="450" y="98" on="0"/>
        <pt x="450" y="146" on="1"/>
        <pt x="450" y="165" on="0"/>
        <pt x="435" y="195" on="0"/>
        <pt x="400" y="217" on="0"/>
        <pt x="344" y="229" on="0"/>
        <pt x="302" y="229" on="1"/>
        <pt x="197" y="229" on="1"/>
      </contour>
      <contour>
        <pt x="316" y="289" on="1"/>
        <pt x="336" y="289" on="0"/>
        <pt x="376" y="302" on="0"/>
        <pt x="409" y="323" on="0"/>
        <pt x="429" y="352" on="0"/>
        <pt x="429" y="368" on="1"/>
        <pt x="429" y="409" on="0"/>
        <pt x="370" y="441" on="0"/>
        <pt x="301" y="441" on="1"/>
        <pt x="263" y="441" on="0"/>
        <pt x="218" y="439" on="0"/>
        <pt x="197" y="438" on="1"/>
        <pt x="197" y="289" on="1"/>
      </contour>
    </TTGlyph>
    <TTGlyph name="afii10068" xMin="102" yMin="0" xMax="506" yMax="500">
      <contour>
        <pt x="102" y="0" on="1"/>
        <pt x="102" y="67" on="1"/>
        <pt x="166" y="67" on="1"/>
        <pt x="166" y="432" on="1"/>
        <pt x="102" y="432" on="1"/>
        <pt x="102" y="500" on="1"/>
        <pt x="506" y="500" on="1"/>
        <pt x="506" y="313" on="1"/>
        <pt x="438" y="313" on="1"/>
        <pt x="438" y="432" on="1"/>
        <pt x="244" y="432" on="1"/>
        <pt x="244" y="67" on="1"/>
        <pt x="396" y="67" on="1"/>
        <pt x="396" y="0" on="1"/>
      </contour>
    </TTGlyph>
    <TTGlyph name="afii10069" xMin="28" yMin="-120" xMax="566" yMax="500">
      <contour>
        <pt x="566" y="-120" on="1"/>
        <pt x="498" y="-120" on="1"/>
        <pt x="498" y="0" on="1"/>
        <pt x="96" y="0" on="1"/>
        <pt x="96" y="-120" on="1"/>
        <pt x="28" y="-120" on="1"/>
        <pt x="28" y="68" on="1"/>
        <pt x="84" y="68" on="1"/>
        <pt x="93" y="79" on="0"/>
        <pt x="123" y="136" on="0"/>
        <pt x="151" y="239" on="0"/>
        <pt x="173" y="392" on="0"/>
        <pt x="175" y="500" on="1"/>
        <pt x="489" y="500" on="1"/>
        <pt x="489" y="68" on="1"/>
        <pt x="566" y="68" on="1"/>
      </contour>
      <contour>
        <pt x="411" y="67" on="1"/>
        <pt x="411" y="433" on="1"/>
        <pt x="246" y="433" on="1"/>
        <pt x="244" y="390" on="0"/>
        <pt x="233" y="290" on="0"/>
        <pt x="213" y="191" on="0"/>
        <pt x="184" y="101" on="0"/>
        <pt x="165" y="67" on="1"/>
      </contour>
    </TTGlyph>
    <TTGlyph name="afii10070" xMin="63" yMin="-12" xMax="537" yMax="512">
      <component glyphName="e" x="0" y="0" flags="0x204"/>
    </TTGlyph>
    <TTGlyph name="afii10071" xMin="63" yMin="-12" xMax="537" yMax="685">
      <component glyphName="e" x="0" y="0" flags="0x204"/>
      <component glyphName="dieresis" x="0" y="-19" flags="0x4"/>
    </TTGlyph>
    <TTGlyph name="afii10072" xMin="6" yMin="0" xMax="594" yMax="500">
      <contour>
        <pt x="199" y="224" on="1"/>
        <pt x="92" y="0" on="1"/>
        <pt x="6" y="0" on="1"/>
        <pt x="134" y="256" on="1"/>
        <pt x="19" y="500" on="1"/>
        <pt x="106" y="500" on="1"/>
        <pt x="197" y="284" on="1"/>
        <pt x="260" y="284" on="1"/>
        <pt x="260" y="500" on="1"/>
        <pt x="338" y="500" on="1"/>
        <pt x="338" y="284" on="1"/>
        <pt x="392" y="284" on="1"/>
        <pt x="498" y="500" on="1"/>
        <pt x="580" y="500" on="1"/>
        <pt x="462" y="268" on="1"/>
        <pt x="594" y="0" on="1"/>
        <pt x="505" y="0" on="1"/>
        <pt x="398" y="224" on="1"/>
        <pt x="338" y="224" on="1"/>
        <pt x="338" y="0" on="1"/>
        <pt x="260" y="0" on="1"/>
        <pt x="260" y="224" on="1"/>
      </contour>
    </TTGlyph>
    <TTGlyph name="afii10073" xMin="79" yMin="-9" xMax="526" yMax="510">
      <contour>
        <pt x="107" y="453" on="1"/>
        <pt x="106" y="456" on="1"/>
        <pt x="123" y="466" on="0"/>
        <pt x="162" y="485" on="0"/>
        <pt x="211" y="500" on="0"/>
        <pt x="273" y="510" on="0"/>
        <pt x="313" y="510" on="1"/>
        <pt x="354" y="510" on="0"/>
        <pt x="424" y="493" on="0"/>
        <pt x="476" y="461" on="0"/>
        <pt x="505" y="414" on="0"/>
        <pt x="505" y="384" on="1"/>
        <pt x="505" y="368" on="0"/>
        <pt x="492" y="333" on="0"/>
        <pt x="466" y="301" on="0"/>
        <pt x="430" y="275" on="0"/>
        <pt x="407" y="268" on="1"/>
        <pt x="407" y="264" on="1"/>
        <pt x="473" y="253" on="0"/>
        <pt x="526" y="191" on="0"/>
        <pt x="526" y="140" on="1"/>
        <pt x="526" y="108" on="0"/>
        <pt x="496" y="54" on="0"/>
        <pt x="437" y="14" on="0"/>
        <pt x="350" y="-9" on="0"/>
        <pt x="292" y="-9" on="1"/>
        <pt x="249" y="-9" on="0"/>
        <pt x="179" y="7" on="0"/>
        <pt x="126" y="31" on="0"/>
        <pt x="89" y="59" on="0"/>
        <pt x="79" y="71" on="1"/>
        <pt x="119" y="134" on="1"/>
        <pt x="130" y="122" on="0"/>
        <pt x="162" y="95" on="0"/>
        <pt x="209" y="73" on="0"/>
        <pt x="270" y="58" on="0"/>
        <pt x="310" y="58" on="1"/>
        <pt x="338" y="58" on="0"/>
        <pt x="387" y="69" on="0"/>
        <pt x="424" y="90" on="0"/>
        <pt x="446" y="123" on="0"/>
        <pt x="446" y="145" on="1"/>
        <pt x="446" y="183" on="0"/>
        <pt x="377" y="223" on="0"/>
        <pt x="298" y="223" on="1"/>
        <pt x="241" y="223" on="1"/>
        <pt x="241" y="288" on="1"/>
        <pt x="312" y="288" on="1"/>
        <pt x="332" y="288" on="0"/>
        <pt x="372" y="301" on="0"/>
        <pt x="404" y="322" on="0"/>
        <pt x="424" y="351" on="0"/>
        <pt x="424" y="367" on="1"/>
        <pt x="424" y="387" on="0"/>
        <pt x="404" y="416" on="0"/>
        <pt x="369" y="434" on="0"/>
        <pt x="322" y="443" on="0"/>
        <pt x="296" y="443" on="1"/>
        <pt x="256" y="443" on="0"/>
        <pt x="196" y="428" on="0"/>
        <pt x="175" y="417" on="1"/>
        <pt x="175" y="334" on="1"/>
        <pt x="107" y="334" on="1"/>
      </contour>
    </TTGlyph>
    <TTGlyph name="afii10074" xMin="85" yMin="0" xMax="515" yMax="500">
      <contour>
        <pt x="437" y="314" on="1"/>
        <pt x="440" y="380" on="1"/>
        <pt x="437" y="380" on="1"/>
        <pt x="156" y="0" on="1"/>
        <pt x="85" y="0" on="1"/>
        <pt x="85" y="500" on="1"/>
        <pt x="163" y="500" on="1"/>
        <pt x="163" y="177" on="1"/>
        <pt x="160" y="114" on="1"/>
        <pt x="164" y="114" on="1"/>
        <pt x="443" y="500" on="1"/>
        <pt x="515" y="500" on="1"/>
        <pt x="515" y="0" on="1"/>
        <pt x="437" y="0" on="1"/>
      </contour>
    </TTGlyph>
    <TTGlyph name="afii10075" xMin="85" yMin="0" xMax="515" yMax="702">
      <component glyphName="afii10074" x="0" y="0" flags="0x204"/>
      <component glyphName="uniF6D4" x="2" y="0" flags="0x4"/>
    </TTGlyph>
    <TTGlyph name="afii10076" xMin="109" yMin="0" xMax="558" yMax="500">
      <contour>
        <pt x="241" y="226" on="1"/>
        <pt x="186" y="226" on="1"/>
        <pt x="186" y="0" on="1"/>
        <pt x="109" y="0" on="1"/>
        <pt x="109" y="500" on="1"/>
        <pt x="186" y="500" on="1"/>
        <pt x="186" y="286" on="1"/>
        <pt x="241" y="286" on="1"/>
        <pt x="438" y="500" on="1"/>
        <pt x="532" y="500" on="1"/>
        <pt x="311" y="263" on="1"/>
        <pt x="493" y="67" on="1"/>
        <pt x="558" y="67" on="1"/>
        <pt x="558" y="0" on="1"/>
        <pt x="455" y="0" on="1"/>
      </contour>
    </TTGlyph>
    <TTGlyph name="afii10077" xMin="40" yMin="-4" xMax="504" yMax="500">
      <contour>
        <pt x="426" y="432" on="1"/>
        <pt x="253" y="432" on="1"/>
        <pt x="249" y="341" on="0"/>
        <pt x="237" y="182" on="0"/>
        <pt x="204" y="64" on="0"/>
        <pt x="143" y="-4" on="0"/>
        <pt x="91" y="-4" on="1"/>
        <pt x="71" y="-4" on="0"/>
        <pt x="53" y="0" on="0"/>
        <pt x="40" y="5" on="1"/>
        <pt x="53" y="79" on="1"/>
        <pt x="72" y="74" on="0"/>
        <pt x="105" y="74" on="0"/>
        <pt x="131" y="98" on="0"/>
        <pt x="152" y="151" on="0"/>
        <pt x="167" y="248" on="0"/>
        <pt x="177" y="395" on="0"/>
        <pt x="180" y="500" on="1"/>
        <pt x="504" y="500" on="1"/>
        <pt x="504" y="0" on="1"/>
        <pt x="426" y="0" on="1"/>
      </contour>
    </TTGlyph>
    <TTGlyph name="afii10078" xMin="64" yMin="0" xMax="536" yMax="500">
      <contour>
        <pt x="458" y="297" on="1"/>
        <pt x="460" y="368" on="1"/>
        <pt x="455" y="368" on="1"/>
        <pt x="311" y="139" on="1"/>
        <pt x="283" y="139" on="1"/>
        <pt x="137" y="368" on="1"/>
        <pt x="133" y="368" on="1"/>
        <pt x="138" y="298" on="1"/>
        <pt x="138" y="0" on="1"/>
        <pt x="64" y="0" on="1"/>
        <pt x="64" y="500" on="1"/>
        <pt x="143" y="500" on="1"/>
        <pt x="302" y="249" on="1"/>
        <pt x="304" y="249" on="1"/>
        <pt x="456" y="500" on="1"/>
        <pt x="536" y="500" on="1"/>
        <pt x="536" y="0" on="1"/>
        <pt x="458" y="0" on="1"/>
      </contour>
    </TTGlyph>
    <TTGlyph name="afii10079" xMin="88" yMin="0" xMax="512" yMax="500">
      <contour>
        <pt x="434" y="222" on="1"/>
        <pt x="165" y="222" on="1"/>
        <pt x="165" y="0" on="1"/>
        <pt x="88" y="0" on="1"/>
        <pt x="88" y="500" on="1"/>
        <pt x="165" y="500" on="1"/>
        <pt x="165" y="292" on="1"/>
        <pt x="434" y="292" on="1"/>
        <pt x="434" y="500" on="1"/>
        <pt x="512" y="500" on="1"/>
        <pt x="512" y="0" on="1"/>
        <pt x="434" y="0" on="1"/>
      </contour>
    </TTGlyph>
    <TTGlyph name="afii10080" xMin="57" yMin="-12" xMax="543" yMax="512">
      <component glyphName="o" x="0" y="0" flags="0x204"/>
    </TTGlyph>
    <TTGlyph name="afii10081" xMin="92" yMin="0" xMax="508" yMax="500">
      <contour>
        <pt x="430" y="432" on="1"/>
        <pt x="169" y="432" on="1"/>
        <pt x="169" y="0" on="1"/>
        <pt x="92" y="0" on="1"/>
        <pt x="92" y="500" on="1"/>
        <pt x="508" y="500" on="1"/>
        <pt x="508" y="0" on="1"/>
        <pt x="430" y="0" on="1"/>
      </contour>
    </TTGlyph>
    <TTGlyph name="afii10082" xMin="21" yMin="-200" xMax="554" yMax="512">
      <component glyphName="p" x="0" y="0" flags="0x204"/>
    </TTGlyph>
    <TTGlyph name="afii10083" xMin="60" yMin="-12" xMax="541" yMax="512">
      <component glyphName="c" x="0" y="0" flags="0x204"/>
    </TTGlyph>
    <TTGlyph name="afii10084" xMin="52" yMin="0" xMax="548" yMax="500">
      <contour>
        <pt x="52" y="500" on="1"/>
        <pt x="548" y="500" on="1"/>
        <pt x="548" y="313" on="1"/>
        <pt x="480" y="313" on="1"/>
        <pt x="480" y="432" on="1"/>
        <pt x="339" y="432" on="1"/>
        <pt x="339" y="67" on="1"/>
        <pt x="460" y="67" on="1"/>
        <pt x="460" y="0" on="1"/>
        <pt x="136" y="0" on="1"/>
        <pt x="136" y="67" on="1"/>
        <pt x="261" y="67" on="1"/>
        <pt x="261" y="432" on="1"/>
        <pt x="120" y="432" on="1"/>
        <pt x="120" y="313" on="1"/>
        <pt x="52" y="313" on="1"/>
      </contour>
    </TTGlyph>
    <TTGlyph name="afii10085" xMin="46" yMin="-205" xMax="554" yMax="500">
      <component glyphName="y" x="0" y="0" flags="0x204"/>
    </TTGlyph>
    <TTGlyph name="afii10086" xMin="24" yMin="-200" xMax="576" yMax="700">
      <contour>
        <pt x="184" y="700" on="1"/>
        <pt x="338" y="700" on="1"/>
        <pt x="338" y="503" on="1"/>
        <pt x="356" y="506" on="0"/>
        <pt x="384" y="508" on="0"/>
        <pt x="397" y="508" on="1"/>
        <pt x="488" y="508" on="0"/>
        <pt x="576" y="393" on="0"/>
        <pt x="576" y="260" on="1"/>
        <pt x="576" y="134" on="0"/>
        <pt x="483" y="-12" on="0"/>
        <pt x="393" y="-12" on="1"/>
        <pt x="384" y="-12" on="0"/>
        <pt x="349" y="-9" on="0"/>
        <pt x="338" y="-5" on="1"/>
        <pt x="338" y="-200" on="1"/>
        <pt x="262" y="-200" on="1"/>
        <pt x="262" y="-4" on="1"/>
        <pt x="245" y="-10" on="0"/>
        <pt x="208" y="-12" on="0"/>
        <pt x="193" y="-12" on="1"/>
        <pt x="109" y="-12" on="0"/>
        <pt x="24" y="116" on="0"/>
        <pt x="24" y="250" on="1"/>
        <pt x="24" y="378" on="0"/>
        <pt x="120" y="508" on="0"/>
        <pt x="214" y="508" on="1"/>
        <pt x="242" y="508" on="0"/>
        <pt x="262" y="504" on="1"/>
        <pt x="262" y="633" on="1"/>
        <pt x="184" y="633" on="1"/>
      </contour>
      <contour>
        <pt x="382" y="442" on="1"/>
        <pt x="370" y="442" on="0"/>
        <pt x="351" y="441" on="0"/>
        <pt x="337" y="437" on="1"/>
        <pt x="337" y="57" on="1"/>
        <pt x="347" y="55" on="0"/>
        <pt x="372" y="54" on="0"/>
        <pt x="387" y="54" on="1"/>
        <pt x="444" y="54" on="0"/>
        <pt x="496" y="160" on="0"/>
        <pt x="496" y="260" on="1"/>
        <pt x="496" y="302" on="0"/>
        <pt x="486" y="370" on="0"/>
        <pt x="460" y="417" on="0"/>
        <pt x="416" y="442" on="0"/>
      </contour>
      <contour>
        <pt x="213" y="54" on="1"/>
        <pt x="225" y="54" on="0"/>
        <pt x="249" y="56" on="0"/>
        <pt x="263" y="59" on="1"/>
        <pt x="263" y="438" on="1"/>
        <pt x="251" y="440" on="0"/>
        <pt x="230" y="442" on="0"/>
        <pt x="215" y="442" on="1"/>
        <pt x="161" y="442" on="0"/>
        <pt x="104" y="349" on="0"/>
        <pt x="104" y="250" on="1"/>
        <pt x="104" y="208" on="0"/>
        <pt x="116" y="136" on="0"/>
        <pt x="142" y="83" on="0"/>
        <pt x="183" y="54" on="0"/>
      </contour>
    </TTGlyph>
    <TTGlyph name="afii10087" xMin="46" yMin="0" xMax="554" yMax="500">
      <component glyphName="x" x="0" y="0" flags="0x204"/>
    </TTGlyph>
    <TTGlyph name="afii10088" xMin="90" yMin="-120" xMax="585" yMax="500">
      <contour>
        <pt x="585" y="-120" on="1"/>
        <pt x="517" y="-120" on="1"/>
        <pt x="517" y="0" on="1"/>
        <pt x="90" y="0" on="1"/>
        <pt x="90" y="500" on="1"/>
        <pt x="167" y="500" on="1"/>
        <pt x="167" y="68" on="1"/>
        <pt x="425" y="68" on="1"/>
        <pt x="425" y="500" on="1"/>
        <pt x="503" y="500" on="1"/>
        <pt x="503" y="68" on="1"/>
        <pt x="585" y="68" on="1"/>
      </contour>
    </TTGlyph>
    <TTGlyph name="afii10089" xMin="90" yMin="0" xMax="488" yMax="500">
      <contour>
        <pt x="167" y="500" on="1"/>
        <pt x="167" y="367" on="1"/>
        <pt x="167" y="340" on="0"/>
        <pt x="174" y="294" on="0"/>
        <pt x="196" y="261" on="0"/>
        <pt x="236" y="243" on="0"/>
        <pt x="269" y="243" on="1"/>
        <pt x="323" y="243" on="0"/>
        <pt x="393" y="266" on="0"/>
        <pt x="410" y="279" on="1"/>
        <pt x="410" y="500" on="1"/>
        <pt x="488" y="500" on="1"/>
        <pt x="488" y="0" on="1"/>
        <pt x="410" y="0" on="1"/>
        <pt x="410" y="212" on="1"/>
        <pt x="392" y="201" on="0"/>
        <pt x="319" y="176" on="0"/>
        <pt x="256" y="176" on="1"/>
        <pt x="214" y="176" on="0"/>
        <pt x="152" y="193" on="0"/>
        <pt x="111" y="236" on="0"/>
        <pt x="90" y="307" on="0"/>
        <pt x="90" y="361" on="1"/>
        <pt x="90" y="500" on="1"/>
      </contour>
    </TTGlyph>
    <TTGlyph name="afii10090" xMin="55" yMin="0" xMax="545" yMax="500">
      <contour>
        <pt x="55" y="0" on="1"/>
        <pt x="55" y="500" on="1"/>
        <pt x="129" y="500" on="1"/>
        <pt x="129" y="70" on="1"/>
        <pt x="263" y="70" on="1"/>
        <pt x="263" y="500" on="1"/>
        <pt x="337" y="500" on="1"/>
        <pt x="337" y="70" on="1"/>
        <pt x="471" y="70" on="1"/>
        <pt x="471" y="500" on="1"/>
        <pt x="545" y="500" on="1"/>
        <pt x="545" y="0" on="1"/>
      </contour>
    </TTGlyph>
    <TTGlyph name="afii10091" xMin="68" yMin="-120" xMax="592" yMax="500">
      <contour>
        <pt x="592" y="-120" on="1"/>
        <pt x="524" y="-120" on="1"/>
        <pt x="524" y="0" on="1"/>
        <pt x="68" y="0" on="1"/>
        <pt x="68" y="500" on="1"/>
        <pt x="142" y="500" on="1"/>
        <pt x="142" y="70" on="1"/>
        <pt x="262" y="70" on="1"/>
        <pt x="262" y="500" on="1"/>
        <pt x="336" y="500" on="1"/>
        <pt x="336" y="70" on="1"/>
        <pt x="456" y="70" on="1"/>
        <pt x="456" y="500" on="1"/>
        <pt x="530" y="500" on="1"/>
        <pt x="530" y="70" on="1"/>
        <pt x="592" y="70" on="1"/>
      </contour>
    </TTGlyph>
    <TTGlyph name="afii10092" xMin="44" yMin="-6" xMax="556" yMax="500">
      <contour>
        <pt x="245" y="67" on="1"/>
        <pt x="291" y="61" on="0"/>
        <pt x="328" y="61" on="1"/>
        <pt x="403" y="61" on="0"/>
        <pt x="473" y="114" on="0"/>
        <pt x="473" y="157" on="1"/>
        <pt x="473" y="195" on="0"/>
        <pt x="405" y="249" on="0"/>
        <pt x="332" y="249" on="1"/>
        <pt x="313" y="249" on="0"/>
        <pt x="266" y="247" on="0"/>
        <pt x="245" y="242" on="1"/>
      </contour>
      <contour>
        <pt x="245" y="307" on="1"/>
        <pt x="272" y="311" on="0"/>
        <pt x="321" y="314" on="0"/>
        <pt x="344" y="314" on="1"/>
        <pt x="402" y="314" on="0"/>
        <pt x="483" y="291" on="0"/>
        <pt x="533" y="251" on="0"/>
        <pt x="556" y="198" on="0"/>
        <pt x="556" y="167" on="1"/>
        <pt x="556" y="76" on="0"/>
        <pt x="433" y="-6" on="0"/>
        <pt x="308" y="-6" on="1"/>
        <pt x="244" y="-6" on="0"/>
        <pt x="168" y="0" on="1"/>
        <pt x="168" y="432" on="1"/>
        <pt x="44" y="432" on="1"/>
        <pt x="44" y="500" on="1"/>
        <pt x="245" y="500" on="1"/>
      </contour>
    </TTGlyph>
    <TTGlyph name="afii10093" xMin="47" yMin="-6" xMax="553" yMax="500">
      <contour>
        <pt x="127" y="70" on="1"/>
        <pt x="164" y="64" on="0"/>
        <pt x="198" y="64" on="1"/>
        <pt x="261" y="64" on="0"/>
        <pt x="311" y="113" on="0"/>
        <pt x="311" y="158" on="1"/>
        <pt x="311" y="198" on="0"/>
        <pt x="262" y="250" on="0"/>
        <pt x="201" y="250" on="1"/>
        <pt x="184" y="250" on="0"/>
        <pt x="144" y="248" on="0"/>
        <pt x="127" y="243" on="1"/>
      </contour>
      <contour>
        <pt x="127" y="309" on="1"/>
        <pt x="151" y="313" on="0"/>
        <pt x="195" y="316" on="0"/>
        <pt x="215" y="316" on="1"/>
        <pt x="266" y="316" on="0"/>
        <pt x="335" y="293" on="0"/>
        <pt x="377" y="253" on="0"/>
        <pt x="394" y="198" on="0"/>
        <pt x="394" y="167" on="1"/>
        <pt x="394" y="76" on="0"/>
        <pt x="293" y="-6" on="0"/>
        <pt x="180" y="-6" on="1"/>
        <pt x="116" y="-6" on="0"/>
        <pt x="47" y="0" on="1"/>
        <pt x="47" y="500" on="1"/>
        <pt x="127" y="500" on="1"/>
      </contour>
      <contour>
        <pt x="473" y="500" on="1"/>
        <pt x="553" y="500" on="1"/>
        <pt x="553" y="0" on="1"/>
        <pt x="473" y="0" on="1"/>
      </contour>
    </TTGlyph>
    <TTGlyph name="afii10094" xMin="112" yMin="-6" xMax="530" yMax="500">
      <contour>
        <pt x="189" y="69" on="1"/>
        <pt x="200" y="67" on="0"/>
        <pt x="231" y="65" on="0"/>
        <pt x="263" y="62" on="0"/>
        <pt x="293" y="61" on="0"/>
        <pt x="302" y="61" on="1"/>
        <pt x="377" y="61" on="0"/>
        <pt x="447" y="114" on="0"/>
        <pt x="447" y="157" on="1"/>
        <pt x="447" y="195" on="0"/>
        <pt x="379" y="249" on="0"/>
        <pt x="306" y="249" on="1"/>
        <pt x="273" y="249" on="0"/>
        <pt x="210" y="247" on="0"/>
        <pt x="189" y="242" on="1"/>
      </contour>
      <contour>
        <pt x="189" y="307" on="1"/>
        <pt x="216" y="311" on="0"/>
        <pt x="277" y="314" on="0"/>
        <pt x="317" y="314" on="1"/>
        <pt x="375" y="314" on="0"/>
        <pt x="456" y="291" on="0"/>
        <pt x="507" y="251" on="0"/>
        <pt x="530" y="198" on="0"/>
        <pt x="530" y="167" on="1"/>
        <pt x="530" y="76" on="0"/>
        <pt x="407" y="-6" on="0"/>
        <pt x="281" y="-6" on="1"/>
        <pt x="265" y="-6" on="0"/>
        <pt x="222" y="-4" on="0"/>
        <pt x="177" y="-1" on="0"/>
        <pt x="131" y="2" on="0"/>
        <pt x="112" y="4" on="1"/>
        <pt x="112" y="500" on="1"/>
        <pt x="189" y="500" on="1"/>
      </contour>
    </TTGlyph>
    <TTGlyph name="afii10095" xMin="75" yMin="-12" xMax="541" yMax="512">
      <contour>
        <pt x="101" y="475" on="1"/>
        <pt x="103" y="475" on="1"/>
        <pt x="138" y="493" on="0"/>
        <pt x="228" y="512" on="0"/>
        <pt x="290" y="512" on="1"/>
        <pt x="347" y="512" on="0"/>
        <pt x="439" y="475" on="0"/>
        <pt x="505" y="407" on="0"/>
        <pt x="541" y="310" on="0"/>
        <pt x="541" y="250" on="1"/>
        <pt x="541" y="188" on="0"/>
        <pt x="501" y="90" on="0"/>
        <pt x="429" y="23" on="0"/>
        <pt x="332" y="-12" on="0"/>
        <pt x="275" y="-12" on="1"/>
        <pt x="249" y="-12" on="0"/>
        <pt x="191" y="-2" on="0"/>
        <pt x="136" y="15" on="0"/>
        <pt x="90" y="40" on="0"/>
        <pt x="75" y="55" on="1"/>
        <pt x="108" y="117" on="1"/>
        <pt x="137" y="96" on="0"/>
        <pt x="223" y="58" on="0"/>
        <pt x="277" y="58" on="1"/>
        <pt x="309" y="58" on="0"/>
        <pt x="375" y="77" on="0"/>
        <pt x="428" y="117" on="0"/>
        <pt x="461" y="178" on="0"/>
        <pt x="461" y="219" on="1"/>
        <pt x="224" y="219" on="1"/>
        <pt x="224" y="285" on="1"/>
        <pt x="460" y="285" on="1"/>
        <pt x="457" y="319" on="0"/>
        <pt x="429" y="378" on="0"/>
        <pt x="380" y="421" on="0"/>
        <pt x="311" y="445" on="0"/>
        <pt x="268" y="445" on="1"/>
        <pt x="239" y="445" on="0"/>
        <pt x="189" y="436" on="0"/>
        <pt x="169" y="428" on="1"/>
        <pt x="169" y="353" on="1"/>
        <pt x="101" y="353" on="1"/>
      </contour>
    </TTGlyph>
    <TTGlyph name="afii10096" xMin="49" yMin="-12" xMax="562" yMax="512">
      <contour>
        <pt x="387" y="-12" on="1"/>
        <pt x="337" y="-12" on="0"/>
        <pt x="270" y="21" on="0"/>
        <pt x="230" y="82" on="0"/>
        <pt x="212" y="168" on="0"/>
        <pt x="210" y="221" on="1"/>
        <pt x="129" y="221" on="1"/>
        <pt x="129" y="0" on="1"/>
        <pt x="49" y="0" on="1"/>
        <pt x="49" y="500" on="1"/>
        <pt x="129" y="500" on="1"/>
        <pt x="129" y="291" on="1"/>
        <pt x="211" y="291" on="1"/>
        <pt x="214" y="345" on="0"/>
        <pt x="236" y="427" on="0"/>
        <pt x="278" y="483" on="0"/>
        <pt x="343" y="512" on="0"/>
        <pt x="389" y="512" on="1"/>
        <pt x="440" y="512" on="0"/>
        <pt x="507" y="475" on="0"/>
        <pt x="546" y="406" on="0"/>
        <pt x="562" y="309" on="0"/>
        <pt x="562" y="250" on="1"/>
        <pt x="562" y="124" on="0"/>
        <pt x="483" y="-12" on="0"/>
      </contour>
      <contour>
        <pt x="288" y="250" on="1"/>
        <pt x="288" y="211" on="0"/>
        <pt x="294" y="141" on="0"/>
        <pt x="314" y="89" on="0"/>
        <pt x="354" y="58" on="0"/>
        <pt x="389" y="58" on="1"/>
        <pt x="417" y="58" on="0"/>
        <pt x="453" y="81" on="0"/>
        <pt x="472" y="128" on="0"/>
        <pt x="479" y="200" on="0"/>
        <pt x="479" y="250" on="1"/>
        <pt x="479" y="289" on="0"/>
        <pt x="474" y="359" on="0"/>
        <pt x="456" y="411" on="0"/>
        <pt x="419" y="442" on="0"/>
        <pt x="388" y="442" on="1"/>
        <pt x="357" y="442" on="0"/>
        <pt x="318" y="419" on="0"/>
        <pt x="296" y="372" on="0"/>
        <pt x="288" y="299" on="0"/>
      </contour>
    </TTGlyph>
    <TTGlyph name="afii10097" xMin="64" yMin="0" xMax="488" yMax="513">
      <contour>
        <pt x="410" y="195" on="1"/>
        <pt x="290" y="195" on="1"/>
        <pt x="164" y="0" on="1"/>
        <pt x="64" y="0" on="1"/>
        <pt x="64" y="67" on="1"/>
        <pt x="116" y="67" on="1"/>
        <pt x="207" y="203" on="1"/>
        <pt x="188" y="208" on="0"/>
        <pt x="152" y="231" on="0"/>
        <pt x="123" y="266" on="0"/>
        <pt x="106" y="313" on="0"/>
        <pt x="106" y="342" on="1"/>
        <pt x="106" y="387" on="0"/>
        <pt x="142" y="452" on="0"/>
        <pt x="206" y="494" on="0"/>
        <pt x="294" y="513" on="0"/>
        <pt x="347" y="513" on="1"/>
        <pt x="385" y="513" on="0"/>
        <pt x="453" y="502" on="0"/>
        <pt x="488" y="496" on="1"/>
        <pt x="488" y="0" on="1"/>
        <pt x="410" y="0" on="1"/>
      </contour>
      <contour>
        <pt x="410" y="255" on="1"/>
        <pt x="410" y="433" on="1"/>
        <pt x="396" y="438" on="0"/>
        <pt x="358" y="446" on="0"/>
        <pt x="344" y="446" on="1"/>
        <pt x="268" y="446" on="0"/>
        <pt x="188" y="399" on="0"/>
        <pt x="188" y="348" on="1"/>
        <pt x="188" y="307" on="0"/>
        <pt x="236" y="262" on="0"/>
        <pt x="270" y="255" on="1"/>
      </contour>
    </TTGlyph>
    <TTGlyph name="afii10098" xMin="102" yMin="0" xMax="506" yMax="620">
      <contour>
        <pt x="102" y="0" on="1"/>
        <pt x="102" y="67" on="1"/>
        <pt x="166" y="67" on="1"/>
        <pt x="166" y="432" on="1"/>
        <pt x="102" y="432" on="1"/>
        <pt x="102" y="500" on="1"/>
        <pt x="438" y="500" on="1"/>
        <pt x="438" y="620" on="1"/>
        <pt x="506" y="620" on="1"/>
        <pt x="506" y="432" on="1"/>
        <pt x="244" y="432" on="1"/>
        <pt x="244" y="67" on="1"/>
        <pt x="396" y="67" on="1"/>
        <pt x="396" y="0" on="1"/>
      </contour>
    </TTGlyph>
    <TTGlyph name="afii10099" xMin="59" yMin="-212" xMax="540" yMax="700">
      <contour>
        <pt x="59" y="500" on="1"/>
        <pt x="139" y="500" on="1"/>
        <pt x="139" y="700" on="1"/>
        <pt x="219" y="700" on="1"/>
        <pt x="219" y="500" on="1"/>
        <pt x="379" y="500" on="1"/>
        <pt x="379" y="440" on="1"/>
        <pt x="219" y="440" on="1"/>
        <pt x="219" y="292" on="1"/>
        <pt x="223" y="292" on="1"/>
        <pt x="249" y="323" on="0"/>
        <pt x="322" y="360" on="0"/>
        <pt x="376" y="360" on="1"/>
        <pt x="418" y="360" on="0"/>
        <pt x="480" y="341" on="0"/>
        <pt x="521" y="293" on="0"/>
        <pt x="540" y="212" on="0"/>
        <pt x="540" y="150" on="1"/>
        <pt x="540" y="-27" on="1"/>
        <pt x="540" y="-120" on="0"/>
        <pt x="476" y="-212" on="0"/>
        <pt x="406" y="-212" on="1"/>
        <pt x="398" y="-212" on="0"/>
        <pt x="384" y="-211" on="0"/>
        <pt x="376" y="-210" on="1"/>
        <pt x="376" y="-142" on="1"/>
        <pt x="404" y="-142" on="0"/>
        <pt x="437" y="-125" on="0"/>
        <pt x="455" y="-90" on="0"/>
        <pt x="460" y="-36" on="0"/>
        <pt x="460" y="0" on="1"/>
        <pt x="460" y="132" on="1"/>
        <pt x="460" y="171" on="0"/>
        <pt x="451" y="231" on="0"/>
        <pt x="427" y="270" on="0"/>
        <pt x="386" y="290" on="0"/>
        <pt x="353" y="290" on="1"/>
        <pt x="306" y="290" on="0"/>
        <pt x="230" y="229" on="0"/>
        <pt x="219" y="181" on="1"/>
        <pt x="219" y="0" on="1"/>
        <pt x="139" y="0" on="1"/>
        <pt x="139" y="440" on="1"/>
        <pt x="59" y="440" on="1"/>
      </contour>
    </TTGlyph>
    <TTGlyph name="afii10100" xMin="102" yMin="0" xMax="506" yMax="720">
      <component glyphName="afii10068" x="0" y="0" flags="0x204"/>
      <component glyphName="acute" x="58" y="0" flags="0x4"/>
    </TTGlyph>
    <TTGlyph name="afii10101" xMin="60" yMin="-12" xMax="541" yMax="512">
      <contour>
        <pt x="439" y="423" on="1"/>
        <pt x="416" y="431" on="0"/>
        <pt x="363" y="442" on="0"/>
        <pt x="337" y="442" on="1"/>
        <pt x="239" y="442" on="0"/>
        <pt x="191" y="396" on="1"/>
        <pt x="152" y="358" on="0"/>
        <pt x="145" y="286" on="1"/>
        <pt x="372" y="286" on="1"/>
        <pt x="372" y="220" on="1"/>
        <pt x="144" y="220" on="1"/>
        <pt x="148" y="193" on="0"/>
        <pt x="157" y="171" on="1"/>
        <pt x="171" y="137" on="0"/>
        <pt x="223" y="89" on="0"/>
        <pt x="296" y="63" on="0"/>
        <pt x="340" y="63" on="1"/>
        <pt x="387" y="63" on="0"/>
        <pt x="476" y="95" on="0"/>
        <pt x="506" y="121" on="1"/>
        <pt x="541" y="63" on="1"/>
        <pt x="527" y="51" on="0"/>
        <pt x="485" y="25" on="0"/>
        <pt x="430" y="2" on="0"/>
        <pt x="363" y="-12" on="0"/>
        <pt x="324" y="-12" on="1"/>
        <pt x="259" y="-12" on="0"/>
        <pt x="160" y="25" on="0"/>
        <pt x="94" y="94" on="0"/>
        <pt x="60" y="191" on="0"/>
        <pt x="60" y="250" on="1"/>
        <pt x="60" y="313" on="0"/>
        <pt x="95" y="411" on="0"/>
        <pt x="161" y="477" on="0"/>
        <pt x="255" y="512" on="0"/>
        <pt x="313" y="512" on="1"/>
        <pt x="387" y="512" on="0"/>
        <pt x="480" y="486" on="0"/>
        <pt x="512" y="470" on="1"/>
        <pt x="511" y="467" on="1"/>
        <pt x="511" y="328" on="1"/>
        <pt x="439" y="328" on="1"/>
      </contour>
    </TTGlyph>
    <TTGlyph name="afii10102" xMin="84" yMin="-12" xMax="516" yMax="512">
      <component glyphName="s" x="0" y="0" flags="0x204"/>
    </TTGlyph>
    <TTGlyph name="afii10103" xMin="105" yMin="0" xMax="529" yMax="708">
      <component glyphName="i" x="0" y="0" flags="0x204"/>
    </TTGlyph>
    <TTGlyph name="afii10103.alt" xMin="105" yMin="0" xMax="529" yMax="500">
      <component glyphName="dotlessi" x="0" y="0" flags="0x204"/>
    </TTGlyph>
    <TTGlyph name="afii10104" xMin="105" yMin="0" xMax="529" yMax="704">
      <component glyphName="dotlessi" x="0" y="0" flags="0x204"/>
      <component glyphName="dieresis" x="0" y="0" flags="0x4"/>
    </TTGlyph>
    <TTGlyph name="afii10105" xMin="59" yMin="-212" xMax="426" yMax="708">
      <component glyphName="j" x="0" y="0" flags="0x204"/>
    </TTGlyph>
    <TTGlyph name="afii10106" xMin="6" yMin="-6" xMax="584" yMax="500">
      <contour>
        <pt x="372" y="309" on="1"/>
        <pt x="389" y="313" on="0"/>
        <pt x="425" y="316" on="0"/>
        <pt x="445" y="316" on="1"/>
        <pt x="483" y="316" on="0"/>
        <pt x="536" y="293" on="0"/>
        <pt x="569" y="253" on="0"/>
        <pt x="584" y="198" on="0"/>
        <pt x="584" y="167" on="1"/>
        <pt x="584" y="76" on="0"/>
        <pt x="491" y="-6" on="0"/>
        <pt x="410" y="-6" on="1"/>
        <pt x="377" y="-6" on="0"/>
        <pt x="324" y="-3" on="0"/>
        <pt x="297" y="0" on="1"/>
        <pt x="297" y="430" on="1"/>
        <pt x="199" y="430" on="1"/>
        <pt x="197" y="391" on="0"/>
        <pt x="191" y="296" on="0"/>
        <pt x="181" y="200" on="0"/>
        <pt x="163" y="109" on="0"/>
        <pt x="132" y="39" on="0"/>
        <pt x="87" y="-4" on="0"/>
        <pt x="54" y="-4" on="1"/>
        <pt x="35" y="-4" on="0"/>
        <pt x="17" y="0" on="0"/>
        <pt x="6" y="5" on="1"/>
        <pt x="18" y="72" on="1"/>
        <pt x="30" y="68" on="0"/>
        <pt x="41" y="68" on="1"/>
        <pt x="59" y="68" on="0"/>
        <pt x="88" y="102" on="0"/>
        <pt x="110" y="197" on="0"/>
        <pt x="126" y="365" on="0"/>
        <pt x="129" y="500" on="1"/>
        <pt x="372" y="500" on="1"/>
      </contour>
      <contour>
        <pt x="372" y="69" on="1"/>
        <pt x="394" y="63" on="0"/>
        <pt x="428" y="63" on="1"/>
        <pt x="471" y="63" on="0"/>
        <pt x="506" y="113" on="0"/>
        <pt x="506" y="158" on="1"/>
        <pt x="506" y="198" on="0"/>
        <pt x="475" y="250" on="0"/>
        <pt x="431" y="250" on="1"/>
        <pt x="414" y="250" on="0"/>
        <pt x="382" y="248" on="0"/>
        <pt x="372" y="243" on="1"/>
      </contour>
    </TTGlyph>
    <TTGlyph name="afii10107" xMin="19" yMin="-6" xMax="592" yMax="500">
      <contour>
        <pt x="345" y="69" on="1"/>
        <pt x="354" y="68" on="0"/>
        <pt x="389" y="64" on="0"/>
        <pt x="406" y="64" on="1"/>
        <pt x="462" y="64" on="0"/>
        <pt x="509" y="113" on="0"/>
        <pt x="509" y="158" on="1"/>
        <pt x="509" y="198" on="0"/>
        <pt x="463" y="250" on="0"/>
        <pt x="409" y="250" on="1"/>
        <pt x="392" y="250" on="0"/>
        <pt x="354" y="245" on="0"/>
        <pt x="345" y="243" on="1"/>
      </contour>
      <contour>
        <pt x="345" y="309" on="1"/>
        <pt x="357" y="311" on="0"/>
        <pt x="403" y="316" on="0"/>
        <pt x="423" y="316" on="1"/>
        <pt x="471" y="316" on="0"/>
        <pt x="536" y="293" on="0"/>
        <pt x="575" y="253" on="0"/>
        <pt x="592" y="198" on="0"/>
        <pt x="592" y="167" on="1"/>
        <pt x="592" y="76" on="0"/>
        <pt x="495" y="-6" on="0"/>
        <pt x="388" y="-6" on="1"/>
        <pt x="355" y="-6" on="0"/>
        <pt x="287" y="-3" on="0"/>
        <pt x="265" y="0" on="1"/>
        <pt x="265" y="223" on="1"/>
        <pt x="99" y="223" on="1"/>
        <pt x="99" y="0" on="1"/>
        <pt x="19" y="0" on="1"/>
        <pt x="19" y="500" on="1"/>
        <pt x="99" y="500" on="1"/>
        <pt x="99" y="293" on="1"/>
        <pt x="265" y="293" on="1"/>
        <pt x="265" y="500" on="1"/>
        <pt x="345" y="500" on="1"/>
      </contour>
    </TTGlyph>
    <TTGlyph name="afii10108" xMin="59" yMin="0" xMax="540" yMax="700">
      <contour>
        <pt x="59" y="500" on="1"/>
        <pt x="139" y="500" on="1"/>
        <pt x="139" y="700" on="1"/>
        <pt x="219" y="700" on="1"/>
        <pt x="219" y="500" on="1"/>
        <pt x="379" y="500" on="1"/>
        <pt x="379" y="440" on="1"/>
        <pt x="219" y="440" on="1"/>
        <pt x="219" y="292" on="1"/>
        <pt x="223" y="292" on="1"/>
        <pt x="249" y="323" on="0"/>
        <pt x="322" y="360" on="0"/>
        <pt x="376" y="360" on="1"/>
        <pt x="418" y="360" on="0"/>
        <pt x="480" y="341" on="0"/>
        <pt x="521" y="293" on="0"/>
        <pt x="540" y="212" on="0"/>
        <pt x="540" y="150" on="1"/>
        <pt x="540" y="0" on="1"/>
        <pt x="460" y="0" on="1"/>
        <pt x="460" y="132" on="1"/>
        <pt x="460" y="171" on="0"/>
        <pt x="451" y="231" on="0"/>
        <pt x="427" y="270" on="0"/>
        <pt x="386" y="290" on="0"/>
        <pt x="353" y="290" on="1"/>
        <pt x="306" y="290" on="0"/>
        <pt x="230" y="229" on="0"/>
        <pt x="219" y="181" on="1"/>
        <pt x="219" y="0" on="1"/>
        <pt x="139" y="0" on="1"/>
        <pt x="139" y="440" on="1"/>
        <pt x="59" y="440" on="1"/>
      </contour>
    </TTGlyph>
    <TTGlyph name="afii10109" xMin="109" yMin="0" xMax="558" yMax="720">
      <component glyphName="afii10076" x="0" y="0" flags="0x204"/>
      <component glyphName="acute" x="39" y="0" flags="0x4"/>
    </TTGlyph>
    <TTGlyph name="afii10110" xMin="46" yMin="-205" xMax="554" yMax="702">
      <component glyphName="y" x="0" y="0" flags="0x204"/>
      <component glyphName="uniF6D4" x="13" y="0" flags="0x4"/>
    </TTGlyph>
    <TTGlyph name="afii10145" xMin="75" yMin="-181" xMax="524" yMax="700">
      <contour>
        <pt x="75" y="0" on="1"/>
        <pt x="75" y="700" on="1"/>
        <pt x="158" y="700" on="1"/>
        <pt x="158" y="74" on="1"/>
        <pt x="441" y="74" on="1"/>
        <pt x="441" y="700" on="1"/>
        <pt x="524" y="700" on="1"/>
        <pt x="524" y="0" on="1"/>
        <pt x="336" y="0" on="1"/>
        <pt x="336" y="-181" on="1"/>
        <pt x="266" y="-181" on="1"/>
        <pt x="266" y="0" on="1"/>
      </contour>
    </TTGlyph>
    <TTGlyph name="afii10146" xMin="7" yMin="-8" xMax="592" yMax="721">
      <contour>
        <pt x="7" y="620" on="1"/>
        <pt x="156" y="620" on="1"/>
        <pt x="156" y="721" on="1"/>
        <pt x="239" y="721" on="1"/>
        <pt x="239" y="620" on="1"/>
        <pt x="446" y="620" on="1"/>
        <pt x="446" y="550" on="1"/>
        <pt x="239" y="550" on="1"/>
        <pt x="239" y="427" on="1"/>
        <pt x="244" y="428" on="0"/>
        <pt x="268" y="431" on="0"/>
        <pt x="296" y="433" on="0"/>
        <pt x="326" y="435" on="0"/>
        <pt x="338" y="435" on="1"/>
        <pt x="386" y="435" on="0"/>
        <pt x="477" y="416" on="0"/>
        <pt x="548" y="369" on="0"/>
        <pt x="592" y="288" on="0"/>
        <pt x="592" y="226" on="1"/>
        <pt x="592" y="166" on="0"/>
        <pt x="550" y="78" on="0"/>
        <pt x="476" y="20" on="0"/>
        <pt x="377" y="-8" on="0"/>
        <pt x="319" y="-8" on="1"/>
        <pt x="305" y="-8" on="0"/>
        <pt x="265" y="-7" on="0"/>
        <pt x="220" y="-4" on="0"/>
        <pt x="175" y="2" on="0"/>
        <pt x="156" y="7" on="1"/>
        <pt x="156" y="550" on="1"/>
        <pt x="7" y="550" on="1"/>
      </contour>
      <contour>
        <pt x="330" y="64" on="1"/>
        <pt x="366" y="64" on="0"/>
        <pt x="429" y="83" on="0"/>
        <pt x="477" y="122" on="0"/>
        <pt x="504" y="181" on="0"/>
        <pt x="504" y="220" on="1"/>
        <pt x="504" y="262" on="0"/>
        <pt x="474" y="318" on="0"/>
        <pt x="425" y="350" on="0"/>
        <pt x="361" y="363" on="0"/>
        <pt x="327" y="363" on="1"/>
        <pt x="318" y="363" on="0"/>
        <pt x="292" y="361" on="0"/>
        <pt x="266" y="359" on="0"/>
        <pt x="244" y="355" on="0"/>
        <pt x="239" y="354" on="1"/>
        <pt x="239" y="70" on="1"/>
        <pt x="253" y="67" on="0"/>
        <pt x="305" y="64" on="0"/>
      </contour>
    </TTGlyph>
    <TTGlyph name="afii10147" xMin="48" yMin="-12" xMax="552" yMax="712">
      <contour>
        <pt x="48" y="350" on="1"/>
        <pt x="48" y="524" on="0"/>
        <pt x="171" y="712" on="0"/>
        <pt x="299" y="712" on="1"/>
        <pt x="369" y="712" on="0"/>
        <pt x="466" y="660" on="0"/>
        <pt x="526" y="565" on="0"/>
        <pt x="552" y="432" on="0"/>
        <pt x="552" y="350" on="1"/>
        <pt x="552" y="176" on="0"/>
        <pt x="429" y="-12" on="0"/>
        <pt x="299" y="-12" on="1"/>
        <pt x="230" y="-12" on="0"/>
        <pt x="134" y="40" on="0"/>
        <pt x="74" y="135" on="0"/>
        <pt x="48" y="268" on="0"/>
      </contour>
      <contour>
        <pt x="299" y="62" on="1"/>
        <pt x="380" y="62" on="0"/>
        <pt x="459" y="187" on="0"/>
        <pt x="463" y="318" on="1"/>
        <pt x="136" y="318" on="1"/>
        <pt x="138" y="265" on="0"/>
        <pt x="156" y="172" on="0"/>
        <pt x="194" y="103" on="0"/>
        <pt x="255" y="62" on="0"/>
      </contour>
      <contour>
        <pt x="299" y="638" on="1"/>
        <pt x="221" y="638" on="0"/>
        <pt x="142" y="517" on="0"/>
        <pt x="137" y="392" on="1"/>
        <pt x="463" y="392" on="1"/>
        <pt x="460" y="443" on="0"/>
        <pt x="441" y="532" on="0"/>
        <pt x="403" y="599" on="0"/>
        <pt x="343" y="638" on="0"/>
      </contour>
    </TTGlyph>
    <TTGlyph name="afii10148" xMin="-29" yMin="0" xMax="630" yMax="707">
      <contour>
        <pt x="295" y="0" on="1"/>
        <pt x="217" y="0" on="1"/>
        <pt x="-29" y="700" on="1"/>
        <pt x="61" y="700" on="1"/>
        <pt x="257" y="134" on="1"/>
        <pt x="264" y="134" on="1"/>
        <pt x="362" y="492" on="1"/>
        <pt x="385" y="570" on="0"/>
        <pt x="426" y="657" on="0"/>
        <pt x="468" y="698" on="0"/>
        <pt x="512" y="707" on="0"/>
        <pt x="538" y="707" on="1"/>
        <pt x="573" y="707" on="0"/>
        <pt x="613" y="696" on="0"/>
        <pt x="630" y="685" on="1"/>
        <pt x="606" y="615" on="1"/>
        <pt x="586" y="626" on="0"/>
        <pt x="551" y="633" on="0"/>
        <pt x="537" y="633" on="1"/>
        <pt x="509" y="633" on="0"/>
        <pt x="471" y="581" on="0"/>
        <pt x="451" y="520" on="1"/>
      </contour>
    </TTGlyph>
    <TTGlyph name="afii10193" xMin="100" yMin="-160" xMax="500" yMax="500">
      <contour>
        <pt x="100" y="0" on="1"/>
        <pt x="100" y="500" on="1"/>
        <pt x="180" y="500" on="1"/>
        <pt x="180" y="70" on="1"/>
        <pt x="420" y="70" on="1"/>
        <pt x="420" y="500" on="1"/>
        <pt x="500" y="500" on="1"/>
        <pt x="500" y="0" on="1"/>
        <pt x="337" y="0" on="1"/>
        <pt x="337" y="-160" on="1"/>
        <pt x="269" y="-160" on="1"/>
        <pt x="269" y="0" on="1"/>
      </contour>
    </TTGlyph>
    <TTGlyph name="afii10194" xMin="37" yMin="-6" xMax="533" yMax="700">
      <contour>
        <pt x="37" y="500" on="1"/>
        <pt x="146" y="500" on="1"/>
        <pt x="146" y="700" on="1"/>
        <pt x="226" y="700" on="1"/>
        <pt x="226" y="500" on="1"/>
        <pt x="416" y="500" on="1"/>
        <pt x="416" y="434" on="1"/>
        <pt x="226" y="434" on="1"/>
        <pt x="226" y="309" on="1"/>
        <pt x="250" y="313" on="0"/>
        <pt x="302" y="316" on="0"/>
        <pt x="344" y="316" on="1"/>
        <pt x="396" y="316" on="0"/>
        <pt x="468" y="293" on="0"/>
        <pt x="513" y="253" on="0"/>
        <pt x="533" y="198" on="0"/>
        <pt x="533" y="167" on="1"/>
        <pt x="533" y="76" on="0"/>
        <pt x="424" y="-6" on="0"/>
        <pt x="309" y="-6" on="1"/>
        <pt x="292" y="-6" on="0"/>
        <pt x="250" y="-5" on="0"/>
        <pt x="206" y="-4" on="0"/>
        <pt x="163" y="-2" on="0"/>
        <pt x="146" y="0" on="1"/>
        <pt x="146" y="434" on="1"/>
        <pt x="37" y="434" on="1"/>
      </contour>
      <contour>
        <pt x="226" y="70" on="1"/>
        <pt x="246" y="67" on="0"/>
        <pt x="292" y="64" on="0"/>
        <pt x="312" y="64" on="1"/>
        <pt x="387" y="64" on="0"/>
        <pt x="450" y="113" on="0"/>
        <pt x="450" y="158" on="1"/>
        <pt x="450" y="198" on="0"/>
        <pt x="389" y="250" on="0"/>
        <pt x="320" y="250" on="1"/>
        <pt x="296" y="250" on="0"/>
        <pt x="244" y="248" on="0"/>
        <pt x="226" y="243" on="1"/>
      </contour>
    </TTGlyph>
    <TTGlyph name="afii10195" xMin="57" yMin="-12" xMax="543" yMax="512">
      <contour>
        <pt x="57" y="250" on="1"/>
        <pt x="57" y="371" on="0"/>
        <pt x="183" y="512" on="0"/>
        <pt x="300" y="512" on="1"/>
        <pt x="363" y="512" on="0"/>
        <pt x="454" y="471" on="0"/>
        <pt x="514" y="401" on="0"/>
        <pt x="543" y="305" on="0"/>
        <pt x="543" y="250" on="1"/>
        <pt x="543" y="190" on="0"/>
        <pt x="511" y="93" on="0"/>
        <pt x="449" y="25" on="0"/>
        <pt x="358" y="-12" on="0"/>
        <pt x="300" y="-12" on="1"/>
        <pt x="238" y="-12" on="0"/>
        <pt x="146" y="29" on="0"/>
        <pt x="86" y="99" on="0"/>
        <pt x="57" y="195" on="0"/>
      </contour>
      <contour>
        <pt x="300" y="445" on="1"/>
        <pt x="153" y="445" on="0"/>
        <pt x="141" y="281" on="1"/>
        <pt x="459" y="281" on="1"/>
        <pt x="456" y="312" on="0"/>
        <pt x="434" y="372" on="0"/>
        <pt x="396" y="417" on="0"/>
        <pt x="339" y="445" on="0"/>
      </contour>
      <contour>
        <pt x="300" y="55" on="1"/>
        <pt x="372" y="55" on="0"/>
        <pt x="452" y="137" on="0"/>
        <pt x="459" y="217" on="1"/>
        <pt x="141" y="217" on="1"/>
        <pt x="144" y="186" on="0"/>
        <pt x="166" y="127" on="0"/>
        <pt x="204" y="82" on="0"/>
        <pt x="261" y="55" on="0"/>
      </contour>
    </TTGlyph>
    <TTGlyph name="afii10196" xMin="40" yMin="-11" xMax="560" yMax="507">
      <contour>
        <pt x="291" y="-11" on="1"/>
        <pt x="257" y="-11" on="1"/>
        <pt x="40" y="500" on="1"/>
        <pt x="132" y="500" on="1"/>
        <pt x="279" y="139" on="1"/>
        <pt x="280" y="139" on="1"/>
        <pt x="352" y="325" on="1"/>
        <pt x="368" y="368" on="0"/>
        <pt x="396" y="435" on="0"/>
        <pt x="429" y="482" on="0"/>
        <pt x="472" y="507" on="0"/>
        <pt x="502" y="507" on="1"/>
        <pt x="520" y="507" on="0"/>
        <pt x="548" y="503" on="0"/>
        <pt x="560" y="498" on="1"/>
        <pt x="548" y="424" on="1"/>
        <pt x="539" y="428" on="0"/>
        <pt x="522" y="433" on="0"/>
        <pt x="514" y="433" on="1"/>
        <pt x="497" y="433" on="0"/>
        <pt x="463" y="403" on="0"/>
        <pt x="443" y="356" on="1"/>
      </contour>
    </TTGlyph>
    <TTGlyph name="afii10846" xMin="58" yMin="-12" xMax="537" yMax="512">
      <contour>
        <pt x="78" y="442" on="1"/>
        <pt x="118" y="474" on="0"/>
        <pt x="227" y="512" on="0"/>
        <pt x="291" y="512" on="1"/>
        <pt x="351" y="512" on="0"/>
        <pt x="443" y="475" on="0"/>
        <pt x="505" y="406" on="0"/>
        <pt x="537" y="310" on="0"/>
        <pt x="537" y="250" on="1"/>
        <pt x="537" y="187" on="0"/>
        <pt x="502" y="89" on="0"/>
        <pt x="436" y="23" on="0"/>
        <pt x="342" y="-12" on="0"/>
        <pt x="284" y="-12" on="1"/>
        <pt x="242" y="-12" on="0"/>
        <pt x="157" y="18" on="0"/>
        <pt x="92" y="88" on="0"/>
        <pt x="58" y="200" on="0"/>
        <pt x="68" y="283" on="1"/>
        <pt x="455" y="283" on="1"/>
        <pt x="451" y="353" on="0"/>
        <pt x="358" y="442" on="0"/>
        <pt x="277" y="442" on="1"/>
        <pt x="250" y="442" on="0"/>
        <pt x="199" y="429" on="0"/>
        <pt x="156" y="411" on="0"/>
        <pt x="121" y="389" on="0"/>
        <pt x="111" y="380" on="1"/>
      </contour>
      <contour>
        <pt x="302" y="54" on="1"/>
        <pt x="328" y="54" on="0"/>
        <pt x="381" y="73" on="0"/>
        <pt x="424" y="112" on="0"/>
        <pt x="452" y="172" on="0"/>
        <pt x="452" y="213" on="1"/>
        <pt x="145" y="213" on="1"/>
        <pt x="145" y="179" on="0"/>
        <pt x="166" y="121" on="0"/>
        <pt x="206" y="78" on="0"/>
        <pt x="264" y="54" on="0"/>
      </contour>
    </TTGlyph>
    <TTGlyph name="afii57929" xMin="158" yMin="487" xMax="297" yMax="738">
      <component glyphName="quoteright" x="-74" y="0" flags="0x204"/>
    </TTGlyph>
    <TTGlyph name="afii61289" xMin="133" yMin="-12" xMax="466" yMax="712">
      <contour>
        <pt x="466" y="30" on="1"/>
        <pt x="444" y="16" on="0"/>
        <pt x="373" y="-12" on="0"/>
        <pt x="338" y="-12" on="1"/>
        <pt x="275" y="-12" on="0"/>
        <pt x="218" y="49" on="0"/>
        <pt x="218" y="114" on="1"/>
        <pt x="218" y="218" on="1"/>
        <pt x="168" y="174" on="1"/>
        <pt x="133" y="218" on="1"/>
        <pt x="218" y="292" on="1"/>
        <pt x="218" y="546" on="1"/>
        <pt x="218" y="590" on="0"/>
        <pt x="238" y="653" on="0"/>
        <pt x="273" y="693" on="0"/>
        <pt x="320" y="712" on="0"/>
        <pt x="347" y="712" on="1"/>
        <pt x="395" y="712" on="0"/>
        <pt x="457" y="653" on="0"/>
        <pt x="457" y="593" on="1"/>
        <pt x="457" y="519" on="0"/>
        <pt x="377" y="353" on="0"/>
        <pt x="286" y="265" on="1"/>
        <pt x="286" y="125" on="1"/>
        <pt x="286" y="81" on="0"/>
        <pt x="320" y="48" on="0"/>
        <pt x="344" y="48" on="1"/>
        <pt x="369" y="48" on="0"/>
        <pt x="429" y="69" on="0"/>
        <pt x="449" y="80" on="1"/>
      </contour>
      <contour>
        <pt x="393" y="588" on="1"/>
        <pt x="393" y="622" on="0"/>
        <pt x="365" y="652" on="0"/>
        <pt x="347" y="652" on="1"/>
        <pt x="335" y="652" on="0"/>
        <pt x="313" y="645" on="0"/>
        <pt x="296" y="624" on="0"/>
        <pt x="286" y="587" on="0"/>
        <pt x="286" y="557" on="1"/>
        <pt x="286" y="345" on="1"/>
        <pt x="342" y="410" on="0"/>
        <pt x="393" y="531" on="0"/>
      </contour>
    </TTGlyph>
    <TTGlyph name="afii61352" xMin="4" yMin="0" xMax="605" yMax="712">
      <contour>
        <pt x="391" y="333" on="1"/>
        <pt x="586" y="333" on="1"/>
        <pt x="586" y="261" on="1"/>
        <pt x="391" y="261" on="1"/>
      </contour>
      <contour>
        <pt x="78" y="475" on="1"/>
        <pt x="74" y="475" on="1"/>
        <pt x="79" y="367" on="1"/>
        <pt x="79" y="0" on="1"/>
        <pt x="4" y="0" on="1"/>
        <pt x="4" y="700" on="1"/>
        <pt x="60" y="700" on="1"/>
        <pt x="259" y="230" on="1"/>
        <pt x="264" y="230" on="1"/>
        <pt x="258" y="343" on="1"/>
        <pt x="258" y="700" on="1"/>
        <pt x="333" y="700" on="1"/>
        <pt x="333" y="0" on="1"/>
        <pt x="278" y="0" on="1"/>
      </contour>
      <contour>
        <pt x="369" y="542" on="1"/>
        <pt x="369" y="589" on="0"/>
        <pt x="388" y="654" on="0"/>
        <pt x="421" y="694" on="0"/>
        <pt x="464" y="712" on="0"/>
        <pt x="487" y="712" on="1"/>
        <pt x="510" y="712" on="0"/>
        <pt x="552" y="696" on="0"/>
        <pt x="585" y="657" on="0"/>
        <pt x="605" y="592" on="0"/>
        <pt x="605" y="542" on="1"/>
        <pt x="605" y="493" on="0"/>
        <pt x="585" y="428" on="0"/>
        <pt x="552" y="389" on="0"/>
        <pt x="510" y="373" on="0"/>
        <pt x="487" y="373" on="1"/>
        <pt x="464" y="373" on="0"/>
        <pt x="421" y="389" on="0"/>
        <pt x="388" y="428" on="0"/>
        <pt x="369" y="493" on="0"/>
      </contour>
      <contour>
        <pt x="439" y="542" on="1"/>
        <pt x="439" y="508" on="0"/>
        <pt x="446" y="466" on="0"/>
        <pt x="459" y="442" on="0"/>
        <pt x="476" y="434" on="0"/>
        <pt x="487" y="434" on="1"/>
        <pt x="498" y="434" on="0"/>
        <pt x="516" y="440" on="0"/>
        <pt x="528" y="463" on="0"/>
        <pt x="535" y="506" on="0"/>
        <pt x="535" y="542" on="1"/>
        <pt x="535" y="577" on="0"/>
        <pt x="528" y="620" on="0"/>
        <pt x="516" y="643" on="0"/>
        <pt x="498" y="651" on="0"/>
        <pt x="487" y="651" on="1"/>
        <pt x="476" y="651" on="0"/>
        <pt x="458" y="644" on="0"/>
        <pt x="446" y="621" on="0"/>
        <pt x="439" y="578" on="0"/>
      </contour>
    </TTGlyph>
    <TTGlyph name="agrave" xMin="75" yMin="-9" xMax="545" yMax="720">
      <component glyphName="a" x="0" y="0" flags="0x204"/>
      <component glyphName="grave" x="-9" y="0" flags="0x4"/>
    </TTGlyph>
    <TTGlyph name="amacron" xMin="75" yMin="-9" xMax="545" yMax="643">
      <component glyphName="a" x="0" y="0" flags="0x204"/>
      <component glyphName="macron" x="14" y="0" flags="0x4"/>
    </TTGlyph>
    <TTGlyph name="ampersand" xMin="30" yMin="-12" xMax="569" yMax="712">
      <contour>
        <pt x="30" y="207" on="1"/>
        <pt x="30" y="273" on="0"/>
        <pt x="104" y="393" on="0"/>
        <pt x="170" y="434" on="1"/>
        <pt x="146" y="470" on="0"/>
        <pt x="111" y="542" on="0"/>
        <pt x="111" y="584" on="1"/>
        <pt x="111" y="608" on="0"/>
        <pt x="127" y="654" on="0"/>
        <pt x="162" y="690" on="0"/>
        <pt x="217" y="712" on="0"/>
        <pt x="256" y="712" on="1"/>
        <pt x="297" y="712" on="0"/>
        <pt x="353" y="691" on="0"/>
        <pt x="387" y="657" on="0"/>
        <pt x="402" y="615" on="0"/>
        <pt x="402" y="593" on="1"/>
        <pt x="402" y="551" on="0"/>
        <pt x="337" y="462" on="0"/>
        <pt x="267" y="421" on="1"/>
        <pt x="283" y="392" on="0"/>
        <pt x="326" y="331" on="0"/>
        <pt x="374" y="271" on="0"/>
        <pt x="424" y="212" on="0"/>
        <pt x="449" y="187" on="1"/>
        <pt x="460" y="203" on="0"/>
        <pt x="477" y="249" on="0"/>
        <pt x="488" y="299" on="0"/>
        <pt x="493" y="349" on="0"/>
        <pt x="493" y="370" on="1"/>
        <pt x="564" y="370" on="1"/>
        <pt x="561" y="307" on="0"/>
        <pt x="527" y="182" on="0"/>
        <pt x="494" y="139" on="1"/>
        <pt x="508" y="122" on="0"/>
        <pt x="544" y="89" on="0"/>
        <pt x="569" y="73" on="1"/>
        <pt x="569" y="-12" on="1"/>
        <pt x="516" y="14" on="0"/>
        <pt x="448" y="81" on="1"/>
        <pt x="430" y="63" on="0"/>
        <pt x="393" y="30" on="0"/>
        <pt x="347" y="4" on="0"/>
        <pt x="288" y="-12" on="0"/>
        <pt x="249" y="-12" on="1"/>
        <pt x="208" y="-12" on="0"/>
        <pt x="130" y="15" on="0"/>
        <pt x="68" y="69" on="0"/>
        <pt x="30" y="151" on="0"/>
      </contour>
      <contour>
        <pt x="401" y="131" on="1"/>
        <pt x="372" y="160" on="0"/>
        <pt x="316" y="228" on="0"/>
        <pt x="265" y="296" on="0"/>
        <pt x="222" y="359" on="0"/>
        <pt x="207" y="383" on="1"/>
        <pt x="153" y="342" on="0"/>
        <pt x="110" y="258" on="0"/>
        <pt x="110" y="210" on="1"/>
        <pt x="110" y="171" on="0"/>
        <pt x="139" y="114" on="0"/>
        <pt x="183" y="76" on="0"/>
        <pt x="236" y="58" on="0"/>
        <pt x="261" y="58" on="1"/>
        <pt x="311" y="58" on="0"/>
        <pt x="378" y="103" on="0"/>
      </contour>
      <contour>
        <pt x="189" y="584" on="1"/>
        <pt x="189" y="554" on="0"/>
        <pt x="214" y="495" on="0"/>
        <pt x="234" y="466" on="1"/>
        <pt x="287" y="500" on="0"/>
        <pt x="328" y="556" on="0"/>
        <pt x="328" y="577" on="1"/>
        <pt x="328" y="609" on="0"/>
        <pt x="297" y="649" on="0"/>
        <pt x="259" y="649" on="1"/>
        <pt x="223" y="649" on="0"/>
        <pt x="189" y="613" on="0"/>
      </contour>
    </TTGlyph>
    <TTGlyph name="aogonek" xMin="75" yMin="-195" xMax="571" yMax="508">
      <contour>
        <pt x="108" y="461" on="1"/>
        <pt x="151" y="486" on="0"/>
        <pt x="259" y="508" on="0"/>
        <pt x="311" y="508" on="1"/>
        <pt x="362" y="508" on="0"/>
        <pt x="427" y="476" on="0"/>
        <pt x="464" y="425" on="0"/>
        <pt x="477" y="360" on="0"/>
        <pt x="477" y="327" on="1"/>
        <pt x="477" y="289" on="0"/>
        <pt x="473" y="203" on="0"/>
        <pt x="472" y="160" on="1"/>
        <pt x="472" y="110" on="0"/>
        <pt x="478" y="65" on="1"/>
        <pt x="545" y="65" on="1"/>
        <pt x="545" y="0" on="1"/>
        <pt x="524" y="0" on="1"/>
        <pt x="503" y="-13" on="0"/>
        <pt x="489" y="-30" on="1"/>
        <pt x="469" y="-55" on="0"/>
        <pt x="469" y="-87" on="1"/>
        <pt x="469" y="-107" on="0"/>
        <pt x="495" y="-138" on="0"/>
        <pt x="520" y="-138" on="1"/>
        <pt x="539" y="-138" on="0"/>
        <pt x="560" y="-128" on="1"/>
        <pt x="571" y="-171" on="1"/>
        <pt x="556" y="-183" on="0"/>
        <pt x="506" y="-195" on="0"/>
        <pt x="485" y="-195" on="1"/>
        <pt x="440" y="-195" on="0"/>
        <pt x="386" y="-147" on="0"/>
        <pt x="386" y="-106" on="1"/>
        <pt x="386" y="-65" on="0"/>
        <pt x="413" y="-36" on="1"/>
        <pt x="433" y="-15" on="0"/>
        <pt x="464" y="0" on="1"/>
        <pt x="412" y="0" on="1"/>
        <pt x="403" y="75" on="1"/>
        <pt x="398" y="75" on="1"/>
        <pt x="392" y="66" on="0"/>
        <pt x="368" y="38" on="0"/>
        <pt x="329" y="11" on="0"/>
        <pt x="273" y="-9" on="0"/>
        <pt x="235" y="-9" on="1"/>
        <pt x="161" y="-9" on="0"/>
        <pt x="75" y="67" on="0"/>
        <pt x="75" y="133" on="1"/>
        <pt x="75" y="184" on="0"/>
        <pt x="120" y="252" on="0"/>
        <pt x="204" y="288" on="0"/>
        <pt x="323" y="294" on="0"/>
        <pt x="397" y="283" on="1"/>
        <pt x="402" y="329" on="0"/>
        <pt x="395" y="390" on="0"/>
        <pt x="370" y="426" on="0"/>
        <pt x="325" y="441" on="0"/>
        <pt x="292" y="441" on="1"/>
        <pt x="247" y="441" on="0"/>
        <pt x="165" y="416" on="0"/>
        <pt x="133" y="403" on="1"/>
      </contour>
      <contour>
        <pt x="255" y="58" on="1"/>
        <pt x="283" y="58" on="0"/>
        <pt x="331" y="76" on="0"/>
        <pt x="367" y="104" on="0"/>
        <pt x="391" y="137" on="0"/>
        <pt x="397" y="152" on="1"/>
        <pt x="397" y="222" on="1"/>
        <pt x="345" y="231" on="0"/>
        <pt x="257" y="231" on="0"/>
        <pt x="193" y="212" on="0"/>
        <pt x="157" y="172" on="0"/>
        <pt x="157" y="140" on="1"/>
        <pt x="157" y="107" on="0"/>
        <pt x="202" y="58" on="0"/>
      </contour>
    </TTGlyph>
    <TTGlyph name="approxequal" xMin="78" yMin="210" xMax="521" yMax="503">
      <component glyphName="asciitilde" x="0" y="83" flags="0x204"/>
      <component glyphName="asciitilde" x="0" y="-83" flags="0x4"/>
    </TTGlyph>
    <TTGlyph name="aring" xMin="75" yMin="-9" xMax="545" yMax="734">
      <component glyphName="a" x="0" y="0" flags="0x204"/>
      <component glyphName="ring" x="-4" y="0" flags="0x4"/>
    </TTGlyph>
    <TTGlyph name="arrowboth" xMin="1" yMin="50" xMax="599" yMax="278">
      <contour>
        <pt x="599" y="171" on="1"/>
        <pt x="599" y="157" on="1"/>
        <pt x="570" y="143" on="0"/>
        <pt x="511" y="97" on="0"/>
        <pt x="470" y="50" on="1"/>
        <pt x="445" y="50" on="1"/>
        <pt x="467" y="104" on="0"/>
        <pt x="506" y="148" on="1"/>
        <pt x="93" y="148" on="1"/>
        <pt x="133" y="104" on="0"/>
        <pt x="155" y="50" on="1"/>
        <pt x="129" y="50" on="1"/>
        <pt x="88" y="97" on="0"/>
        <pt x="30" y="143" on="0"/>
        <pt x="1" y="157" on="1"/>
        <pt x="1" y="171" on="1"/>
        <pt x="31" y="185" on="0"/>
        <pt x="87" y="230" on="0"/>
        <pt x="129" y="278" on="1"/>
        <pt x="155" y="278" on="1"/>
        <pt x="133" y="223" on="0"/>
        <pt x="93" y="179" on="1"/>
        <pt x="506" y="179" on="1"/>
        <pt x="467" y="223" on="0"/>
        <pt x="445" y="278" on="1"/>
        <pt x="470" y="278" on="1"/>
        <pt x="513" y="230" on="0"/>
        <pt x="569" y="185" on="0"/>
      </contour>
    </TTGlyph>
    <TTGlyph name="arrowdown" xMin="186" yMin="-136" xMax="414" yMax="424">
      <contour>
        <pt x="186" y="-5" on="1"/>
        <pt x="186" y="19" on="1"/>
        <pt x="224" y="0" on="0"/>
        <pt x="254" y="-19" on="0"/>
        <pt x="284" y="-43" on="1"/>
        <pt x="284" y="424" on="1"/>
        <pt x="316" y="424" on="1"/>
        <pt x="316" y="-42" on="1"/>
        <pt x="350" y="-10" on="0"/>
        <pt x="414" y="20" on="1"/>
        <pt x="414" y="-5" on="1"/>
        <pt x="368" y="-45" on="0"/>
        <pt x="321" y="-104" on="0"/>
        <pt x="306" y="-136" on="1"/>
        <pt x="292" y="-136" on="1"/>
        <pt x="267" y="-78" on="0"/>
      </contour>
    </TTGlyph>
    <TTGlyph name="arrowleft" xMin="1" yMin="50" xMax="599" yMax="277">
      <contour>
        <pt x="132" y="277" on="1"/>
        <pt x="156" y="277" on="1"/>
        <pt x="137" y="240" on="0"/>
        <pt x="119" y="210" on="0"/>
        <pt x="94" y="180" on="1"/>
        <pt x="599" y="180" on="1"/>
        <pt x="599" y="147" on="1"/>
        <pt x="94" y="147" on="1"/>
        <pt x="127" y="113" on="0"/>
        <pt x="157" y="50" on="1"/>
        <pt x="132" y="50" on="1"/>
        <pt x="92" y="95" on="0"/>
        <pt x="32" y="143" on="0"/>
        <pt x="1" y="157" on="1"/>
        <pt x="1" y="172" on="1"/>
        <pt x="58" y="196" on="0"/>
      </contour>
    </TTGlyph>
    <TTGlyph name="arrowright" xMin="1" yMin="50" xMax="599" yMax="277">
      <contour>
        <pt x="468" y="277" on="1"/>
        <pt x="542" y="196" on="0"/>
        <pt x="599" y="172" on="1"/>
        <pt x="599" y="157" on="1"/>
        <pt x="567" y="143" on="0"/>
        <pt x="508" y="95" on="0"/>
        <pt x="468" y="50" on="1"/>
        <pt x="443" y="50" on="1"/>
        <pt x="473" y="113" on="0"/>
        <pt x="506" y="147" on="1"/>
        <pt x="1" y="147" on="1"/>
        <pt x="1" y="180" on="1"/>
        <pt x="506" y="180" on="1"/>
        <pt x="482" y="209" on="0"/>
        <pt x="463" y="240" on="0"/>
        <pt x="444" y="277" on="1"/>
      </contour>
    </TTGlyph>
</ttFont>
